<mxfile host="app.diagrams.net" agent="Mozilla/5.0 (Windows NT 10.0; Win64; x64) AppleWebKit/537.36 (KHTML, like Gecko) Chrome/134.0.0.0 Safari/537.36" version="26.0.11">
  <diagram name="第 1 页" id="noHX00B7aHj8dFLlDjEL">
    <mxGraphModel dx="2245" dy="1138" grid="1" gridSize="10" guides="1" tooltips="1" connect="1" arrows="1" fold="1" page="1" pageScale="1" pageWidth="1169" pageHeight="827" math="0" shadow="0">
      <root>
        <mxCell id="0" />
        <mxCell id="1" parent="0" />
        <mxCell id="dcRDBtTyZHfLPVehlYID-12" value="" style="shape=image;verticalLabelPosition=bottom;labelBackgroundColor=default;verticalAlign=top;aspect=fixed;imageAspect=0;image=data:image/png,iVBORw0KGgoAAAANSUhEUgAABZoAAAKiCAIAAADQfP7rAAAgAElEQVR4AeydB3hUxff3T9rupm6AkN4JHUSjFKUjgiAqviCKAlFQDIg1lABSRKQIIuofFfhBBCkBRRCpoQQEQWliQCBIE4gQCKGEJCSb3XmjRyfXvbubTQES+ObJg7Nzz5w585nZPM73TiGBHxAAARAAARAAARAAARAAARAAARAAARCoVASoUkWLYEEABEAABEAABEAABEAABEAABEAABEBAQM7AIAABEAABEAABEAABEAABEAABEAABEKhkBCBnVLIOQ7ggAAIgAAIgAAIgAAIgAAIgAAIgAAKQMzAGQAAEQAAEQAAEQAAEQAAEQAAEQAAEKhkByBmVrMMQLgiAAAiAAAiAAAiAAAiAAAiAAAiAAOQMjAEQAAEQAAEQAAEQAAEQAAEQAAEQAIFKRgByRiXrMIQLAiAAAiAAAiAAAiAAAiAAAiAAAiAAOQNjAARAAARAAARAAARAAARAAARAAARAoJIRgJxRyToM4YIACIAACIAACIAACIAACIAACIAACEDOwBgAARAAARAAARAAARAAARAAARAAARCoZAQgZ1SyDkO4IAACIAACIAACIAACIAACIAACIAACkDMwBkAABEAABEAABEAABEAABEAABEAABCoZAcgZlazDEC4IgAAIgAAIgAAIgAAIgAAIgAAIgADkDIwBEAABEAABEAABEAABEAABEAABEACBSkYAckYl6zCECwIgAAIgAAIgAAIgAAIgAAIgAAIgADkDYwAEQAAEQAAEQAAEQAAEQAAEQAAEQKCSEYCcUck6DOGCAAiAAAiAAAiAAAiAAAiAAAiAAAhAzri5YyA5OZn+/jl58uTNrakCezeZTE8//bSHh8fHH39cgcNEaCAAAiAAAiAAAiAAAiAAAiAAApWGQCnlDJNJGCvYr8lUbtBzcnJmzpzZtWvXsLAwd3d3Nze38PDwHj16LF682Gg0lqiaiiBnxMTEsKRi+9+EhIQSNc1+44yMDK66QYMG9peCJQiAAAiAAAiAAAiAAAiAAAiAAAhYI1BKOcNoEqHDVocOW1Vhflcby0nOWLZsmb+/P0+/nZ2dAwMDq1ev7ujoyDn16tX79ddf1TTT09PnzJnz3nvvmT2qCHLG0KFDayh+fH19uS2KvL+Sy5YtMwu+HD/Gx8fff//9X3/9dTn6hCsQAAEQAAEQAAEQAAEQAAEQAIG7lkBZ5IxVYcMqym/osFXlImdMnz7dwcGBiOrWrfv1119nZ2fzyMjMzJw9e3ZQUBAReXp6bt++3WzE8AqI1q1bm+VXBDnDLKSEhASWM8zy8REEQAAEQAAEQAAEQAAEQAAEQAAEKgsByBlFPbVx40ZehdGlS5fc3NyiB/+m0tPTGzZsSEQBAQEXLlz4N/uv/0LOUNJAGgRAAARAAARAAARAAARAAARAAARuKgHIGf/gNZlM9erVI6JatWrJRRlq9KmpqTqdjojefvtt5dOKIGcYDAZlSNbSWJ1hjQzyQQAEQAAEQAAEQAAEQAAEQAAEKgsByBn/9NT69et5C8bSpUttd96LL75IRB4eHnl5eUKIsLAwLmj2LztRbjY5c+ZM//79Q0JCNBpNcHBwbGys2RIPLpKTk/PBBx/cf//9fApp4XqQsWPHXrt2TRmVUpKYN29enTp1nJycYmJilDbW0sqyapuDBw/GxsbWqVPH3d1dp9NFRkb27dtXfVyIsl0ZGRlxcXE1atTQarU+Pj5PPPGEejMOUxozZoxZjSaT6dtvv+3atWtgYKBGo6latWrjxo1nzJghzfLz8xcsWNC2bdugoCCNRhMYGPjYY49t27ZNGiABAiAAAiAAAiAAAiAAAiAAAiBwFxKAnPFPp8fFxbFIUewah++++46Vix9++EEI0bp16xo1anh6ehKRTqeT52uyXzntX7VqlY+Pj7Ozc1BQkDxYtHbt2mYrQU6dOsWLRIjI29ub3fJZHufPn5cDVEoSS5YsISK9Xu/r6/vCCy9IAxsJWVZtM3HiRI7NwcEhICDAz8+PW+rk5PTJJ58o7WW7Nm3aFBwcTER+f/+wvaOj49y5c5X2FuWMzMzMRx55hIu4uLgEBwfzypdGjRpx2WvXrjVp0oQNvL29/fz8+GQT9ZGryrqQBgEQAAEQAAEQAAEQAAEQAAEQuOMJQM74p4vbtm1LROqzPNUj4PTp0zzBnjVrlnxa7GYTHx+f3r17Z2RkCCGysrJ4iUehZjF9+nTpJCcnp0GDBkTUpEmTffv2cf62bdvCw8OJ6IknnpCWUpKIiIj44IMPCgoKhBAXL16UBjYSsqyZzRdffMHteumll9LS0vjpH3/80aNHDyJycHBYtWqVLCLljKCgoI4dO6ampvKjAwcOPPDAA0Sk1WplplzDolydYTAYWrduTURubm7/93//l5WVJYQwmUz79u0bO3YsexsxYgSfvZqUlMQ5ubm533zzzXfffScjQQIEQAAEQAAEQAAEQAAEQAAEQOAuJAA5459OZx2hR48exQ6C7OxsnvZPnDhRGhcrZzzwwANGo1Ha5+XlBQYGElGnTp1k5gcffEBEkZGRV65ckZlCiM2bN3ONx44d43wpSSg1DmURG2lZVmlz7dq1KlWqEFG/fv2U+SwxsNbToEED+UjKGU2bNjVbz5KWlubq6kpEr776qrRXr86YPXs2ETk5OSUnJ0szs8Sjjz5KRE899ZRZPj6CAAiAAAiAAAiAAAiAAAiAAAjc5QQgZ/wzAGrVqkVEzzzzTLED4saNGywufPjhh9K4WDkjMTFRGnOiT58+RFSvXj2Zz9tMlOs1+JHRaORdGF9++SXnSEli/fr1sridCVlWaZ+YmMhLMOS6DOXT1atXm+kpUs5YsWKF0pLTffv25Q0y8pFazmjatCkRPfvss9JGnYiNjSUiX1/fEydOqJ8iBwRAAARAAARAAARAAARAAARA4K4lADnjn65v1qwZEbVr167YoXD27Fme28+fP18aFytnHDhwQBpzIj4+nojCw8P5o1z0ERQUJA/gkAlnZ+fCHRxyPYiUJM6ePWvmttiPsqzScujQoURUu3ZtZaZMX7x4kZu8cuVKzpRyxunTp6WZTPAyE3d3d5ljJmfk5eU5OTkVLkVRMpTGMnH06FFvb2/eutK3b98ff/xRPkICBEAABEAABEAABEAABEAABEDgbiYAOeOf3ufDLLy9vZVbQiyOjO+//57n9kqFolg54+TJk2bexowZQ0RhYWGcL1USdm7xX3n2hJQkio3WrNLCYyxkWeWjl19+mYiaN2+uzJRpg8HA8SxcuJAzpZxh8cCOmTNnsgYhPZjJGX/++Sc73LBhg7SxmDh58uSzzz7L2gcRNWzYEAdnWASFTBAAARAAARAAARAAARAAARC4qwhAzvinuxctWsQT7NWrV9seAbyTIiAgwGQyScuyyxlXrlzhANasWSPdWktYlCSsGZvlWyz71ltvEVH9+vXNjPljRkaGWWxSzrB41ywrNUFBQdKbmZxx6dIldrhs2TJpYyNx5syZcePG8WkjRPTpp5/aMMYjEAABEAABEAABEAABEAABEACBO54A5Ix/uvjGjRs8W46Ojs7Pz7fW8UeOHOFjLOS+D7Ysu5whhOCLUSdPnmytdplvUZKQT20nLJadO3cuH8xpUZ5Ys2YNn6whL4uVcsauXbvU1fGVJcpjSs3kDNnY119/XV3cWk5OTs6TTz7Jd52UYlmKNbfIBwEQAAEQAAEQAAEQAAEQAAEQqHQEIGcUddmCBQt4yUBMTAxffVr07O9UWlpa/fr1iahOnTrXr19XPh04cCBvhVBmCiHktL/YzSZCiH79+hFRRETEtWvXzPwIIW7cuCEzLUoS8qnthMWyFy5ccHNzI6JBgwapi7dv356IOnToIB/Jdj333HMykxM//PCDg4ND4Ukcixcvlo/UcsagQYOIyMPD4/fff5dmxSZWrFjBfZSenl6sMQxAAARAAARAAARAAARAAARAAATuVAKQM/7Ts0OGDOHZcpMmTdatWyeXaaSnp3/66ae8esLPz+/QoUP/KSbE1KlTicjR0XHHjh1CCHmihJz22yNnpKamsqbQuHHjnTt38mYWk8m0f//+gQMHxsfHy0otShLyqe2EtbITJ07ktr/66qvnzp1jJ6dPn+7ZsycRubm5paSkSM+yXUQ0YMCAjIwMIYTRaPzuu+98fHyIqHHjxsoLXNVyxp9//unr60tEgYGBy5YtY9Qmk2nHjh1Dhw7lil566aWEhAR5be2FCxc6d+5MRCEhIcqdPjIqJEAABEAABEAABEAABEAABEAABO4SApAzzDt6xowZnp6ePLHXaDQhISE+Pj683ICIWrZs+ccff5iXEeLPP//08PDgHRkBAQEajYZt5LTfHjlDCLFixQpXV1eu3cvLKywsjN0S0ahRo2S91iQJaWAjYaNsXFwcV+3g4BAYGOjv788fvb29k5KSlD5lu0aOHOng4ODk5BQSEiK51apVy4ySWs4QQuzevTsgIICrcHV1DQ0N9fLyIqJGjRpxXbxpxdHRMTAwMCAggA8EdXd3L/YAUWWoSIMACIAACIAACIAACIAACIAACNx5BMoiZ6wOHbaqwvyuNhady1nWbsrIyJg8eXLbtm1ZmNDr9bVr137ppZfWr19vw/XPP//cpk0bb29vd3f3Fi1asKWc9tspZwghjh8/PnDgwKioKJ1Ox3pK165dFy9erDwtwoYkYSNCfmS77I8//vjcc8+FhoZqNBpPT8977713xIgR6p0dynatX7++bdu2np6ebm5u99xzz3vvvWe2E6fwOhWLcoYQIjMz8913342Ojvbw8HB1dY2Kinr++ee3b9/Ooa5fv7579+7h4eE6na5atWoczJkzZ4ptIwxAAARAAARAAARAAARAAARAAATubAKllDNMJmGsYL+Ka0bu7C6rEK1TyhkVIiAEAQIgAAIgAAIgAAIgAAIgAAIgcDcRKKWccTchQlstEICcYQEKskAABEAABEAABEAABEAABEAABG4VAcgZt4r0nVUP5Iw7qz/RGhAAARAAARAAARAAARAAARCoZAQgZ1SyDqsg4ULOqCAdgTBAAARAAARAAARAAARAAARA4O4kADnj7uz3srYackZZCaI8CIAACIAACIAACIAACIAACIBAGQhAzigDvLu4KOSMu7jz0XQQAAEQAAEQAAEQAAEQAAEQuP0EIGfc/j5ABCAAAiAAAiAAAiAAAiAAAiAAAiAAAiUiADmjRLhgDAIgAAIgAAIgAAIgAAIgAAIgAAIgcPsJQM64/X2ACEAABEAABEAABEAABEAABEAABEAABEpEAHJGiXDBGARAAARAAARAAARAAARAAARAAARA4PYTgJxx+/sAEYAACIAACIAACIAACIAACIAACIAACJSIAOSMEuGCMQiAAAiAAAiAAAiAAAiAAAiAAAiAwO0nADnj9vcBIgABEAABEAABEAABEAABEAABEAABECgRAcgZJcIFYxAAARAAARAAARAAARAAARAAARAAgdtPAHLG7e8DRAACIAACIAACIAACIAACIAACIAACIFAiApAzSoQLxiAAAiAAAiAAAiAAAiAAAiAAAiAAArefAOSM298HiAAEQAAEQAAEQAAEQAAEQAAEQAAEQKBEBCBnlAgXjEEABEAABEAABEAABEAABEAABEAABG4/AcgZt78PEAEIgAAIgAAIgAAIgAAIgAAIgAAIgECJCEDOKBGuW2ScnJxMf/+cPHlSVvn222+7u7sPGTJE5pRvYsyYMUQUFhZWvm6FEEuWLNHr9W3bts3NzbXf+c1ur/2RwPIuJ2Dx+2g/k7CwMCIaM2aM/UVgCQIgAAIgAAIgAAIgAAIgUCyBUsoZJpMwVrBfk6nYxhZjEBMTwyJC3bp1TcW5y8vLCwgIYPuEhIRiXJfwscXpk4eHBxF5eHiU0Jm95vbIGRMmTOAm//777zb8zpw5k4gcHBxOnDghhOjSpQuX2rNnj41SZo9udnvNqiv2IyalxSIqLwM5/olo586dxbp9++23eYC1bt26WONSGMh4lPKi/X4wcuxnBUsQAAEQAAEQAAEQAAEQsJ9AKeUMo0kYHJ2MDg4V5PevYMpPziCitWvX2oaYkJDAM6jCFQ23Rs6YPn16dHT0p59+ajuwUj+1R844ffq0o6NjoVTx7rvv2qioZcuWRCTnlsnJyU2aNHn55ZcLCgpslDJ7dLPba1ZdsR8xKS0WUXkZSPmAiJ555hnbbq9everl5QU5wzYlPAUBEAABEAABEAABEACBO49A6eUMo4ODIKogv3+pKuUkZ2i12sJ3wh07drTd2Q0bNiQid3f3WyZn2I6n7E/tkTOEEO3atSOiOnXqWKvx1KlTDg4ONwOLtRpvTT7kjFvDWQgh5QytVuvs7HzmzBkbVU+dOlV+E6WCZsO+FI9kPFidUQp6KAICIAACIAACIAACIAACN4kA5IwisLzZpFWrVrxR4tChQ0XP/ptKSkoioqioqMDAwJsxby/j9Om/wdr7yU4548svv+Q34Xv37rXomjekuLu7Z2VlWTSopJmQM25Zx8nxz1/GYcOGWavaYDCEhoYSEVtCzrAGCvkgAAIgAAIgAAIgAAIgcOcRgJxR1KcsZ8TExDRu3JiI+vfvX/Tsv6mOHTsWTunHjh17F67OyMrK4lYPHjz4v1T++VS/fn0iiomJsfi08mZCzrhlfSfljBkzZhBRlSpVsrOzLda+ePFiIoqMjBwwYIByf5NF41JnyniwOqPUDFEQBEAABEAABEAABEAABMqdAOSMIqRSzliwYAERubq6Xrp0qejxv6mDBw8SkVarTU9Pd3Jysrg6o6CgYObMmc2bN/fy8tLpdLVq1YqLi0tPT//XR9F/MzMzhw8fXq9ePVdXV29v7/bt22/cuNHi9Kl169bWZIJNmzb17NkzLCxMp9Pp9fp77rln7Nixsg6TybR8+fIePXqEh4drtVpXV9eGDRuOGzfuxo0b0qYwYefqDCFEr169iCg4OFh9YOq+fft47cbmzZulc4ueTSbTypUrO3fuHBYWptFo/Pz82rVrt2LFClnKWnuNRmNiYuLjjz8eEBCg0Wj0en2TJk0mTJhw9epVWZYT3KH8xn716tUPP/xwlSpVXF1do6Oj58+fb2Zc7Ec75Yzdu3cPGDCgfv367u7uLi4u4eHhr7zyytmzZ5X+T548yZSSk5MzMzPj4uIiIyO1Wq2fn19MTIyZMRe8fv36+PHjGzVq5O7u7unp2aJFi2+//VbpR/q3FqdFYyGEPQGXNAa2T0tLe+ONN6KiorRarV6vb9my5dy5c41GowzVWkKO/+vXr3t7exPRZ599ZtGYlcePP/64X79+1uSMgwcPxsbG1qlTx93dXafTRUZG9u3b99dff7Xo0P7vIxdPTU3t169faGioRqOpWrVqhw4dlGOYbSz2SGZm5qRJkx544IFq1aq5urpGRET07t3bYtdbjBOZIAACIAACIAACIAACIAACkDOKxoCUM/Lz84OCgohowoQJRY//TfXt25eI+vbtK4TgSanZUaCZmZktWrTgRx4eHlWqVOF0YGDg4cOH/3Xz138PHDjA21X4FbSPjw/vc4mNjeUiyrfBFqf3ubm5LC4QkaOjY2BgIF8IotfrZUXDhg1jbzqdLjg4mA8HIaI2bdooz+a0KDpIJ8oE77Up9LBlyxZlvhAiLi6OiMLDw5VKh9qzwWCQ1514enoGBgbyCaP9+vWTDi229+LFi7ytgBWlkJAQbi9X+ttvv8niQggpZ0yaNImIvLy8qlWrxigKT1uYMmWK0rjYtMVJqVmptWvXsn8nJ6eAgAB5RKWfn59ypiqVhcWLF0dERDg6OgYFBTk7O3PZ0NBQMx3t1KlTNWvW5KceHh4hISGso7322mucmZycLCOxFqesVGlsZ8BCiBLFIITYuHGjsvkajYZD7datW7GKhpQzhBBDhw7ls1qUI4ob+8MPPxCRXq/PysqSfS05cGLixIk8tBwcHAICAvz8/DgMJyenTz75xMy4RN9HIcSCBQu4XeycO4WI3nrrLaVndY+kpKT4+vryl93f31+v13NU27ZtUxZEGgRAAARAAARAAARAAARAwAYByBlFcKScIYTgCXBQUFB+fn6RhRDnz59nOSAlJcWinGE0Gtu3b09EtWrVSk5O5jnYgQMH7rvvPiJq1KiRnJVdvXo1PDycz+DYunUr13Ls2DHeycLTm2LljOeff56InJyc3n33XTkHTk1NjYuLk2EPGjSoW7duW7duNRgMQgiDwTBq1Cj2n5iYKM3UooN8ZJYwGo0s95jtxzEajazOjB49WllE7XnWrFlE5OzsvHDhQp7c5ufnJyUlzZs3TxZUyxkFBQWsE+n1+vnz5/PqEqPRmJSUxDPGiIgI5YEd3KHVqlXz9PRMTEzkivbt2xcREcGrby5fviyrKzahnpSqi3z99dfR0dFLly6VYaxcuZJnvLGxsdJeKgvVq1fv0qVLWlqaECI3N1cKT/Hx8dI4Pz8/OjqaiKpXr75ixQpuRUZGxksvvcSdWLgqQalQWItTVqo0tjPgksZw6NAh3pHUp0+fc+fOCSEKCgoSEhJ0Ol2hrjRt2jTZOosJpZxx5swZFxcXIlqzZo2Z8ZNPPklEPNQtyhlffPEFI3rppZcYshDijz/+6NGjB0sJq1atkj5L+n3cvHkz6xeDBw++cuWKECIvL2/y5Ml8Du63334rPat75KGHHiKiBg0ayAuPMzIyPvnkExvn9UhvSIAACIAACIAACIAACIAACDAByBlFI0EpZ1y+fJnnYwsXLiyyEOKdd94hovbt2/+D7+/ZknJ1xtKlS3mpxalTp5QFjx49ypOfTZs2cf748eP5RgalZsFyQ7NmzXgapnyknt5v2LCBzWxvnTh//rwyEiGEyWSqVasWEb344ovykVp0kI/UCX5nXrVqVaXcw/E4ODgcP35cWUTtmZef3HfffUozs7S6vV999RXPQqX6I4ukpqayzDR16lSZyR1KRJ9//rnMFEIsX76cuS1btkyZbzutnpSq7TMyMpQLXtiAdYeIiAhpL5WF8PDw3NxcmS+EuPfee4moYcOGMlO2eseOHTKTE0899RQ3RKlQWItTVqo0tjPgksbQuXNnIurWrZtZwKNHjyaikJAQs3yzj0o5Qwjx3HPPEdEjjzyiNDt69Kijo6OTkxN/0dRyxrVr13hhlHLJD3swmUxt27ZlQUH6LNH30WQy8Rkxb7/9tvTAiT59+hBRy5YtZb66R1jW+fjjj6UNEiAAAiAAAiAAAiAAAiAAAiUlADmjiJhSzhBCDBo0qPCdcJMmTaRFTk4O7wdZvXo1Z/JkUiln8ETuzTfflKVkghUEeapFgwYNiOiVV16RBjIxb9489mxbznjmmWeIqFmzZrKgnYns7GxeA9KhQwdZRC06yEfqBB8gQkTff/+9fPrCCy+YTeT4kdozL35xdXXdvXu3LG6WUMsZjz76qI07dJ9++mkiatGihfTDHerl5WW2uyE/P59foZdov4l6UiorspEwGAzjxo0r3Lik0WikmVQW1AGwXubu7i6NH3/8cfVknp9u2bKljHKGrEUmLAZcohjS09MZ7/79+6VbTuzYsYMDNhP7zMzM5Iw9e/ZwKeVmooEDBxLR008/zWXVckZiYiKLX3JdhrKW1atXs89jx45xfom+j7t27eLlRRcvXlS6FUIsWrSIu1sqfeqRU6dOHd7tdf36dbPi+AgCIAACIAACIAACIAACIGAnAcgZRaDM5Ixjx47xrvsff/yRjT7//HOzbfw8I1LKGbwl3tfXt4bqh1/Jsn6Rm5vLU75FixYVRfBvavPmzezZtpwRHBxceGTGuHHj/i1n9b8nTpyYNm1a7969H3zwQXl8gNnRiWrRwaq7vx/wDoiePXuyWU5ODp+VMGfOHLOCas+XLl0KCQnhbTLdu3dft26dmeIghFDLGcx24sSJZv7545QpU4ioatWq8il36AMPPCBzZIIhSGmJq1P1WA3lgRfqSan0pkxcvnw5ISEhNja2Xbt24eHh8jwFoqLvmpQzlJsd2AmPMaUx798ZP368shZOnzhxgseJcsGFtThlpUpjIYQ9AZcohjVr1nBUap4cW6EmtXPnTnVzZI6ZnCEHw8svv8w2ly5dcnNzU/pRyxm8gKh27drSrTJx8eJFDnLlypW806dE38fPPvuM5Qx1G+VpOLzLRgih7pElS5Zwdb6+viNHjpSSijJCpEEABEAABEAABEAABEAABGwTKJpi2bYze2o0CaODgyCqIL9GBwejySzGEn80kzOEELyYn98Ayw0aX3zxhXTNMyKlnCEPdORH6n/5BtO0tDR+tGHDBulNJuR0zracwYcyzJ49WxZUJ0wm0+DBg3lS7ejoGBUV1aFDh/79+zdq1KiMcsb06dN5swy/YeaX4W5ubteuXTMLQy1nCCEuXrwYGxsrzyWNiIiYO3eusqBazuAzFKy1d/bs2UTk4uIinainuPKReoYpZ9rKLlPyVxeR3mQiMTFRnn8ZGBjYsmXLPn36PPbYY+xTmllTFgqnvgkJCWbG3MuzZs2SxWXCoh9rcVo0tjPgEsXAFwMpMarTZpKKbBEn5PiX+d999x0fd5KRkSGE4I0hynVJ6r5++eWXiah58+bSiTJhMBg4Kt5NVtLvIwegbpcyRw4eiz2ydevWBx98kO0dHBw6dep04MABZYRIgwAIgAAIgAAIgAAIgAAI2CYAOaOIj1rO2LZtG68gOH36NL9zrlatWk5OjizDsxGlnGH7XklZUL4cVl/rKISQ77fljEi+oGY1hP14enoS0YcffijdqhPyNfKMGTOUQkPv3r3LKGdcuHCBtRueEPJNJb1791bHYFHOYLOLFy9OmzZNXtuhPMFULWfwUQjqDRrsaurUqYU3evr6+soA1FNc+cjiDFM+tZgotkhKSgoD6d+/v3KDw5w5c3icSLcWlWlVWmsAACAASURBVAV+qpYzXF1dC2Wa999/XxaXiUOHDrFnpTrA58sqDxNle7Wx/QGXKIYVK1ZwVMpviozZnoRazjCZTDxIJkyYYDAYeAXEkiVLpDd1X7/11ltEVL9+fWmjTGRkZHCQfMJoSb+PrOUpB5vSuVnaxsjZu3dvbGwsrzRxdXXdtWuXWVl8BAEQAAEQAAEQAAEQAAEQsEYAckYRGbWcIYRo3LgxEY0ePbpbt25ENGLEiKICli5qbdq0KRENGDBAaaZOG41GFiNGjhypfsqnLRCRbTmjSZMmRPTEE0+oPcgcvkOhV69eMocTfNpo69atZb4N0UHamCVYwujSpUtGRgYvnZAHnSoti/VcUFAwYMAAvmtWHlyqljP4ilZr7eXrKjp16iSrVk9x5SMbM0xpY5YotsiIESOIKDQ0VF5ewx7i4+PLImfUrVuXiHr06GEWjxBi/vz5ajmDz4BQ60ryAFSpfdgfcIliOHz4MEf1888/q2O2J0ctZwghZsyYwdfxrly5kjkrT11V9/XcuXNZi7xw4YK6UlYMHRwceLyV9PsoL7iVw1VdhcwpduScOXMmMjKSiDp37ixLIQECIAACIAACIAACIAACIGCbAOSMIj4W5YzFixfz3Emj0bi4uPz5559FBSzJGe+99x4R6fV65bELsgjfLcofu3btSkT+/v5m14VmZGT4+/vzhNC2nMHrERwdHeXpHrIimeB32q+99prMEULs3buX1xGUUc7ga1y0Wi1v9FDP5LnSYuUMIcT+/fvN5sBqOYMntE5OTup58u+//877VpRnkainuBJCsTNMaSkTxRbh3Q3KS0mEEFlZWVxQeRxGiVZnvP766zwtP3z4sAxGCHHjxo2GDRuq5QzeIeXv768cbEIIvstDeaur/QGXNIaoqCiLN5tw/GaBKRvFaYtyRnZ2dtWqVYmIh7TyChshhLqvL1y4wKseBg0apK6Cb1NWHoVbou/j9evX9Xq9vCbWzL/JZJLngFo8O8PMXgjx5ptvElHdunXVj5ADAiAAAiAAAiAAAiAAAiBgkQDkjCIsFuUMg8EQGhrKk0b1G2/OV242ycjI4GMma9asmZSUJF8gHz16dPjw4X369JH1bd++nY8DbNq06cGDBzn/l19+ue+++6pVq8aebcsZ2dnZtWvXZvVkzpw5cm1/SkqKXB7CBzfo9frt27cLIYxG44YNG0JDQz08PMq42YRn1Ly5hm9qeOedd2TrlAm1nBEfH//xxx+np6ez2dWrV/v160dEbm5uV69e5Uy1nHHjxg0+8qNq1aqLFy/Oy8vjFm3cuDEiIoKbozxSVD3FlVEVq01IS5ngIiNHjsxV/XAkfBYpEc2YMYMXaKSmprZq1YpRl1rOOH78OO/1qFWrljxB8+jRo+3atZPjRC64UJ6+0bNnzytXrrCk8tZbb8kwpLH9AZc0Bnl8Ru/evU+cOMEM8/LyNmzY0KlTJ+VtOBKvMmFRzhBCDB8+nL8XHh4e3DRZymJfT5w4ke1fffVVeTDn6dOne/bsyYMtJSVFeijp95GPz3BwcHj77bflGo3s7Ozly5c3a9ZMeRCGerC1a9du3bp1PGyEEAcPHuQtQs8//7yMBwkQAAEQAAEQAAEQAAEQAAHbBCBnFPGxKGcIIeSsb9++fUXWf6fUcoYQYseOHXKe6e7uHhYWxnN+IjITRPi+Unbi7+/PN3eEh4cvXLiQM23LGUKI48ePs6LBd0OGhobyARN6vZ5D3bFjB5/jWDjNrl69uru7OxE9+eSTffr0KbucIYTo378/h0pE1i5oUMsZjJoXpwQHB/NGFWdn53nz5knCajlDCHH69GlWNPhgyLCwMN6zQ0StWrXicyKlB4tTXH6qnmHKUtYSXEQ2Vplo1KiRECIzM1MqX56enjwGIiMj5fiRnku0OkMIkZiYKI+Y9fHxCQgIICIfH59Vq1ZxGFu2bJHODQYD7zDia0qDgoK0Wq1Op/vyyy/ZWMoZ9gdc0hiU0gMfaBISEiLHocUdSTL+wmNirMkZaWlpPFRef/11pb3F1RlsEBcXx612cHAIDAyU6568vb2TkpLMnJTo+2g0Gnv16iWdBwQEBAUFcTc5OjoePXpUOlcPNi6l1WpDQ0P57mciioyMPHPmjCyFBAiAAAiAAAiAAAiAAAiAgG0CpZczDI5Of90nUjF+/wrmJtxswuyuXLni6emp3JchmfK0RLk6gx+dO3du6NCh9evXd3Nz02g0AQEBjz766KxZs+T7WOkhKSnp0UcfrVKlilarjYqKGjx4cGZmppzOFStnCCGys7OnTZv20EMP6fV6rVYbERHRtWtX5Q2gKSkpTz31VFBQkE6nq1ev3pQpUwoKCtRTfbXoIIO0kdi+fTtDaNGihTUzteeffvopJiYmKirK3d1dr9c3aNDgtddeS01NVXqwKGfwkpDPPvusdevWVatWdXZ2rl69eseOHb/66ivlugz2o26j9K+eYcpH1hLFyhlCiAsXLgwaNCgqKkqn0wUHB7/66quXLl1Sn+5ZUjmD9wd17969evXqGo0mLCxswIABaWlpR44cYfi7d+9Whp2VlRUfHx8VFaXRaKpVq9a1a9dffvnFYqV2BszO9+7da38MQogtW7Z07949MDDQxcXFzc2tdu3affv25VVCymjVaTn+1Y/69Onj6OioFs5s9PWPP/743HPPhYaGajQaT0/Pe++9d8SIEXJlkFkV9n8fueDy5csfe+wxX19fZ2dnT0/Phg0bDho0SLnow+Jmk88++6xt27aBgYEajSYwMLB58+YzZszgG4LM4sFHEAABEAABEAABEAABEAABawRKKWeYTOKvu1or0q+pzHKGNUbIB4GKSWDjxo0sZ5w+ffp2RVgRYrhdbUe9IAACIAACIAACIAACIAACt5FAKeWM2xgxqgYBEGACw4YNM7ub9taTqQgx3PpWo0YQAAEQAAEQAAEQAAEQAIHbTgByxm3vAgQAArYImEwmg8Ggtjh16hRfrqE+SEJtXMacihBDGZuA4iAAAiAAAiAAAiAAAiAAAncYAcgZd1iHojl3GoGsrKyaNWvOmDFDXhKck5OzZMmS4OBgPt41LS3tZre5IsRws9sI/yAAAiAAAiAAAiAAAiAAApWLAOSMytVfiPauI5CVlcUHZBBRtWrVAgIC5C0ngYGBu3btugVEKkIMt6CZqAIEQAAEQAAEQAAEQAAEQKASEYCcUYk6C6HejQRMJtP333/fq1evunXrent7u7i4+Pr6tmvXbtq0adeuXbs1RCpCDLempagFBEAABEAABEAABEAABECgshCAnFFZegpxggAIgAAIgAAIgAAIgAAIgAAIgAAI/EMAcgaGAgiAAAiAAAiAAAiAAAiAAAiAAAiAQCUjADmjknUYwgUBEAABEAABEAABEAABEAABEAABEICcgTEAAiAAAiAAAiAAAiAAAiAAAiAAAiBQyQhAzqhkHYZwQQAEQAAEQAAEQAAEQAAEQAAEQAAEIGdgDIAACIAACIAACIAACIAACIAACIAACFQyApAzKlmHIVwQAAEQAAEQAAEQAAEQAAEQAAEQAAHIGRgDIAACIAACIAACIAACIAACIAACIAAClYwA5IxK1mEIFwRAAARAAARAAARAAARAAARAAARAAHIGxgAIgAAIgAAIgAAIgAAIgAAIgAAIgEAlIwA5o5J1GMIFARAAARAAARAAARAAARAAARAAARCAnIExAAIgAAIgAAIgAAIgAAIgAAIgAAIgUMkIQM6oiB2WnJxMf/+cPHlSxvf222+7u7sPGTJE5pRvYsyYMUQUFhZWvm6FEEuWLNHr9W3bts3NzbXf+c1ur/2RwBIE7kgCrVu3JqKYmJhStC4hIYH/RpWiLIqAAAiAAAiAAAiAAAiAQLkQKKWcYTIJYwX7NZnKCiQmJob/B71u3bqm4tzl5eUFBASwfUJCQlnr/m95i3KGh4cHEXl4ePzXttw+2SNnTJgwgZv8+++/26h45syZROTg4HDixAkhRJcuXbjUnj17bJQye3Sz22tWXbEfw8LCiGjMmDHFWsKgjAQsjv8y+qwIxVk+IKKOHTsWG8+FCxd0Oh1/cZKTk4u1L4UB5IxSQEMREAABEAABEAABEACBikOglHKG0SQMC5yMCxwqyO9fwZSfnEFEa9eutd1J8uVk4YqGWyNnTJ8+PTo6+tNPP7UdWKmf2iNnnD592tHRsVCqePfdd21U1LJlSyJq3bo12yQnJzdp0uTll18uKCiwUcrs0c1ur1l1xX6EnFEsovIyuOPlDAcHh0OHDtnGxd9HyBm2KeEpCIAACIAACIAACIDA3Uyg9HKGcYGDWEgV5PcvVaWc5AytVmvP69OGDRsSkbu7+y2TM272MLVHzhBCtGvXjojq1KljLZ5Tp045ODjcDCzWarw1+ZAzbg1nIcSdLWfwX5hXXnnFBs/c3Nzq1atrtVonJ6dCZRCrM2ywwiMQAAEQAAEQAAEQAIG7lgDkjKKu580mrVq14o0SNl6fJiUlEVFUVFRgYODNmLfflumcnXLGl19+yW+M9+7dW8ROkeINKe7u7llZWYrsSp+EnHHLuvC2jP9b0Dre3MF/Ydzc3C5dumSt0lmzZhERW0LOsEYJ+SAAAiAAAiAAAiAAAnc5AcgZRQOA5YyYmJjGjRsTUf/+/Yue/TfVsWPHwin92LFj78LVGVlZWdzqwYMH/5fKP5/q169f6vMFLTqsIJmQM25ZR9xsOcNkMpVo31N5NZzljJEjR/KxOxMmTLDo2WQy1alTp/CgnKlTp2KziUVEyAQBEAABEAABEAABEAABIQTkjKJhIOWMBQsWEJGrq6vF16cHDx4kIq1Wm56ezkvB1WdnFBQUzJw5s3nz5l5eXjqdrlatWnFxcenp6UWV/ZvKzMwcPnx4vXr1XF1dvb2927dvv3HjRovTORvn9m3atKlnz55hYWE6nU6v199zzz1jx479twZhMpmWL1/eo0eP8PBwrVbr6urasGHDcePG3bhxQ9oUJuxcnSGE6NWrFxEFBwerD0zdt28fT8A2b94snVv0bDKZVq5c2blz57CwMI1G4+fn165duxUrVshS1tprNBoTExMff/zxgIAAjUaj1+ubNGkyYcKEq1evyrKc4A7lIzxWr1798MMPV6lSxdXVNTo6ev78+WbGxX60U87YvXv3gAED6tev7+7u7uLiEh4e/sorr5w9e1bp/+TJk3KampmZGRcXFxkZqdVq/fz8YmJizIy54PXr18ePH9+oUSN3d3dPT88WLVp8++23Sj/Sv7U4LRoLIewJuKQxsH1aWtobb7wRFRWl1Wr1en3Lli3nzp1rNBplqNYSFse/2jg/P3/+/PmPP/54UFCQRqNxd3d/4IEHPv30U7MqlMNvypQp4eHhDg4OyiNdt2/f3r17d39/f41GExISMnDgwIyMDOXgMat66dKl7du3r1KlikajCQ8P79+/Px95a2am/shDesyYMePHjyeioKAgg8GgNlu1ahUR+fv7Hzt2TI4TM7PCo4hnzpz5yCOPVK9e3cXFpWrVqq1atfq///s/sy+1LLV27douXbr4+PhoNJrIyMghQ4ZkZWVZ+4rZ8+dLHh4kq+DE1q1bu3fvXqNGDa1W6+Pj89BDD/3vf/8zs8FHEAABEAABEAABEAABECgXApAzijBKOSM/Pz8oKIiILL4+7du3LxH17dv3LzXo7x8zOSMzM7NFixb8yMPDo0qVKpwODAw8fPhwUX1CHDhwgLerEFGVKlV8fHx4n0tsbCwXUV7UanHukZuby+ICETk6OgYGBvKFIHq9XlY0bNgw9qbT6YKDg3nrPhG1adNG+Y5aOeuTZS0meK9NoYctW7aYGcTFxRFReHi4UulQezYYDPK6E09Pz8DAQD5htF+/ftKhxfZevHhRrsDXarUhISHcXq70t99+k8WFEHJGOmnSJCLy8vKqVq0aoyg892TKlClK42LT1mQCZcG1a9eyfycnp4CAAC8vL/7o5+enFCmksrB48eKIiAhHR8egoCBnZ2c2Dg0NNdPRTp06VbNmTX7q4eEREhLCOtprr73GmcqzFazFKStVGtsZsBCiRDEIITZu3Khsvkaj4VC7detmJjcoAXLaTjnjmWeeYZ9ubm7BwcESYK9evZQ+5fCbPHkyEfn4+FSpUkXKGaws8NcnKCjI29ubiCIjIx977DHlcbbsMDc3t1u3blypTqerXr06p728vLZt26as1GJayhkZGRlubm5EtGjRIrUlH08zbtw4i10mhDh+/HiDBg24and399DQUFdXV/547733pqWlmfl8/fXX+amzs7Mcaffff3/Tpk3VC6ns/PNlUc4YMGAAV+Tq6iorevjhh83iwUcQAAEQAAEQAAEQAAEQKBcCkDOKMEo5QwjBE+CgoKD8/PwiCyHOnz/PckBKSopFOcNoNLZv375wolKrVq3k5GSe1R84cOC+++4jokaNGsl5/tWrV8PDw/kMjq1bt3Itx44d450sPCsoVs54/vnnicjJyendd9+Vc+DU1NS4uDgZ9qBBg7p167Z161Z+FWwwGEaNGsX+ExMTpZmc9ckcawmj0chyj9l+HKPRyOrM6NGjlWXVnvloAGdn54ULF/LkNj8/Pykpad68ebKgWs4oKChgnUiv18+fP59fRBuNxqSkJJ7DR0REKA/s4A6tVq2ap6dnYmIiV7Rv376IiAhefXP58mVZXbEJazKBsuDXX38dHR29dOlSGcbKlSt5Jh8bGyst5TS1evXqXbp04flnbm6uFJ7i4+OlcX5+fnR0NBFVr159xYoV3IqMjIyXXnqJO9HsbAVrccpKlXKGnQGXNIZDhw7xjqQ+ffqcO3dOCFFQUJCQkMA3j06bNk22zmLCTjnjiSee6Nev3549e5hJdnY2S41E9PPPP0vPPPyq/v3z1Vdf8Rfw4sWLQohly5Yxw169ev35559C/LWUad26df7+/pwvb+dhb+w/ICDg22+/ZSnw1KlTDz/8MBEFBARkZ2fLSi0mpJwhhGDJskmTJmaWv/zyCxHpdLoLFy5Y7LJr167VqlWLF3esXLmSw8jPz1+6dGnVqlULb2Vq2rQpA2HPn3zyCbdlyJAhPODz8vL+97//eXp6cn5MTIyMwf4/X2o5Q6qcH374If/ZLCgo2LFjxyeffCL9IwECIAACIAACIAACIAAC5UgAckYRTKWccfnyZZ6PLVy4sMhCiHfeeYeI2rdvz5k8H1Cuzli6dCkvtTh16pSy4NGjR/mN+qZNmzifXwu7u7srNQshhMFgaNasGXtWPlJP7zds2MBmtrdOnD9/XhkJz9l4RvTiiy/KR2rRQT5SJ4YOHUpEVatWVco9HI+Dg8Px48eVRdSeeS533333Kc3M0ur2fvXVV7x6Rao/skhqairLTFOnTpWZ3KFE9Pnnn8tMIcTy5cuZ27Jly5T5ttPWZAJlqYyMDOWCF37EukNERIS0lNPU8PDw3NxcmS+EuPfee4moYcOGMlO2eseOHTKTE0899RQ3RKlQWItTVqo0tjPgksbQuXNnIurWrZtZwKNHjyaikJAQs3yzj3bKGeqBnZ2dzUtClBcJ8/Ajotdff11Zkclk4jUvnTp1kiIjG+zdu5e/rUo54+effy5csaXRaPbs2aP0c+nSJV6BNWfOHGW+Oq2UM1JTU/kCoB9//FFpyYutXnrppcLlRRa77L333iMiNze3I0eOKAsKIbZs2cLj4ZtvvuFH169f5/Umr776qpkxb2kxW51h/58vtZzBEnDhyhezivARBEAABEAABEAABEAABG4SAcgZRWCVcoYQYtCgQUSkfH2ak5PD+0FWr17NxXjyoJQzeCL35ptvFvn9N8UKgjzVgpeLW7yvcd68eezZtpzBi+2bNWv2bw32/jc7O5vXgHTo0EGWUYsO8pE6wQeIENH3338vn77wwgtE1LJlS5nDCbVnnvm4urru3r3bzFh+VMsZjz76qI07dJ9++mkiatGihfTAHerl5aV8WS2EyM/P55lkifabWJMJZHUWEwaDYdy4cTwNlgZymqoOgPUyd3d3afz4448T0SOPPCJzZEJOX5UKhbU4ZaVKY+lKJiwGXKIY0tPTGe/+/fulW07s2LGDB7aZ2GdmZqecYVZKCHH16lU+iVa5bkjKGampqcoie/fu5WDMBAW2adOmjdlmk4EDBxJR165dlU443aFDByJ64YUX1I+UOUo5QwjB+62efvppaXP27FkXFxciOnjwoDU5g08Jtfh3QwjBxxjL7TbffPMNK4C89kRWxAlepqRcnWH/ny+1nJGYmMg8V61aZVYRPoIACIAACIAACIAACIDAzSAAOaOIqpmccezYMT7QQc52Pv/8cyKqU6eOfJfL//uulDN8fX2JyNfXt4bqh1fa8zwkNzeXp3wWN89v3ryZPduWM4KDgwv3/I8bN66oDVZSJ06cmDZtWu/evR988EE/Pz92bjZbU4sOVpz9k807IHr27Mmfc3Jy+MW4+h212vOlS5dCQkJ4m0z37t3XrVtnpjgIIdRyBrOdOHGixcCmTJnCC0bkU+7QBx54QObIBEOQ0hJXp+qxGsoDL6zJBNInJy5fvpyQkBAbG9uuXbvw8HB+yc/ApaVUFtQTPx5jREVfTN6/M378eFlcJk6cOMGelQqFtThlpUpjIYQ9AZcohjVr1nBUap4cW6EmtXPnTtkKdcJ+OePAgQMTJ0589tlnGzdurDwYRTlF5+Gn0Wjk15Zr5B1POp1OvaBGCNGnTx+zL0iTJk14gKnbxRs3OnbsqG6LMsdMzuBmOjs7nz59ms14t5H0o+6y7OxsZrt48WKlZ5l+9dVXiSg6Oppzhg8fzhvfpIEywcfQKFnZ+edLCKGWM/Lz83ltEWuO33zzjXLplrJepEEABEAABEAABEAABECgXAgUzZpK5M5oEsYFDmIhVZBf4wIHo6lELbBgbCZnCCF4MT+/PjWZTLy84osvvpCFeWqhlDPkeYT8SP0vTx7S0tL40YYNG6Q3mbA4nVNP7/lQhtmzZ8uC6oTJZBo8eDBPqh0dHaOiojp06NC/f/9GjRqZzdbUooPamzJn+vTphQdquru7X79+XQjB72bd3NyuXbumNCtMW/R88eLF2NhYeS5pRETE3LlzlQXV7eUX19baO3v2bCJycXGRTrhDlfsF5CP1nF/OtJVdppST1EWkN5lITEyU518GBga2bNmyT58+fKikUqFQT1OlB/UskXt51qxZ0kYmLPqxFqdFYzsDLlEMfDGQEqM6bSapyBZxwuL4N7PJy8uTh+A6OzvXrVu3c+fOAwcO5OYrp+g8/NQ7XCZMmEBEgYGBZp75o3rwREVFqRuizLE40pTOzeQMIQRrgkOGDBFCyI0h69at41LqLrP9d6Nwq9rIkSOJqGbNmuzh5ZdfJqLmzZsrw5Bp9VfMzj9fFuUMbsLw4cPlV8DX13fq1KkWb2+RMSABAiAAAiAAAiAAAiAAAqUmADmjCJ1azti2bRuvIDh9+jS/c65WrVpOTo4sw5MZpZzBO9U/++wzaWMxcfHiRS6rvJpUWsr328rptHruwe+EP/zwQ1lQnfjss8+IyNnZecaMGUqhoXfv3mWUMy5cuMCTHz5ehFfO9+7dWx2DRTmDzS5evDht2jR5bYfyBFN1e/mEAvUGDXY1depUXhcjA1DPSOUja3N+aaBOFFskJSWFgfTv3195u8ScOXO4r6VP9TRVPlLLGXxpxfvvvy9tZOLQoUPsWakO8PmyysNE2V5tbH/AJYphxYoVHJXymyJjtidhj5zBp7d4enouXrxYWVHLli3NzoOwNvz4ohOdTme2aoMj7NGjh9kXhJceDB061J4mWLRRyxl8KIm3t3d2djZ/VevVqyfLqsfJ1atXme3XX38tzZQJsy1yvFjj3nvvVdrINK83UUo/dv75siZnsOesrKzZs2fz4ccWj1CRASABAiAAAiAAAiAAAiAAAmUhADmjiJ5azpB70UePHs0XNI4YMaKogKWLWvnuwwEDBijN1Gmj0chixMiRI9VP+bSFwlmZbTmDZyNPPPGE2oPMeeihh4hI7qWX+XzaqPJ9srVZnyyiTrCE0aVLl4yMDF46IQ86VRoX67mgoICveHR0dJTnO6rlDF4bb629PP/s1KmTrPoWyxkjRowgotDQULPpcXx8fFnkjLp16xJRjx49ZLtkYv78+Wo5g89kUetK8gBUqX3YH3CJYjh8+DBHpbxeRMZsT8IeOYP3v7zzzjtmDvlSEuUU3drwW7JkCcd56NAhMydCiBo1apjJGXxUjXKAqUvZzlHLGfJO6Llz595///2Fq0WUy3DUcoYQIjQ0VH2sqayX/ybIvz+8A0ur1fISKmkmhMjNzeXTjpWs7PzzZVvOkLXw+hci2rVrl8xEAgRAAARAAARAAARAAATKiwDkjCKSFuWMxYsX8xxVo9G4uLiYnajH0yHl6gy+d0Cv1yuPXZB18N2i/LFr165E5O/vb3ZdaEZGhrwn0racwesRHB0d5ekesiKZ4IUPr732mswRQuzdu5fXEZRRzuB7ELRaLW/0UM/kuVJr80llSPv37zebA6vljBkzZvBiGfU8+ffff+d9K8qzSG6xnMEL+5WXkgghsrKyeFlHqTebvP7669zqw4cPK4nduHGjYcOGDE0qFHKHlL+/v3KwCSHatm1rZmx/wCWNgfdlqG824fjNAlM2itP2yBksn5ktTVq5ciW3UTlFtzb80tPT2cnzzz9vFsPChQvZj/ILwispnJycfvnlFzN7IUSxjZLHwYwZM0ZZfOLEibw9hO/iVd50Y1HOGDJkCBF5enoq/ziwwx9++IHDln8Q+NrXwptfJ02apKxUCPH++++rWdn/50u9jMjMvxDiypUrXMWSJUvUT5EDAiAAAiAAAiAAAiAAAmUkADmjCKBFOcNgMPDrUCJSv/Hm/1lXyhkZGRl8zGTNmjWTkpLkKYNHBc+XSQAAIABJREFUjx4dPnx4nz59ZH3bt2/n00CbNm3KFxkIIX755Zf77rtPHmqonLGop/fZ2dm1a9cmIr1eP2fOHLnkPiUlRb6e5YMb9Hr99u3bhRBGo3HDhg2hoaEeHh5mL5+tzfpkwOrEjRs3eHU637agflXORdSe4+PjP/744/T0dDa4evVqv379+PrJq1evcqa6vTdu3OAjP6pWrbp48eK8vDxu0caNG/mOhtatWyuPFL0ZcsbIkSNzVT8cCb8JL5yUzpgxgxdopKamtmrVilGXWs44fvw47/WoVauWPEHz6NGj7dq1k+NEKWfIeWbPnj2vXLnCkspbb70lw5DG9gdc0hjk8Rm9e/c+ceIEd2heXt6GDRs6deqkvA2HH5n9K+WMI0eOqGDn8neKbzAJDQ397bff+HrjJUuWVK1alZtpj5whhOjfvz9/hUeMGJGVlSWEyMvLmz17tk6nY7ZKOSM/P79evXqF9/76+fktXbqUO10IcebMmUmTJikvCTJrjvyoXp0hhMjMzORVEkQ0atQoaWztZpOLFy/yGcBhYWFr165lGgaD4ZtvvuGYzf5MPfLII7zdbPr06ay5ZGdnT5w40dnZuWrVqmYbc+z/8yWHmQz4o48+eu+99/744w/Oyc3NHTVqFN+rcvToUWmGBAiAAAiAAAiAAAiAAAiUFwHIGUUkLcoZQgg569u3b1+R9d8ptZwhhNixY4ecZ7q7u4eFhfGcXy2I8H2l7MTf35+vFQgPD5cvh23LGUKI48ePs6LBV4GGhobyARN6vZ5D3bFjB5/jyO9+eeL05JNPqi9uUIsOZo21+FFOCAu3tBw7dsyijdozo+bFKcHBwfyS3NnZed68edKDWs4QQpw+fZoVDSJydXUNCwvjPTtE1KpVq4yMDFm8cDZ4M+QM7iyzfxs1asTzUql8eXp68hiIjIyU40fGZvGtOz9VzxL5mFV5RqOPj09AQAAR+fj4rFq1iiPZsmWLdG4wGHiHEc8kg4KCtFqtTqf78ssv2VjKGZmZmXYGXNIYCnUBvlODa/T19Q0JCZHj0OKOJBl/4SoGKWeYceaPH330kRDim2++YTXQwcHB39+f1+a89tpr6mGjHn6yrqysrAcffJDdajSa0NBQNzc3IoqNjeXB06ZNG2kshEhNTeWjSQrXO+h0urCwMPlNV99PrCzIaYtyhhCCT7jQaDTnzp1TlrI2TlJSUuSSHw8PDxl24Q2v3bt3l7Imuzp79qw8xFSn04WGhjKr999/X83K/j9f6oHKnHlkhoSEyFN+LR77omwm0iAAAiAAAiAAAiAAAiBQOgKllzMMC5z+uk+kYvz+FcxNuNmEmV65csXT01P5nlay5omQcnUGPzp37tzQoUPr16/v5uam0WgCAgIeffTRWbNmyTe60kNSUtKjjz5apUoVrVYbFRU1ePDgzMxMOZ0rVs4QQmRnZ0+bNu2hhx7S6/VarTYiIqJr167KG0BTUlKeeuqpoKAgnU5Xr169KVOmFBQUqKf6NmZ9Mlp1Yvv27QyhRYsW6qeco/b8008/xcTEREVFubu76/X6Bg0avPbaa6mpqUoPFudavKr/s88+a926ddWqVQuPOK1evXrHjh2/+uor5boM9qNuo/Rf7Lme0lIm5ASS26v8l+UMIcSFCxcGDRoUFRWl0+mCg4NfffXVS5cuqSd+1qapNo4k2Lt3b/fu3atXr67RaMLCwgYMGJCWlnbkyBEOY/fu3TJOXo4RHx8fFRWl0WiqVavWtWvXX375xWKldgbMzksUgxBiy5Yt3bt3DwwMdHFxcXNzq127dt++fXmVkDJadVqOfyVkmWY5Qwixbdu2Dh06+Pn5ubm5RUdH8w3B6mGjHn7KGnNzcydPnnzPPfe4urrq9fqWLVvyfqVnn32WiB577DGlMW+geO+996Kjoz08PHj4tWnT5sMPP1Ses2tWRH60Jmf8/vvvjo6OyhUlXMRil/Gja9euTZo0qWnTpnq93sXFJSAgoGvXrtaWvVy+fDk+Pr5WrVparbZq1aqPPPLI6tWr5eYXdb32/PlSj+pDhw4NHDiwTp06np6eHh4edevWffHFF/fu3SubjwQIgAAIgAAIgAAIgAAIlC+BUsoZJpP4667WivRrKrOcUb5k4Q0EbjaBjRs38iT/9OnTN7sua/4rQgzWYitLfosWLYiob9++ZXGCsiAAAiAAAiAAAiAAAiAAAjePQCnljJsXEDyDAAjYSWDYsGFmd9PaWbAczSpCDOXYHHZ1+fJlnU5XyLbYG5fLvWo4BAEQAAEQAAEQAAEQAAEQsJMA5Aw7QcEMBG4PAZPJZDAY1HWfOnVKr9fbuLNTXaTUORUhhlIHb6Ngfn6+xadvvPEGH0ZjdpiFRWNkggAIgAAIgAAIgAAIgAAI3BYCkDNuC3ZUCgL2EsjKyqpZs+aMGTPkJcE5OTlLlizh6y2qV6+elpZmr6/S2lWEGEobu61y8fHxL7zwwg8//CB1jdTU1BdffJG38IwcOdJWYTwDARAAARAAARAAARAAARC4rQQgZ9xW/KgcBIojkJWVJU/BrFatWkBAgLzlJDAwcNeuXcU5KIfnFSGGcmiGykVcXByz1Wq1QUFBvNqFc2JjY+Uty6pyyAABEAABEAABEAABEAABELj9BCBn3P4+QAQgYIOAyWT6/vvve/XqVbduXW9vbxcXF19f33bt2k2bNs2e2zRseLb/UUWIwf5o7bc8c+bMxIkTmzdvzvfIenp68vUrO3futN8JLEEABEAABEAABEAABEAABG4LAcgZtwU7KgUBEAABEAABEAABEAABEAABEAABECg9AcgZpWeHkiAAAiAAAiAAAiAAAiAAAiAAAiAAAreFAOSM24IdlYIACIAACIAACIAACIAACIAACIAACJSeAOSM0rNDSRAAARAAARAAARAAARAAARAAARAAgdtCAHLGbcGOSkEABEAABEAABEDg9hAwmUTWDWP6tbyTGdkH0679fDJz85ELq349t2TXmYTtJz/dfGzyuiOjvzs49JuUwUt/fXvJ/jcT97+x+JfXFu17deG+AQv2xn61t//8PS/N2933y92z3//hqycWL3gyceFTS/767b+s+9Kez3zd6/llL7yw/OWXVw4YuOr1N9bGDU0aMWfHR/kpkw2/fWQ48oXh9y8NJ5bmn16V/2dyfvqu/EsH86+dys/OyM/PN5luDxPUCgIgAAIgUBkJQM6ojL2GmEEABEAABEAABEDgHwIFRtP5a3kH0q5uOnwhcdeZL7Yen7bh6HurDsV/e+D1xfv7fbnn2Vk/PfHpjw9/uPXBiZsbjk2qMWJN6LBVYeXxO/75ZWNprPydHPURjSWLv13mPCQWku3fG4sfzNe55fv650fVyo9unN+ufX63pw39XjYMHmp4f4Lhsy8MiUsNGzYZ9u03nEkz3MjHCAABEAABELjLCUDOuMsHAJoPAiAAAiAAAiBQ0Qnk5hvPZObu/ePy2gPn5+/4Y2pS6rBlKS8m7Hn8k+1NJ2yqMWJNuWgTpXBiJmd8UNuqnPH/5rawrWWIhXTjq1aCyM5fo4NDn9Fft5m6pdvnO2O/2jtqxcHpG48u2PnHuoPn95y6fOpSTnaesaL3K+IDARAAARAoGwHIGWXjh9IgAAIgAAIgAAIgUGYCWTcKjl/I3nn80sr9f/7vhxMT1hx+a8n+5/+3q8NHP9w3bkN4fPkspiiFYGG7iLmcUXe6xaUZNJae+7J1sXJG7py2dmoZbHb/sBU2wgsdtqrBmPUPf7g1Zu7ud5Yf+GLr8dUp5w6kXb2aayhzd8EBCIAACIBAhSAAOaNCdAOCAAEQAAEQAAEQuEsI5OYbj5zPWnfw/Bdbj8cvS3lm5k/NJmwKq6iChQ29IGzYKnM5o75VOePF+W2KlzM+f9h+OSPfzb10W2ZCh62Kfm/Dk//346sL901ae2TRT6d/OJpx6lKOoQDndtwlX0E0EwRA4M4hADnjzulLtAQEQAAEQAAEQKBCETAUmE5czN50+MKcbSdHrTjY63+7Wn6QHDF8tW2NoBI9NZMzpjT42NrqjNiv2hUvZ3xUAjkjJyS8fEFFjVjTesqW5/+3K35ZyozkY9/v/3P/6SuXsnFCR4X6SiEYEAABEPgPAcgZ/8GBDyAAAiAAAiAAAiBQCgImkziTmfvD0Yz5O/4Yt+pQ3y/3tPtwa9TIteU75a5o3szljHusyhmvL7BDzni/nf2rM640vP8W0Agdtuqed5Me+3j7gAV7P954dN2B86cu5eD6lVJ8QVAEBEAABG4GAcgZN4MqfIIACIAACIAACNzJBEwmceJi9qpf//xg3ZHYr/Z2nL6tzqh1t2B2XdGqMJcz7rUqZwxd9HCxqzNyRpTg7IxzLdvfLhoNxqzv9vnOd5YfWLDzj72nLl+/UXAnj3W0DQRAAAQqMAHIGRWxc5KTk+nvn5MnT8r43n77bXd39yFDhsic8k2MGTOGiMLCwsrXbUm97dy5s1OnTnq9XqPR9OzZs6TFS2F/+PDh8PDwyMjII0eOlKI4ioAACIAACNwNBAqMpqPp15fvS3tv9aGes36+592k2zWXrlD1mssZ0VbljFGLi5czsl9vaf/qjGOdn64gKMLjV7WZuiX2q73TNx5di+Ubd8OfA7QRBECgwhAopZxhMgljBfst+8K/mJgYFhHq1q1rKs5dXl5eQEAA2yckJJRvh1qUMzw8PIjIw8OjfOuS3uyXM9iS287/arXayMjIfv36HTx4UDosRWL9+vXOzs5E5OzsHBQU1K5du1I4KWmRqVOnciumTp1a0rKwBwEQAAEQuFMJGApMh89d+3rPmbErf+v++c76Y9ZXkMlzhQrDXM5o/Im1szPes0fOeKGZ/XLG3mf6VygUymAajk3q9vnOUSsOLtj5x55Tl7OwfONO/TOBdoEACNxuAqWUM4wmQWOdaKxDhfl1Mpb5OGopZxDR2rVrbXdNQkKCnM/fGjlj+vTp0dHRn376qe3ASv20pHKGs7Nzjb9/IiIitFot09BoNIsWLSp1DPXq1SOixo0bX7p0SQiRnZ1dalf2Fzx79uwjjzzSsWPHtLQ0+0vBEgRAAARA4A4jkGcwppy9uvjn0+8sP9B1xo46o+7wYy+U0+9Sp83ljKZW5YwPEos/OyPn/0XbL2ckvTC41GHf4oLK5RtJv6VfzMq7w747aA4IgAAI3C4CZZEzHKwJ8Lcj36G85AyemXfs2NF2lzRs2JCI3N3dCzdo3Bo5w3Y8ZX9aUjlDuS3FaDQmJSWFh4cTkUajOX78eCniuXTpEmsiCxcuLEVxFAEBEAABEACBEhHIyTP+8seVr376I35ZyuOfbK85cs0tnuXeAdWZyxnNrG42+XhJ22LPzshuW89+OWNR7LuVFWD8qoc/3Dr0m18Td505duF6cQuCSzSoYQwCIAACdxcByBlF/c2rM1q1akVEDg4Ohw4dKnr231RSUhIRRUVFBQYGQs6QbH7++WcHBwciGjlypMy0P3Hq1CmWMzZv3mx/KViCAAiAAAiAgP0ELl3PX3fg/Lsrf+vyyfYaI+6cC1Nv18TeXM5obnV1xsylbYqXM+6NtF/O+PCNj25Xq8u33vvHb+w/f88XW4/vOXU5z2C0fzDDEgRAAARAAHJG0RhgOSMmJqZx48ZE1L9//6Jn/0117NixcOI9duxYrM74LxgRFhZGRI8//rhZvj0fT548yXJGcnKyPfb22JhMpoICq+eNGwwGe5zABgRAAARAoFITuJiVt+rXc6O/O/jo9B/C41eV71z0LvdmLme0tCpnJCxpVbycEepnv5wRFzfrzoNfZ9S6Hl/8NHndkY2HL2Rm51fq7x2CBwEQAIFbQAByRhFkKWcsWLCAiFxdXfkEhyKLv1MHDx4kIq1Wm56e7uTkZHF1RkFBwcyZM5s3b+7l5aXT6WrVqhUXF5eenm7mSgiRmZk5fPjwevXqubq6ent7t2/ffuPGjRaPAm3dujURxcTEqJ1s2rSpZ8+eYWFhOp1Or9ffc889Y8eOlWYmk2n58uU9evQIDw/XarWurq4NGzYcN27cjRs3pE1hoiybTaSf+++/n4jUW3V279797LPPBgQEuLi4+Pr6du3adevWrbKU8iASVjTUukZaWtobb7wRFRWl1Wr1en3Lli3nzp1rNP7nJQb3YOvWrQ0Gw7Bhw5RrZ2QVQoh58+bVqVPHycmJYVqkLV0JIVavXv3www9XqVLF1dU1Ojp6/vz5MnJlYvv27d27d/f399doNCEhIQMHDszIyFD6URojDQIgAAIgcFMJnL96Y+X+P99ZfqDDR1vDIGEMu1kijrmc0drqZpNFX7ewLWcYFzjkurnaL2c8PWzhnSdnKFsUHr+q4/RtI749sGzv2T8u5WBPyk39iwHnIAAClZQA5IyijpNyRn5+flBQUOExEBMmTCh6/G+qb9++RNS3b18hBM+6zc7OyMzMbNGiBT/y8PCoUqUKpwMDAw8fPvyvm7/+e+DAAZ5yE1GVKlV8fHx4n0tsbCwXUV7UalHOyM3N7dWrFxs7OjoGBgbyBSh6vV5WNGzYMDbQ6XTBwcHy2M42bdooVy6UXc4wmUxeXl5EFBsbK2sXQkyePJk3oTg5Ofn7+3PawcFh+vTpbLZs2bIaNWrwyg4iCgwM5ENGf/rpJzbYuHEjeyYiPz8/jUbDLerWrZtS0ZDawYABA4jI39/fy8uLe0fKGUuWLCEivV7v6+v7wgsvCCFsyxmTJk0iIi8vr2rVqnGlhWemTJkyRdlAIcT48eNlLwQFBXl7exNRZGTkY489RkStW7c2s8dHEAABEACBcieQdiV3+b604d+mPPzhltCbNoFXTjiRNpcz2liVM5YtfdC2nJG32NN+LUMQPTBs+d3DP3TYqmYTNg1cuG/u9pP7z1wxFJT5APxy//rBIQiAAAjcDgKQM4qoSzlDCMGT2KCgoPz8/6z0O3/+PMsBKSkpFuUMo9HYvn17IqpVq1ZycjJf+HrgwIH77ruPiBo1aiSvgL169SqfnRkVFSWXKhw7dox3svDcuFg54/nnnyciJyend999V64lSU1NjYuLkw0bNGhQt27dtm7dynsrDAbDqFGj2H9iYqI0K7ucMXPmTHarPPxi/vz5ROTi4jJp0qScnBwhRFZW1ptvvklEjo6Ou3fvlgFY22xy6NAh3tTTp0+fc+fOCSEKCgoSEhJ0Ol2h0DBt2jTpgXswNDTU29t7/fr1Qgij0ZiZmSmEkHJGRETEBx98wDrOxYsXbcsZ1apV8/T0TExMZNFk3759ERERvHLn8uXLst5ly5Zxw3v16vXnn38KIUwm07p16/z9/TkfcoZkhQQIgAAIlC+BM5m5y/adHfpNSpupkDBu1hIMG6qBuZzRzqqcsWppk2LkjCX+9ssZea7ud7NiVX/0+pi5u+dsP4mTRMv37wm8gQAIVDoCkDOKukwpZ1y+fJmn0Ga3bLzzzjtE1L59ey7Gk1Xl6oylS5fyUotTp04VuRbi6NGjvDNl06ZNnM/v893d3ZWahRDCYDA0a9aMPSsfqVdnbNiwgc2sbX/gis6fP6+MhCfbtWrVIqIXX3xRPiqLnGEwGBYsWMALQ5Q+r1+/Xr16dSL65JNPZEWc4Ob07t1b5luTMzp37kxE3bp1k5acGD16NBGFhITIfO5BM42Dn0o544knnpD2nLCxOqNwMcjnn3+utF++fDkzX7ZsGeebTKaaNWsSUadOnaRWxY/27t3LnQ45Q8kQaRAAARAoI4FTl3KW7jkzeOmvLT9IvpvntDZUhlv2yEzO+KC9VTljw9IHipEzvi7BOaA5wWG3rI0VuaLQYatafZA8asXBDYfSr9+welhYGb9xKA4CIAACFZYA5IyirlHKGUKIQYMGEVGTJk2kRU5ODu8HWb16NWeq5Qyee7/55puylEywgiBPtWjQoAERvfLKK9JAJubNm2ePnPHMM88QUbNmzWRBOxPZ2dm8BqRDhw6ySEnlDGdnZ94SEhkZyUKGh4fH+PHjlRtYWNzx8fFRH7o5YcIEIgoPD5cBWJQz0tPTeXPK/v37pSUnduzYwZSkcsQ9qNVqr127ZmYs5QxetaF8akPO8PLyUm5mEULk5+dzPHK/yd69ezmMH3/8UemW023atMFmEzUW5IAACIBASQnkF5i2/54xbtUhrMKoULNrczmjw3QaW3hYuoXfH5bcW5yc0cD+1RlXGkZXKA4VIZiaI9c8/79ds384kXo+CwdtlPQvDOxBAAQqKQHIGUUdZyZnHDt2zNHRkYjkNPXzzz8nojp16siX8Go5w9fXl4h8fX15qq/8lzdHsH6Rm5vLs+JFixYVRfBvavPmzfbIGcHBwYVbNsaNG/dvOav/PXHixLRp03r37v3ggw/6+fmxc7NpdknlDOmEE1WqVJFbZmQcQ4cO5a0ZSg6cZlBarVYaW5Qz1qxZw/7VHuRZGzt37mQn3INRUVHSp0xIOePs2bMykxM25IwHHnjAzFgIwQClLDVr1iwi0ul0Sh1HlurTp48ZZ/kICRAAARAAgWIJZFzPX7b37KBF+xqOTaoIM0bEYEbATM6Y3PEji1oGjaWfljSwLWfcWHq//XLGuZbtzSLBRyWBFpOTR3x7YN3B81m5WLJR7J8ZGIAACFRiApAzijrPTM4QQjz11FNE9PTTTys3aHzxxReyDM+0lZtNnJ2dzeb5Zh/5No20tDTO37Bhg/QmExYn2OrNJnwi5uzZs2VBdcJkMg0ePJi3PDg6OkZFRXXo0KF///6NGjUym2aXVM4ICwvjYywOHz787LPP8m0vGzduVMbw0v9n7z7goyjzP44PPYCIgCg19CIISO+dQ+wgllOKiqKooIJAEgKE3psiRSyo1AQ4W+i9l5MiVZCO9BYSkk3bnb/3n7vJZHZ2s0m2TPncy9fdZHfmeX7Pe3KZZ75Oeecd1fCdf5TX14wzpLfMOG+l/ER+sau0B1u2bCm3KS/IcYbqagv3z87QvElEilEiIiKkxqXLTEqVKiX3pVyQStJsR7kaywgggAACsoDDIZ68Fjdny5mX5uyuGLZSeZLGst4E1HHGUy7jjENLq2UQZyxp4nmccfqZl/VGoc96Koevem3e3i+3njl+JZZLNuQ/MiwggIBpBIgz0nalc5yxfft26UGbFy9elC4TKFasmPQ8S2kz6aRaGWdIr7SYPXt2WrtaSzdv3pS2/emnn5y/ly9JcP/sjEKFCgmCMHXqVOcW5E9mz54tCELu3LlnzZqlvAWjR48eXokz5I6kBh9++OHLly/LH0qP/FTesCN/5bygGWf89NNPEpSS3Xlb6RM32YEcZzhvqxkeuWlKFWdMnDhRujpDvmZH2cUrr7yiclZ+yzICCCCAgCyQlGLfeurmyF+OtZ7MQz0D8FDPrJ2Nq+KMCc+6jDNOLK2YQZyxsKXnccb+V3pnrWArb9V0/KaQFYdXHb56LyFF/v8dCwgggIChBYgz0nafc5whimLDhg0FQRg+fHjXrl0FQRgyZEjaBlovam3cuLEgCO+//75yNedlu90uhRHh4eHO344aNUo6h3cfZzRq1EgQBOdnWyobbNasmSAI3bt3V34oiqL0tFHlVQNZuzpDbjY+Pl56ImbHjh3lE3vp9pwHH3xQ9YIYeSvlgmacceLECYli7969ypU1l91kEL6LM6Q3vwqCcPz4ceeqKlWqRJzhzMInCCCAgCxwMy5p+W9/vb9w/+MRa618qmnQsavijPHPTXN1s8nZxWXdxxm2b9t4Hmese+NTg4rpoexKQ1a+MnfP7M2nj3HJhvyXiAUEEDCmAHFG2n7TjDOWLFkiCEJwcHDevHnz5MkjvYZT3kY601ZenTF69GhBEAoXLuz8jAZRFBMTE+VtO3fuLAhCiRIllK/8/PsRpLdu3ZJf8Ok+zpgyZYr0ulP56R5y4/KCFDH069dP/kQUxf3790s3xXgxzhBFcevWrdIDQb744gupu/Pnz0v3ucycOVNZgLScnJysvPVDM84QRbFy5cqabzaRGlGSBiTOuH79ep48eQRB6Natm2qMixYtkn5DlM6qdfgRAQQQsKCAwyGeuBo7a/PprrN3V+B2khDDXIvhfCquijPGPT/VVZxxedEjGcQZc9t7Hmcs7jPSuRg+yYJA2ylbJq354+hlbkWx4F9ihoyAGQSIM9L2omackZKSEhwcLJ2UKt8qKm3mHGfcunVLelRklSpV1q1bJz8e8tSpU2FhYT179pT727Fjh3Ty37hx46NHj0qfHzx4sG7dusWKFZNadh9nxMfHV6tWTUpPvvnmG/l2jMOHD8uXhzzzzDPSCjt27BBF0W63r1+/Pjg4WHoXifI0O5tXZ0j1f/DBB4IgFChQ4OTJk9In0uMz8uTJM27cODm4iYmJWbBgQY0aNeLi4mQQV3GG/PiMHj16nD17Vlo/KSlp/fr1Tz311K+//iq3EJA4QxTFd999V9pfQ4YMkUaUlJT01VdfBQUFSbtS6SxXywICCCBgNYHEFPuWkzeH/3y05aTNWTjvYhMdCqjjjM4u44xbCx/KIM6YkYk4Y9pH03SoYdySgkOi20/dOmXdyRNX0yZmVvsDxXgRQMCIAsQZaXtNM84QRXHy5MnSyeqBAwfS1v7/Jec4QxTFXbt2yXlEwYIFy5UrJz1QQxAEVSAyYcIEqQXpMg3pZR/ly5eX/62++zhDFMUzZ85IiYYgCHnz5g0ODi5SpIiUX0il7tq1S3piqCAIxYsXL1iwoCAIL7zwgvMbN7wSZ8TGxkrpT6NGjaSXs8bHx3fo0EEaZs6cOUuXLl2yZEnplTH58uWTIxhRFF3FGaIohoWFyVCPPPJI2bJl5UFt3LhR3imBijPi4uKaNm0qVSjthQIFCgiC0KdPH6mkNm3ayEWygAACCFhNwG53bDt1a/Dy32uP5HYSA1+IoXmuroozxr44xcXVGTniF+TLIM4Y387zqzMGDZinWQ/V0r/QAAAgAElEQVQfZlMgOCT6H9O2Tlt/6uQ1cg2r/almvAgYUiA7cUYuYUQO3fyTy+7I7g5wFWfExMQUKlRI81+wS2ewyptNpCKuXr06ePDgmjVrFihQIG/evCVLluzUqdO8efOSkpJUVa5bt65Tp05FihTJly9f5cqVBw4ceOfOHc2HUzq/2URqKj4+ftq0ac2aNStcuHC+fPkqVKjQuXPn6OhouaPDhw936dKldOnSQUFBNWrUmDx5cmpqqvOZv1fiDFEUV69eLbHIrzJNTU397rvv2rVrV7Ro0Vy5chUuXLh+/fqDBw+WL7WQSnUTZ4iiuGXLlpdeeqlUqVJ58uQpUKBAtWrVevXqJV1yIo/UeVDyV757dobUhc1mmzhxYu3atfPnz1+4cOGWLVtKr+CV3vnyzDPPyJWwgAACCFhEwOEQD12MGRV9vPG4jdk8xWJz3Qqo4owxXSdrxhm5RwXZFwju44yEoW09jzNeGbxItybmKCw4JPrJGds+3/jn6Rv3LfIni2EigIARBbIYZzgcol1n//D2KSP+/pm+5hYtWgiC0KtXL9OPlAEigAACssCZG/HT159qN3WrOc7rGIUbAVWcMfrlSZpxRsGxhd1nGeIiIaF/K8/jjIYhP7qpiq+8KBAcEv30Z9u/2HT67M14+f/jLCCAAAI6EchinKGT6ikDAT0L3L17NygoSBCEDF/cq+dRUBsCCCDgocCVmMSvtp19fubOYCM/29KL54FWaEoVZ4x6ZaJmnFFsYgbPAf1PnPF2Ew/jjOSg/PyO+f+3Kzgk+rnPd8zecvr87QQP/yawGgIIIOBrAeIMXwvTvvkFXL2G9uOPP5aeaXL16lXzKzBCBBCwqkBMQsrSfZde/2ov7yjx/xlmwHtUxxn/nKAZZ5SaUibjqzNeru9hnJFQOjjgA7d0AaHRz8/cOXfrmYt3yDWs+nefcSOgGwHiDN3sCgoxrEBoaOibb765bds2Odc4efLkW2+9JT1DJDw83LAjo3AEEEDApYAt2R59+GqfBfurDl1l6VM7a1+KooozRr42XjPOKD+tQoZxRnyHxz2MM2Jq1eNXThcCodFdZu38atvZG7HqZ8O5/MPBFwgggIBXBYgzvMpJY5YU+PTTT6XkIl++fKVLly5cuLD0o/RyE/llvZa0YdAIIGA2gZRUx9ZTNwdG/f54BK8pMdtrSrJwhqyKM0Z0G6cZZ1SdUTXjOKN+JQ/jjGst2mehVDbxnUDlIav6LNy/+Y8b9uw/md9sfzIZDwII+FaAOMO3vrRuBYFLly6NHz++efPm0htkCxUqJL14Zffu3VYYPmNEAAErCDgc4sGLMSN/OdZoLK8pIcVIE1DFGcN7jNWMM2rPrJlxnFGhpIdxxpmnX/LdmTktZ0eg+cRN09efunTHZoW/iowRAQT0IECcoYe9QA0IIIAAAgjoVOBWXNK8bWc7TOM1JWnn8Nk53zPZtk5xxmjNOKPhrDru4wzHQiG+UCEP44wDr7xjMkaTDadC2Mo3v9238vDVpBS7Tv+uURYCCJhFgDjDLHuScSCAAAIIIOA9AYdD3PHnrX6LD1QJ59EYBBkuBVRxxtCeozTjjBZz67uPM5IWF7QLgodxxvo3PjXZ+b9Zh9NgzIZxq06cucEbXr33p5mWEEAgvQBxRnoPfkIAAQQQQMDaArfikuZuPdN2yhaznmIxLi8KqOKM8DdHasYZ7ec1yiDOiHzUwyxDFISlfUZ6cQg05XOB0OhXv9yzYv9fCcmp1v7jyugRQMD7AsQZ3jelRQQQQAABBAwn4HCI2/+81XfxgcpcjmHtl5Vk6uRWFWeEvRWhGWc89XWTDOKMZRU8jzOm9ZuWqSJZWScCtUeuHfbT0aOXYw3355GCEUBAtwLEGbrdNRSGAAIIIICAPwRuxyXP3XqmDZdjkGJkXkAVZ4S+PVwzzuj8bfOM4owanscZgwbM08n5OWVkQSA4JPr5mTsX7r5wLyHFH3/g6AMBBEwtQJxh6t3L4BBAAAEEEHAtcOBCzIDIQ1WH8nQMl8+GyMLZmqU2UcUZg98eqhlnvDq/lfs4IzGqnudxxquDF1kK2ayDrTF8zaBlv//7/F2Hw/UfKb5BAAEE3AoQZ7jl4UsEEEAAAQRMJxCflBr570vPz9wZnPl/G2/WMyvGlTUBVZwxqHe4ZpzR8/vWGcQZSxt7Hmc0Cvkxa9WylT4FOk7f9u2Oc3GJXKxhuoMNA0LA9wLEGb43pgcEEEAAAQT0IXDuVvzYVSfqjlqvz7MaqjKcgCrO+PTdMM04o/cPbTOIMxa28DDOSA7KTwxnuN8TTwquNWLtuFUnLt+16eOPJVUggIAxBIgzjLGfqBIBBBBAAIEsC9jtjg0nbrw1/9/lQ7mrAgFvCqjijP7vhWjGGf0WtssgzpjfxsM4I6F0sCfnxqxjUIHKQ1Z9svTQ4b/uZfnPHRsigIClBIgzLLW7GSwCCCCAgLUE7iemfrvjXOvJvHXVm+fwBj1R9EXZqjjj4z6DNOOMTxe1dx9n2L5s72Gcce/xur4YCG3qSiA4JPr1r/ZuOHGDx2pY64jFaBHIvABxRubN2AIBBBBAAAHdC9yKS56+7hT3lejqJM18xajijH4fDNSMM4YszijO+MzTOONa83bmY2RErgT+MW3b4r0Xbcl23f/FpUAEEAiMAHFGYNzpFQEEEEAAAR8JXLpjG/HLsceGrXZ1hsDnCHhLQBVnfPjhAM04Y+SSjOKMCe08vDrjzNMveat42jGKQP0xG6avP3UzNslHfzNpFgEEjCtAnKHHfbd582bh//9z7tw5ub4BAwYULFhw0KBB8ifeXYiIiBAEoVy5ct5t1hytvfHGG4IgtG7dWh7O9evXa9Wq9eijj27fvl3+kAUEEEAgsAInrsb1j/y98hBevMqtJX4SUMUZ73/4iWacMWFpBnFGwvC2HsYZB155xygn4dTpXYFqQ1eH/evwqev3A/tnlt4RQEBXAlmMMxwO0a6zf7J/c510yioIwmOPPebIqLmkpKSSJUtKocP8+fO9u1M144wHHnhAEIQHHnjAu33JrWUtzjh37tzo0aNbt25dunTpfPnyFSpUqEKFCk2bNg0NDd25c6fcuNEXnOOM5cuXS3u/b9++Rh8d9SOAgAkE9py70+u738rxpE9ePetfAVWc0affx5pxxvTIDB4FmvBpKw/jjA1vDPDuSTKtGUugfGh0r+9+23n6dkZTdRP8XWcICCCQsUAW4wy7Qxyec2REjhE6+Wd4zpF2R8ajdb+GHGcIgrB69Wr3K8+fP186m/37igb/xBkzZsyoV6/ezJkz3ReW5W8zG2ckJCR88MEHefLkkRwKFCgQHBz8yCOP5MqVS/qkTp06WS5Gbxs6xxmxsbFdunRp1arV0aNH9VYt9SCAgHUEHA5x3bHrXefs5tWVxjolM021qjij90d9NeOM2ZEZvKg1oXdTD+OMpe+NMI0eA8mOwHOf7/jXgctJKTxWwzpHPEaKgIZA1uOMiBwjRgh6+ScixwhvxRn58uUTBOHJJ5/U0FJ8VKtWLUEQChYs6Lc4Q9G5TxYzFWdcuXLliSeeEAQhX758/fv3P3z4sFyTzWbbs2dPSEhIu3bt5A+NvuAcZxh9RNSPAAJGF0hKsS//7a+O07dl53yAbRHIpoAqznj74w8044yvI1u7f7NJwqsNPIwzpn80LZs1s7mZBJqO3zR365mYhBSj/0mnfgQQyJoAcUaam3TK2qpVK0EQcuTIcfz48bTv0i+tW7dOEITKlSuXKlXKgnFGQkJCw4YNBUEoXbr0gQMH0tuk/ZSSYp5DC3FG2n5lCQEEAi1wPzH1m+3nmk3YZKZzEsZiUAFVnPHmJ30044yFUS3dxxnxT9b2MM4Y/Ok8g1pRtu8Eag5fMyr6+JWYxED/eaZ/BBDwtwBxRpq4dMr6xhtvSOfq7777btp36ZeefPLJv++nGDFihDWvzhgyZIggCEFBQQcPHkwPk7mfUlNTM3xGSeZa9NnaxBk+o6VhBBDIhMCtuKSp6049MWqd784KaBmBTAmo4ow3+r+nGWcsi2qWQZzRqLKHccargxZmqkJWto5A1aGrIn4+djnGlom/qqyKAAIGFyDOSNuBcpyxcOFCQRDy589/+/bttK//t3T06FHpJovr169Lz4lwfnZGamrql19+2bx58wcffDAoKKhq1aqffvrp9evX/9dG2v/euXMnLCysRo0a+fPnf+ihhzp06LBhwwbNR4G2bt1aEIQ33ngjbeP/LW3cuPG1114rV65cUFBQ4cKFa9euPWLEiP99KTocjh9//PGVV14pX758vnz58ufPX6tWrVGjRiUmpsuwPbzZ5Pbt21KIM3DgQLkLTxbKlSsnCEJERMSVK1deeeWVhx566O/hKF/dsnr16pdffrls2bLSI0Xr1KkTFhbmjCa3o+r03Llz0jM7Nm/eLH+ljCFWrlzZvn37IkWK5M+fv169ej/88IO8mnJh7969L7/8cokSJfLmzVu2bNn33nvvxo0bynaklTW7Uxru2rXr+eefL168eL58+WrUqDFt2jTN7ObIkSM9e/YsU6ZM3rx5S5Qo0aNHj/PnzyvbUdbGMgIIWFbgwu2EiJ+PVefdq/59zqV1zgOzPFJVnNFjwDuaccYvUY0ziDMql/IwzmgU8mOWq2VDKwhUHbpq+M9HL98l1LDsAZOBW0uAOCNtf8txRnJycunSpQVBGDduXNrX/1vq1auXIAi9evUSRVE6f1bFGXfu3GnRooX01QMPPFCkSBFpuVSpUidOnPhfM//53yNHjki3qwiCUKRIkYcffli6z6VPnz7SJsqzfc04w2azde/eXVo5Z86cpUqVkl6AUrhwYbmjkJAQaYWgoKAyZcpIDwcRBKFNmzapqanyah6eQktZjyAIp0+flrf1ZEGKIcLDw2vXrp0zZ07pTSjSABMSEl566SWpyDx58pQtW1YKOwRBKFas2LZt25TtZy3OmDBhgiAIDz74YLFixaSO/n70yeTJk5Uti6I4ZcqUHDlyCIIgVRgUFCS9vPaZZ55RvajVfZyxcOHC3LlzFyhQ4NFHH5W7+/DDD1Xdff/997lz55ZWKFGihPQLULRo0W7dukn9qtbnRwQQsKDAqWtxHy89WGnISiuchzBGwwmo4ozXP+2lGWesiWrgJs5wLBTiCz/oSZyRHJSfp94a7pckIAVXCV817CdCDQseMxmy5QSIM9J2uRxniKIonf2WLl06OTk5bQ1RvHbtmhQHSA+/lE5ElXGG3W7v0KGDIAhVq1bdvHmz9C/kjxw5UrduXUEQ6tSpI/8r+nv37pUvX156BsfWrVulXk6fPi3dySK1nGGcIZ335sqVa+TIkfK1JCdPnvz000/lsvv27du1a9etW7dKD7NISUkZNmyY1P7SpUvl1TyMM9577z1BEEqVKiVv6OGCFENUqFChRo0aUhQSFxcnXSHyz3/+8+/wKG/evNOnT79//7+vE9+zZ0+dOnWkoOfSpUtyL1mIM4oVK1aoUKGlS5fa7f95/PWBAwcqVKggXYBz9+5dueWff/5ZYunRo8fVq1dFUUxNTf3xxx9LlCghfd66dWt5ZTdxRsGCBQsVKjRz5kzpl+fMmTP16tWTWlDmWXv37pWyjI4dO8rZ0J49e6pVqyatXK5cObk7FhBAwIICF+8kDFr2e8UwgozogJwO0aknAqo445+fvqEZZ2yJqusmzkhalN8uCJ7EGbbSZT2pinUQkASkUOMvrtSw4BGUIVtGgDgjbVcr44y7d+9Kt1QsWrQobQ1RHDp0qCAIHTp0kD6UTjuVcUZUVJR0Bv73LQPKDU+dOiXdmbJx40bp8zFjxkjvRlFmFqIopqSkNGnSRGpZ+ZXz1Rnr16+XVnN134TU0bVr15SViOJ/bj+pWrWqIAhvvfWW/JWHccYLL7wgCELDhg3lDaWFO3fuVHL6z549e+TVpBhCEIT9+/fLH4qiuH37dmkUCxYsUH4uiuLNmzelCxb69u0rf5WFOEMQhDlz5sgtiKL4448/Sp2uWLFC+lw2efbZZ5VriqJ46NAhad95GGcIghASEqJs5ODBg1J3U6dOlT9v3769IAi1a9dOSkqSPxRF8dKlS4UKFeLqDKUJywhYTeBGbNKIX45VDl/FOQkCOhdQxRmvDOyhGWfsiqrtLs6ILO5JliEKwr2aT+gchPJ0KFAlfNXQH48QaljtSMp4LSJAnJG2o5VxhiiKffv2FQShUaNG8hoJCQnS2fXKlSulD6VzVGWc8fTTTwuC8Mknn8hbyQtSgiA/1eLxxx8XBOG9996TV5AXvv/+e6ll93HGq6++KghCkyZN5A09XIiPj5euAenYsaO8iYdxRseOHTU7vXnzplSz8r+Vj7GQYoimTZvKPUoL0p011atXV30u/Tho0CBBEMqUKSN/m4U448EHH5Suy5AbSU5Olm4qke83+e2336TKd+/eLa8mL7Rt29bzm00EQbh586a8rbRQpkyZvz+X7ze5deuWVIAqL5NWfvPNN4kzVID8iIBFBO7GJ09ae7LG8DU6PCWgJAScBVRxRtdB3TTjjP1LH3MXZ0SV8zDOuNa8nXMNfIKAJwJVwleN+OXY9XvpnhxnkSMLw0TAxALEGWk7VxVnnD59OmfOnIIg7Ny5U1ppzpw5giBUr15dvmFEOgFWxhmPPPKIIAiPPPKI05UKlaQHMUj5hc1mk85mFy9enFbB/5Y2bdoktew+zpDOkEeNGvW/7Vz+79mzZ6dNm9ajR4+mTZsqn+agvNzAwzhDujGkcuXKLjsTRc0bMaQY4p133lFt2KhRI1exjiiKy5YtkyhiY2OlDbMQZzRo0EDVqSiKkoOcLn355ZfS7SfK54nIW/Xs2dPzOOPhhx+WN5QXGjduLAjCm2++KX0ivetXEIS//vpLXkdeGD58OHGGrMECAhYRiE9KnbPlTJ2Raz2Zl7MOAjoRUMUZnQf/UzPOOLKksrs4Y9ljHsYZZ57uqpOBU4ZBBR4btnr86hO376e7l9wiRxmGiYApBYgz0narKs4QRbFLly6CILz88svKGzTmzp0rb+McZ8hPdpS+cv5v6dUkly9flr5av3693Jq84OGbTfLmzSsIwldffSVv6LzgcDgGDhwo3SuRM2fOypUrd+zY8d1335UeS5GFOENKPXLkyHHnzh3n7qRP3MQZw4YNU21VpUoVQRDCw8NVn0s/yjfUXL58WfokC3GGcphyL6p2xo4d+zdm6dKl5RWUC9LvhrIdzTG6iYRU9wotXrxY+gVQPZxF6tRNO8qqWEYAAXMIJKXYf9h1odHYjQY9PaBsKwuo4oznB7+sGWf8uaScmzgjMaquh3HGwZfftrI2Y/eWwOMRa2ZsOHUvIcUcBxFGgYCVBYgz0va+c5whPdYhV65cFy9eXLVqlfSijYSEBHkb6YxUeXWG9EqO2bNny+toLsi3Zvz000/OK0h9qd5jqjofFkVResKC8nEMzk3Nnj1bEITcuXPPmjVLvsBBFMUePXqoLjfw8BR6x44d0qi//PJL5+6kTzRP9VXxgbyt9JBU+S4M+XNpYfny5VJ3Mrv0/NTQ0FDVmsePH5fWVN7h4hxDyFup6pk8ebIgCA899JC8gnLhlVdeUXFpjtGNoWr3RUZGStXKMY2yu8GDB3N1hhKEZQTMKmC3O1YcuNx68hZvzdFpBwE/C6jijGdDumrGGZcWl3QXZyxt5GGcsaFnfz8PkO5MLFB31Lq5W8/EJ6W95s+sxxrGhYCJBYgz0nauc5whimLDhg0FQRg+fHjXrl0FQRgyZEjaBlovapXuKXj//feVqzkv2+12KYzQvCph1KhR0rmu+5tNpNs0nn/+eef25U+aNWv290tVu3fvLn8iLUhPG1VebuDmVFy5rcPhkAKIcuXKKV8LolxH81RfFR/I60v3cdSuXVv+RLkgndg/9thj8ofSM0d69OghfyItyE/3zFqcId/V8ueff6paFkWxUqVK3o0z9u7dK+3iVatWOXfXrl074gxnFj5BwEwCDoe49ti1TjO2m/hUgaFZQUAVZzwV0lkzzri+qJi7OGNRCw/jjMj3RlhBlTH6U6DR2I3f7TyfmPKfl9/xHwQQMJwAcUbaLtOMM5YsWSIIQnBwcN68efPkyXPlypW0DbTijNGjRwuCULhwYc1nIkjvJZVa6Ny5syAIJUqUUIUCt27dkt8M6j7OmDJliiAIOXPmlJ/uoaxNWpZu5ejXr5/yq/3790s3xWQhzhBFcfPmzdLdK23bto2JiVG2LC1nKs5YuXKldGK/fPlyVVO3b98uXrz43+9wHTdunPyVdAdQiRIllJiiKEpP6/w7dMhanHHjxo08efIIgtCnTx+5L2lh0aJFUoVKLs0xuomEVFdnJCcnS4+Vbd68uaq7HTt2SM9V4UWtKhl+RMA0AjtP335x9i5/ztfpCwEfCajijI6hz2nGGTELH3AXZ3zX2sM4Y0a/qT4aCM1aXKDFxM1Rv12y2x2mOdAwEAQsIkCckbajNeOMlJSU4OBg6WzW+YoA6XPlzSa3bt2SnjFZpUqVdevWyc+VPHXqVFhYWM+ePeX+5LPWxo0bHz16VPr84MGDdevWLVasmNSy+zgjPj6+WrVqUnryzTffyLdjHD58WL485JlnnpFW2LFjhyiKdrt9/fr1wcHBDzzwgOpyAzen4nLN8sKcOXOk56QGBwfPnTv3+vXr0ld2u/3w4cPvvvuuVL8yWXB1dYYoip06dZIewzlr1qz4+HipqX379tWrV08QhMcee+z+/fty1/Pnz5caf+2116QwJS4urn///tKIshxniKLYu3dvqeWwsDDpxpzk5ORvvvkmf/780h7xYpwhiuK4ceOk7nr16iW9CSU1NXXFihVFixaVuiPOkHc6CwiYRuDQpZge3+wLDom2+JkDwzeNgCrOaB/2jHOckXNkHvsCwU2cYZvXzsM4Y/CAeaahYyA6FHhu5o69Z10+G840RyIGgoCZBIgz0vamZpwhiqL0VAVBEA4cOJC29v8vSaejyjhDFMVdu3bJeUTBggXLlSsnPVBDEARVIDJhwgSpBekyDemtKOXLl5cvB3AfZ/z9CIwzZ85IicbflzDkzZs3ODi4SJEiUn4hlbpr1y7piaGCIBQvXrxgwYKCILzwwgvOr+rIVJzx9204K1euLF26tFR/jhw5ihUrVqZMGekCB+nD4sWLyzGNKIpu4oy7d+9Kt1fIo5DFatasqUQQRTElJUW6g0YQhBw5cpQuXTpfvnxBQUHfffed1K8yQ5H2qTKGkPegcz2xsbHS/TuCIOTJkyc4OLhAgQKCIPTu3du5nWxenSGKYmpqqnSFjiAIuXLlKlu2rHT/0bPPPjt06FBBEMqXLy9XywICCBhd4NS1uD4L95cLJchAwFQCqjijTdiTznFG/jGF3GQZ4iLB9nl7D+OMfw5epMNzYEoyk0BwSPQHiw5cuJ32pDyjH32oHwFzC2Q9zhiec2REjhE6+Wd4zpHZvzrMVZwRExNTqFAhzVNi6fxZFWeIonj16tXBgwfXrFmzQIECefPmLVmyZKdOnebNm5eUlKT6fVq3bl2nTp2KFCmSL1++ypUrDxw48M6dOx6+2URqKj4+ftq0ac2aNStcuHC+fPkqVKjQuXPn6OhouaPDhw936dKldOnSQUFBNWrUmDx5cmpqqvP5eWbjDFEUExMTv/nmm65du5YvX75AgQJ58uQpVqxYgwYNevfuvWLFCtXNIM7xgVyhdNnIokWLOnXqVLx48dy5cxctWrR169azZs1SNSJtEhcXFxoaWrly5bx58xYrVqxz584HDx7UzBechyl3qllPQkLC+PHja9WqFRQUVLhw4ebNmy9YsEAURed2NLtzY6i62UQqIzU19csvv2zUqFGBAgUeeOCBBg0azJo1y263h4aGCoJQs2ZNuVoWEEDAuAIX7yQMWvZ7xbCVZprxMxYEJAFVnNFyyD+c44yHxrt7cMZ/4oxJnl6d0STkX8gj4AeBqkNXTVrzR1wirz4x7rGXyq0ikMU4w+EQ7Tr7x8HNblb5pTX/OLt37y4IQrt27cw/VEaIgKkF4pNSp6w7WXXoKj9MvukCgYAIqOKMZkPaOccZj05y91qT/8QZI9p6cnVGcr4gbtQKyF62bKeNxm6I3McDNUx9nGZwxhfIYpxh/IEzAgR0KpCamirdxTN48GCdlkhZCCCQkYDDIUb/frXZhE2WPQ1g4BYRUMUZjcNbO8cZwVPLub/ZJGGQR48CtZUqYxFVhqkrgec+37Hn7O2M/urzPQIIBEaAOCMw7vSKQHJysibC9OnTpZuYnJ/Vork+HyKAgN4E/rga9/pXe3U1HacYBHwkoIoz6oe3cI4zKs+onEGc8V4zT67OuFezro9GQbMIuBfggRp6O85SDwKyAHGGTMECAn4VmDVrVpcuXdasWWOz2aSOL126NHjwYOmVMd26dfNrNXSGAALeEIhJSBn167FKQ3hMhqmedun+PMfi36rijCfCmzjHGTU/fyyDOOO1hp7EGdebt7O4NsMPrEDVoasm8kANbxwraQMBLwoQZ3gRk6YQyITAzJkzpaswcufOXbJkyaJFi0o/CoLQuXNn5btpM9EoqyKAQIAE7HZH5L5L9cesD+xsm94R8LOAKs6oNbSRc5xR74va7uOM+KfreBJnnO30op9HR3cIOAvwQI0AHWbpFgFtAeIMbRc+RcDXArdu3fr888/btWtXvnz5oKCgggULVqxY8fXXX1+9erWvu6Z9BBDwrsDBizGdv9jpPOvlEwRML6CKM2oMq+8cZzSdUzeDOKNpVU/ijAMvv216TwZoFAEeqOHdwyitIZBlAeKMLNOxIQIIIICA1QVuxCYNXn64fCj3ViBgUQFVnFFtWB3nOKPtl40yiDOqlfEkztjYc4BRznWp0woCwSHR7y/cf+F2gtUPhIwfgYAKEGcElJ/OEUAAAc9MxSYAACAASURBVASMKZCc6vh2x7laI9ZaYdbOGBFwJaCKMyoNr+kcZ3T6qkkGcUaxIp7EGZHvjXBVBp8jECiBqkNXTeKBGsY8jlO1OQSIM8yxHxkFAggggID/BHb8eavj9G2Bmj3TLwL6EVDFGeWGVXeOM57/ppmbOCN5Ud6UnDk9iTM+6zdVPwOnEgSUAg3Hro/69yWHw3+HIXpCAAFJgDiD3wQEEEAAAQQ8Fbh0x/bhogPBIRa9s0A5fWcZgXIh0ao4o+zwKs5xxkvzW7iJM5KWFvMkyxAFIWTAPMwR0LPAa/N2n7lx39PDCeshgIA3BIgzvKFIGwgggAACZhewJds/2/hn9WGr9TyZpjYE/CygijNKRlRwjjO6f9/aXZwRFexhnPH64IV+Hh3dIZBZgapDV83cdDo5xW72QyLjQ0AvAsQZetkT1IEAAgggoE8Bh0Nce+xaq0mbMzuvZX0ETC+gijOKR5R1jjPe/qGtuzhjWXUP44ymg1eY3pMBmkOg04xtBy/E6POIRlUImEyAOMNkO5ThIIAAAgh4U+DSnYS35v+bu0vMcY7BKLwuoIozikSUdI4zPljYzk2ckbjsCU/ijOR8Qfzf0Ou7jwZ9J1AhbOXIX47FJaZ484BEWwgg4CRAnOFEwgcIIIAAAgiIosMh/rD7Qs3ha3w336VlBIwuoIozHox4xDnO+GSR2zgjspEncYatVBmjW1G/BQWaTdi04cQNjqgIIOA7AeIM39nSMgIIIICAUQXO3ox/bd5eC06+GTICmRJQxRkFIoo6xxmhi9u7uzpjUXNP4ox7NZ/IVGGsjIBOBIJDovstPnAjNsmoh0PqRkDfAsQZ+t4/VIcAAggg4F8Bu93x9bazPPJTJ2cClKFzAVWckTfiQec4I2KJ2zjj+9aexBnXm7XVOQXlIeBG4IlR6yJ5k6t/j+b0ZhEB4gyL7GiGiQACCCCQscCp6/e7zt7tZkrKVwggoBRQxhkRwoicEQWc44yxS93FGbZ57TyJM852elHZL8sIGFHg9a/2nr0Zn/GhiDUQQMBjAeIMj6lYEQEEEEDAvALJqY7Zm09XHbrKiFNkakYgUALKOGN4zpHCiJzOccbkpe6enWH7or0nccbBl98O1BjpFwEvClQbunr2ltPJqQ7zHk4ZGQJ+FSDO8Cs3nSGAAAII6FDg+JXY52fu9OKElaYQsIiAMs6IyDPaOcsQRggzI929qNU2xaM4Y2PP/hYhZZhWEHj6s+0HL/ImVx1OByjJeALEGcbbZ1SMAAIIIOAtgaQU+4z1pyoP4aKMaCucQjBGrwso44wR+cZoxhnzItu4eRSobWRbT67OiHxvhNeLp0EEAihQMWzl6Ojj9xNTvXU4ox0ErClAnGHN/c6oEUAAAQTE3y/de2rG9gBOZ+kaAaMLKOOMkQXGacYZ30e1chNnJAz26FGgn/ebanQr6kfAWaDFxM2b/7jJ8RgBBLIsQJyRZTo2RAABBBAwqoAt2T5xzR+Vhqx0nlzyCQIIeC6gjDNGFRqvGWcsjWruLs74wKMXtYYNmOt5VayJgIEEgkOiP1p66FYcb3I16oyCugMrQJwRWH96RwABBBDwt8Bv5+92mLbVQJNdSkVAtwLKOGP0QxM044wfo5q4izO6N/LkZpNugxboFoHCEMi+QKOxG7lMw9+zAfozhQBxhil2I4NAAAEEEPBAID4pdXT08QphXJTBkzIQ8I5Aujij6ETNOGNVVCN3ccazdTyJM5qG/Cv7Z4y0gICuBUKjR/xyLCGZp2l4cDhnFQT+J0Cc8T8J/hcBBBBAwNQCu87cbjN5i67nsiHeOcNkjAj4TUAZZ4x9eJJmnLExqr6bOCO+RbUM44zkvPmCQ37126DoCIEACnScvu3YlVhTH40ZHALeFCDO8KYmbSGAAAII6FDgfmLq0J+OlQ8lLEAAAS8LKOOMcY9O1owzdkTVcRdn1AjOMM6wlSwTwNNLukbAzwJVwlfN23bWbnfo8HhKSQjoTYA4Q297hHoQQAABBLwpcPRybPupPCnDyyexfp7c051uBdLFGaWmaMYZ+yJruIszHi2WYZxxr0Yd3QpQGAI+Euj+9b7LMTZvHg5pCwEzChBnmHGvMiYEEEAAAVF0OMRvd5yrEr7KR3NNmkUAAWWcMb6MdpxxeGlVV3FGyqLcKblyZhhnXG/WFmoELCjwxKh1q45c43iOAAJuBIgz3ODwFQIIIICAUQVuxyW/8/1vFpz+MmQE/CmgjDMmBE/VvDrj5JIKruKMpKVFM8wyREE42+lFfw6KvhDQj0BwSPSg5UfibDwf1KizEer2tQBxhq+FaR8BBBBAwN8CO0/fbjJuo37mo1SCgFkF0sUZFaZpxhnnl5R2GWdElfEkzjj0Ui+zAjIuBDwRaDN5y28X7vr7UEp/CBhBgDjDCHuJGhFAAAEEPBNITnVMXnuSV7F6Mj9mHQSyL6CMMyZV1I4zrix62GWcsayqJ3HGpp79s18qLSBgaIFKQ1Z+tuHP1FSeD+rZbIC1LCNAnGGZXc1AEUAAAbMLXLyT0HXObkNPWCkeAWMJKOOMiVWma16dcWfBg67ijMRldTyJM6LeizAWC9Ui4COBrnN2n7+dYPaDOeNDIBMCxBmZwGJVBBBAAAHdCkQfvlp75FofzSBpFgEENAWUccakajO04oyciT/kdhlnRDbyJM6Y2W+KZu98iIAFBWpGrFm2/y8HV2nodjpCYf4VIM7wrze9IYAAAgh4WyA+KTX0X0eCQ3gXKQII+FsgXZxRQyPOyDu6gKssQ1wkJC5u5kmcETZgrgXPWhkyAq4EgkOiP1x88E58srcPp7SHgPEEiDOMt8+oGAEEEEBAFjh+Jbbj9G2u5nx8jgACPhVIF2fU1IgzCo0r4i7O+KGVJ3FGt8ELfDoKGkfAiAJNx2/aefq2fDRkAQFrChBnWHO/M2oEEEDA8AIOh/j9rgvVhq424jSUmhEwh4Ayzphc6zPnm02KTyzhJs6wfd3WkzijecgKc3AxCgS8K1A+NHrcqhNJKXbDH9EZAAJZFSDOyKoc2yGAAAIIBE7g9v3k9xbs9+68kNYQQCCzAunijDoacUaZKWXdxRmz2mcYZyTnzRcc8mtmC2N9BKwj0HX27ssxtsAdkOkZgUAKEGcEUp++EUAAAQSyILDn7O2m4zdZZ6rKSBHQrUC6OKOeRpxRcXpFd3HG1IzjDFvJMrodPoUhoBOBBmM27D7DjSdZmFCwieEFiDMMvwsZAAIIIGAdgdRUx/R1pyqGrdTJDJIyELC4QLo4o75GnFH9s2ru4ozRGd9sEluzjsWRGT4CnghUGrJy3razvPHEOjMiRioJEGfwm4AAAgggYAyBv+7aXpm7x5NZHesggIB/BNLFGQ0/d352xhNfPO4mzkgIbZPhzSY3mrbxz1joBQETCPRdfDDOlmqMgzpVIuANAeIMbyjSBgIIIICAjwW2/3mr7qh1JphrMgQEzCSQLs5oohFnNJ79hLs4o2+LDOOMc092MZMYY0HA1wIdp2/78/p9Hx+TaR4BvQgQZ+hlT1AHAggggICmgMMhfr39HDeY+HoGTPsIZEEgXZzRTCPOaDW3gbs4o0ejDOOMQy/1ykJhbIKAlQVqRqxZfeSa5iGVDxEwmQBxhsl2KMNBAAEETCWQkJw6IOp3K89KGTsCehZIF2c013h2Rod5jdzFGS88kWGcsbnHJ3oWoDYEdCoQGj1h9R+pqQ5TzQkYDAJOAsQZTiR8gAACCCCgD4HLd23Pz9yh05liSDSFIYBAujijpUac8ew3zdzEGfGtH8swzlj27nCcEUAgawLdvt53Ky5JH4d0qkDAJwLEGT5hpVEEEEAAgWwK7Dl7u/6Y9VmbwLEVAgj4RyBdnNFGI8548dsW7uKMx8tlGGfM7DfFP2OhFwRMKdBswqaDF2OyeURmcwR0K0CcodtdQ2EIIICARQUcDvGH3RcqD1llypklg0LATALKOGNKuxnObzZ57btW7uKMUsUzjDOGDPjSTGKMBQH/C1QJX7Voz0Xe4WrRSZXZh02cYfY9zPgQQAABQwkkptgHrzgSzK0cCCBgBAFlnDGpvUac8eYPbVzFGakLcyblyZNhnNF98A/+P/2jRwRMJhAcEj1o+eGEZN7haqgpEcV6IECc4QESqyCAAAII+EXgakzii7N3mWwSyXAQMLFAujjjHxpxxnsL2rqKM5KWPJRhliEKQouQFSYGZGgI+FPguc+3X7yd4JfjOZ0g4CcB4gw/QdMNAggggIB7gd/O3208bqM/J3b0hQAC2RRIF2c8qRFnfLywvcs4I6p0hnFGSp68wSG/ZrNINkcAAVngiVHrtpy86f5wzLcIGEiAOMNAO4tSEUAAAdMKLNl3qUo4D8vgbSkIGExAGWdM7DTd+dkZgxa7jjOWVc4wzrCVKC2fhrGAAAJeEagQtvLzjX/yKA3TzqgsNjDiDIvtcIaLAAII6EwgOcU+9KdjPCzDK5NUGkHAzwLp4oynNeKMoUtcxhmJy2pnGGfE1qjt5xHRHQIWEXjn+99iEpJ1NiOgHAQyLUCckWkyNkAAAQQQ8JbAjdikV+futsjckWEiYD4BZZwx4dlpzldnjHITZ0Q1zDDOuN60jfnQGBECOhHoOH3rBR6l4a0JDe0ESIA4I0DwdIsAAghYXuD3SzHNJvCwDIPdXKCTWThl6ERAGWeMf14jzpi0tJ2rZ2ckLmmaYZxx7skuOhkpZSBgSoEGY9Yfuhhj+fkIAAYWIM4w8M6jdAQQQMC4Av86cLna0NWmnB0yKASsI6CMM8a9MNX56ozPIl2+2STxh1YZxhm/v/SWdTAZKQIBEag+bPWao9eMO52gcosLEGdY/BeA4SOAAAL+FkhNdYyOPs7DMgIybaVTBLwrkC7O6DLFOc6Y6zrOsH3TNsM4Y3OPj71bMK0hgICzQIWwlV9vP8fDQf09H6I/bwgQZ3hDkTYQQAABBDwTiLWl9Phmr/Ncik8QQMCIAso4Y2xXjTjj28hWrm42sc1un2Gcsezd4UZkoWYEDCcQHBI9/OdjqakOzw7mrIWAXgSIM/SyJ6gDAQQQML3AtXuJT3+2zXCTPApGAAFXAso4Y8xLk52vzli8rIXLOGN6xnHGF/0mu+qazxFAwOsCb3/32/3EVNPPRhigmQSIM8y0NxkLAgggoF+BU9fimk/kwZ88+BMBUwko44zRL09yjjNWRDVzGWeMbZfh1RnhA+Z4/YSNBhFAwI3Ac59vvxqTqN/JBJUhkF6AOCO9Bz8hgAACCPhAYN+5O3VGrnUzf+IrBBAwooAyzhj16kTnOCN6WWOXcUZYmwzjjB6DfjAiCzUjYGiBZhM2nbgS64O5AE0i4H0B4gzvm9IiAggggIBSYOXhq1WHrjL03I7iEUBAUyBdnPHaBOc4Y11UfVdxRsJHLTOMM1qGrNDslw8RQMCnAo9HrNl28qbyUM4yAvoUIM7Q536hKgQQQMAkAt/tPF8hbKVPZ100jgACgRJQxhkjXx/rHGdsi3zCZZzxZmP3cUZK7jzBIb8Gamj0i4DFBSoNWbl470WTzEUYhnkFiDPMu28ZGQIIIBBQAYdDHL/6BC9ktfiEmOGbW0AZZ0R014gz9kQ+7jLO6FLPfZxhe7SUufUYHQI6FwgOiZ645g9e4BrQyRSdZyBAnJEBEF8jgAACCGRBICnF/snSQzqfqFEeAghkU0AZZwzvMcb56oyDkdVdxRnxbWu6jzNia9TOZnlsjgAC2Rfot/iALdmehZkAmyDgBwHiDD8g0wUCCCBgLYFYW0q3r/dlfwpFCwggoHMBZZwxrOdo5zjj+NKKLuOMOhXcxxk3mrbW+fApDwGLCHSds/tWXJK1pjKM1iACxBkG2VGUiQACCBhE4GpM4tOfbbPIDI9hImBxAWWcEf7GSOc44+zisi7jjLKPuI8zzj/Z2eK8DB8B/Qi0mbzlzI37BpmJUKaFBIgzLLSzGSoCCCDga4FT1+KaT9yon+kXlSCAgE8FlHHGkDdHOMcZlxc/qhln2BfmsAUFuY8zfu/6pk+Lp3EEEMiUwBOj1u09e8fXEwnaRyBTAsQZmeJiZQQQQAABlwL7zt2pM3JtpuZGrIwAAoYWUMYZYb0inOOMmwuLaMYZSUsKuc8yREHY3ONjQ+NQPALmE6gSvuqXQ1dczgP4AgG/CxBn+J2cDhFAAAEzCqw8fLXq0FXmm7oxIgQQcCOgjDNC3h7mHGfcXxCkHWdElcwwzljx7jA3XfMVAggERKB8aPTCPRfMOJFhTIYUIM4w5G6jaAQQQEBXAvN3nq8QtjIg8yo6RQCBAAoo44xB74Sr4ozco4LsCwTtOGNZpQzjjFl9JwVwaHSNAAIuBUKj5209q6t5CMVYVoA4w7K7noEjgAACXhBwOMTxq08Eh0S7nPTwFQIImFdAGWcMfHeIKs4oOLawZpYhLhKSl2XwllZREIYMmMsfFgQQ0KdAcEj09PV/OhxemEjQBALZESDOyI4e2yKAAAKWFkhKsX+y9JA+Z1pUhQACfhBQxhkD3gtVxRlFJxR3FWckRjXI8OqMnoN/8MMQ6AIBBLImEBwSPXblHyQalp4I6mDwxBk62AmUgAACCBhQ4H5iarev92VtDsRWCCBgDgFlnPFJn8GqOKPk5NIu44wlTTKMM1qHrDCHEqNAwMQC4T8etdu5SMOA0zizlEycYZY9yTgQQAABPwrEJKR0nb3bxPMzhoYAAp4IKOOMj/oMUsUZ5aaVdxlnLGjpPs5IyZ2nfMgvntTAOgggEFiBAZGHUlJJNPw4CaMrhQBxhgKDRQQQQAABDwRu309+fubOwE6e6B0BBPQgoIwz+n3wqSrOqDqjqqs4w/ZtW/dxhu3RUnoYIDUggIAnAn0WHkhMsXswg2AVBLwsQJzhZVCaQwABBMwtcCM26akZ2zyZ3LAOAgiYXkAZZ3z44QBVnFFrZg2Xccacdu7jjNjHaplejwEiYCaBt+b/OyE51dxTIEanQwHiDB3uFEpCAAEEdCpwJcbWYdoWM02/GAsCCGRHQBln9On3sSrOaDCrjss4Y0Z793HGjSatslMY2yKAgP8F/jlvT6wtRaczGMoyqQBxhkl3LMNCAAEEvC1w6U5C68lkGbySFgEE0gSUcca7/fqp4ozmc+q5jDPGZxBnnH+ys/9PxugRAQSyKdB51q478cnenoDQHgIuBYgzXNLwBQIIIICALHD2ZnzziZuyOcthcwQQMJmAMs5456O+qjij/bxGruKMhPA27q/OONz1TZNZMRwELCLw9GfbbsQmyfMHFhDwqQBxhk95aRwBBBAwg8Cpa3GNx220yDyMYSKAgOcCyjij1yfvq+KMp75u4jLO+CSDN5ts7fGx52WwJgII6Eqg/dStl+/azDABYgy6FyDO0P0uokAEEEAgoALHrsTWH7NBV/MkikEAAZ0IKOOMNz95VxVndP62ucs4o1cT91dnrOg9VCdjpAwEEMiCQMtJm8/dig/o/IXOLSFAnGGJ3cwgEUAAgawJHP7r3hOj1mVhHsMmCCBgBQFlnNGjf29VnPHK/Jau4gxb13ru44zZ/SZZAZAxImBigSbjNp66fj9r0w+2QsBDAeIMD6FYDQEEELCcAFmGiWeZDA0Brwgo44zuA95RxRk9v2/tKs6Ib/+4+zhjaP85XqmQRhBAIIAC9cesP3Y51nLzJwbsRwHiDD9i0xUCCCBgHIHfL92rM3JtAOdAdI0AAvoXUMYZr336lirO6L2grcs4o15F93HGG4O+1//wqRABBDIUqD1y7f4Ld40z/aFSgwkQZxhsh1EuAggg4AeBQ5diyDIynKKxAgIIKOOMVwf2UMUZfRe2cxlnlC/hPs5oE7IcXgQQMIdAzeFr9py97YfZC11YUIA4w4I7nSEjgAAC7gR+vxRTm+syQqLNMYlkFAj4VEAZZ7w0sLsqzhiwqL1mnOFYKMQ/8ICbOCMlV+7yIb/4tHIaRwABfwrUjFhz8EKMu8kH3yGQJQHijCyxsRECCCBgUoFDF8kyCDIQQMBTAWWc8eKg11VxxpDF2nFG0uKCdkFwE2ckPlLSnyda9IUAAn4QqDNy7fErPEfDpNPHwA2LOCNw9vSMAAII6EzgIFkGF2UggEBmBJRxRufBL6vijJFLXMQZkRncaRJb/XE/nFzRBQII+Fmg/pj1f/KuE53N/YxeDnGG0fcg9SOAAALeEThwIabWCJ796em/lPbzFJDuENCngDLOeG7wS6o4Y/xSF3HGsgyeA3qjSSt9jpeqEEAgmwJNx286fzvBOxMXWkFAFIkz+C1AAAEEEBAPXSTLIMhAAIFMCyjjjGdCXlTFGdOWar/ZJGlZDTd3moiCcL5j52yeMrE5AgjoVqDVpM1XYmzMvRDwigBxhlcYaQQBBBAwsMDJa3F1R63T7byHwhBAQLcCyjijU+gLqjhjdqR2nJEYVd99nHG46xu6HTKFIYBA9gU6TNtyMzbJwDMnSteNAHGGbnYFhSCAAAKBELh4O6HJuA3Zn5rQAgIIWFBAGWd0CH1GFWd8Hdla880miUsbu48ztvb4yIKYDBkBSwk8/dm2O/HJgZj40KepBIgzTLU7GQwCCCCQKYEbsUltp2yx1PyJwSKAgBcFlHFG27CnVHHGgmUtNeOMpIUt3ccZ/+o9zItF0hQCCOhToMusXXGJKZmat7AyAioB4gwVCD8igAACVhG4Z0t55rPt+pziUBUCCBhCQBlntB7ypCrOiIpqphlnJM5v4z7OmNN3kiGGT5EIIJBNgX/O25OQnGqViRfj9IEAcYYPUGkSAQQQ0L1AfFLqy3N3Z3MWwuYIIGBxAWWc0WJIB1Wc8UtUY804wza3nfs4Y2j/ORaHZfgIWEfgzW//nZhi1/28iQJ1KkCcodMdQ1kIIICA7wRSUh29vvu3daZKjBQBBHwkoIwzmoS3VsUZa6IaasYZiTMyiDPeGPSDjwqmWQQQ0KFAn4UHUlMdvpv20LKJBYgzTLxzGRoCCCCgIWC3Oz5ZekiHsxlKQgABwwko44yGQ1qq4ozNkfU04wzbhPbur85oE7LccBQUjAAC2RHoH/m73U6ioTFt4yP3AsQZ7n34FgEEEDCVgMMhRvxyLDsTDrZFAAEEZAFlnFEvvJkqztgZWVszzkgY1tZNnJGSK3f5kF/kLlhAAAGLCIT/ePTvWQr/QSBTAsQZmeJiZQQQQMDYAjPWn7LIrIhhIoCAHwSUcUadoY1VccZvSx/TjjMGtHITZyQWL+GHyukCAQR0KDAm+g8SDWNPNP1ePXGG38npEAEEEAiQwPyd54NDonU4faEkBBAwqIAyzqg5rJ4qzji6tLJ2nNG7qZs4I6764wbVoGwEEMimQHBI9PR1pwI0S6JbQwoQZxhyt1E0AgggkFmBfx24XD6ULAMBBBDwpoAyzqg+rK4qzvhzSTntOOOV+m7ijJuNW2bzjIjNEUDAuALBIdFfbjub2UkO61tWgDjDsruegSOAgIUE1h2/XmnISuNObqgcAQT0KaCMM6oMr62KMy4uLqUZZ8R3rOUmzrjwjxf0OViqQgAB/wgEh0Qv2H3BQrM0hpoNAeKMbOCxKQIIIGAEgT1nblcbuto/UxB6QQABSwko44yKw6ur4oxrC4tpxxkNK7uJMw6/+IalDBksAgg4C5QPjf754BUjTLKoMcACxBkB3gF0jwACCPhU4Mhf9x6PWOM8UeATBBBAIPsCyjgjOKKKKs6IWfiAZpxhq1DCTZyxtcdH2S+MFhBAwOgClcNX7Tpz26dzJBo3gQBxhgl2IkNAAAEEtAXO3Lhff8x6o09oqB8BBHQroIwzSg+vpIwzcozInbIgp3Oc4VgoxBd+0E2c8WPvobodL4UhgIA/BWqPXPvH1TjtKQ6fIvD/AsQZ/CIggAAC5hS4ctfWfOJGf0476AsBBKwmoIwzSgwvr4wzgsZoX5qRtLiAXRDcxBlz+k60GiPjRQABVwLNJmy6GpNozokao/KGAHGGNxRpAwEEENCZwJ37yf+YttXV5IDPEUAAAa8IKOOMhyNKKeOMwuOLOl+aIS4SkiOLu8kyREEY1n+OV2qjEQQQMIfAM5/tiEtM0dk8i3L0IkCcoZc9QR0IIICAtwTik1I7f7HDHJMYRoEAAnoWUMYZDw0voYwzHp1UUjPOSFpW3n2c8dbg7/U8ZGpDAAH/C7zx7b+TUx3emibRjpkEiDPMtDcZCwIIICDa7Y4+C/f7f6pBjwggYEEBZZxRKKK4Ms4InlrORZzxmPs4o+3gZRaUZMgIIOBeYNDyIw4CDea5TgLEGU4kfIAAAggYWWDS2pPuJwR8iwACCHhLQBlnBEU8pIwzKs2o7CLOqOsmzkjJlbt8yC/eKo92EEDATAKfbfjTyBM0aveJAHGGT1hpFAEEEAiIwIr9fwWHRJtp7sJYEEBAzwLKOCN3RAFlnFHj8+qacUbi0sZu4ozE4iX0PF5qQwCBAAoEh0RH/XYpIPMrOtWtAHGGbncNhSGAAAKZE9h37k6V8FUBnGfQNQIIWE1AjjMicowQInIr44x6X9TWjjMWNXcTZ8RVq2k1Q8aLAAKeC1QasnLrqZuZmx6xtqkFiDNMvXsZHAIIWEbgwu2EeqPXez4hYE0EEEAg+wJynDE81yhlliGMEJrOqacdZ3zXxk2ccbNRi+xXRQsIIGBigVoj1p66FmeZ+R0DzUCAOCMDIL5GAAEE9C8Qa0vpOJ3XsnKXDQII+FtAjjNG5B2jijPafNlQM86wfdnOTZxx4R8vmPg0jKEhgIBXBFpN2nwzNkn/0zMq9IMAcYYfkOkCAQQQ8KFAaqrjrfn/9sr8gEYQQACBTAnIccbI/Oo448mvGmvGGUmfu4szjrz4RqYKYGUEELCmQNfZu23Jdh/OrmjaIALEGQbZUZSJAAIIuBAYFX3cmlMZRo0AAgEXkOOMUQXHqa7OeP6bZppxhm1SezdXZ2zv8VHA5n4NrgAAIABJREFUB0UBCCBgCIGPlx7i1a0u5oYW+pg4w0I7m6EigID5BBbtucCrTAwx66JIBEwpkBZnPDheFWe8NL+ldpwR0dZNnPGvd4eaEopBIYCALwSmrztlvqkdI8qUAHFGprhYGQEEENCRwPZTtyoNWemL+QFtIoAAAp4IyHHGmCLqOKPb960144zET1u5iTPm9J3oSb+sgwACCPxHIDT6x4OXdTQzoxS/CxBn+J2cDhFAAAFvCPx5/X7tkWuZzSCAAAIBFJDjjLHFJqquzuj1QxvNOCPhvWZu4oyI/nMCOBy6RgABwwlUCV+199wdb0ysaMOQAsQZhtxtFI0AAhYXuH0/uc2ULYabc1AwAgiYTCAtzig+SRVnfLCwnXac8VoDN3FGr0HfmYyI4SCAgK8F6o1ed+5mvMVnhpYdPnGGZXc9A0cAAaMKJKXYX5u319eTA9pHAAEEMhSQ44xxJSar4oxPFrXXjDNsT9VyE2e0C1mWYaesgAACCKgEOkzbcs+WYtSJHXVnQ4A4Ixt4bIoAAgj4XcDhEEP/dUR1FOdHBBBAICACcpwxoZQ6zghZrB1nxDep6irOSMmZq2LILwEZCJ0igIDRBd75/jdedOL3aWngOyTOCPw+oAIEEEDAc4Gvtp3lVSZGn3JRPwKmEZDjjPFlpqquzhi+xEWcUbW0qzgj8eFHTSPDQBBAwP8CMzee9nxCxZrmECDOMMd+ZBQIIGAJgfXHr1cI41Um0f6fIdEjAghoCshxxoRy6jhjzFLtZ2fEF33IVZwRV7WGZi98iAACCHgiUCFs5daTNy0xI2SQ/xMgzvifBP+LAAII6FvgxJXYmsPXeHI4Zx0EEEDAPwJynDGx4jTV1RlTtOKM5EX57ILgKs642aiFf8qmFwQQMKtA3VHrLt5O0PeEjuq8KUCc4U1N2kIAAQR8JHAjNqnFxE1mnXwwLgQQMKiAHGdMqqSOM2ZGtnV+FGjy0mKusgxREC7+43mDOlA2AgjoR+C5mTsTklN9NB+jWb0JEGfobY9QDwIIIKAWSE51vDx3t34mClSCAAIISAJynDGx6nTV1RlfRrZxjjOSosq5iTOOdOkJLAIIIJB9gUHLj6jnUvxsUgHiDJPuWIaFAAImEhi36kT2D+20gAACCHhdQI4zJlWfoYozvotqqRFnLKvuJs7Y1qOf1yukQQQQsKBAcEj0or0XTTQTZCguBYgzXNLwBQIIIKAHgbXHrpUL5eGXCCCAgB4F0uKMmuo4Y2lUc+c4I3lZHTdxxk+9wy143sWQEUDAFwJVwlcduhijh4kcNfhUgDjDp7w0jgACCGRL4Pyt+Noj1/riME+bCCCAQPYF5DhjyuPqOOPHqKbOcUZiZCM3ccaXfSdmvyRaQAABBCSBZhM23opLytY8jI11L0CcoftdRIEIIGBVAVuy/bmZO5iUIIAAAroVkOOMybU/U91ssjKqkUacsai5mzgj4pPZuh0phSGAgBEFun29LzXVYdWJpCXGTZxhid3MIBFAwIgCQ386ZsSpAzUjgIB1BNLijCfUccaGqHrOcUbSd63dxBlvD/reOnSMFAEE/CMwcc0fRpwEUrOHAsQZHkKxGgIIIOBXgZ8PXQkO0eOt8v6ZfNALAggYQkCOM6bWU99ssiOqjnOcYZvXzk2c0T5kuSFGTZEIIGAkgdDo1Ueu+XUOR2d+FCDO8CM2XSGAAAKeCZy6fr/m8DVGmiuQvCCAgCUF0uKMhuo4Y19kTY04Y2Z7V3FGas6cFUN+5e8eAggg4HWBmhFr/rx+37MpGGsZTIA4w2A7jHIRQMD0AvFJqR2nb/X6sZwGEUAAAa8LyHHG5Ebqm01+X1pNI86Y7DLOSHz4Ua+XR4MIIICAJNBx+tb7iammn0NacIDEGRbc6QwZAQT0K+BwiJ9GHWbygQACCBhCIC3OaPK56lGgfyypoBFnjHR5s0lc1RqGGDJFIoCAQQX6LT7o4Kmg+p0CZ7Ey4owswrEZAggg4AuBJfsu8cgMg86TKBsBCwrIccbU5uqrM84vKa0RZwxq5epmk1uNWlgQkCEjgIA/Bb7adtYXkzfaDKAAcUYA8ekaAQQQSCdw7HJstaGr/Xlcpy8EEEAgOwJynDGlpTrOuLKouHOckfC+yxe1XuzwXHYqYVsEEEAgQ4FKQ1buPnM73dyLHwwuQJxh8B1I+QggYBaBmISUNlO2ZHgkZgUEEEBAPwJynDG5lTrOuL2wsEac0a2hq6szjnbpqZ9xUQkCCJhVoMGY9VdibGaZPDIOkTiDXwIEEEAg8AIOh/jBooNmnTowLgQQMKtAWpzRRhVn5Ez8IbdznGF7prarOGN7935mVWJcCCCgK4Guc3YnpdgDP/mjAm8IEGd4Q5E2EEAAgewJfLvjnK6O9BSDAAIIeCIgxxlT2qV7UWve0QWcswxxkRDfvJqrOOOnd4Z40iPrIIAAAtkXmLD6j+xN3NhaLwLEGXrZE9SBAAKWFdh/4W7lIauyf2ymBQQQQMDPAnKcMal9ujij0Lgi2nHGY2VdxRlf9p3o5+LpDgEELCtQPjR6Fw/RMMXMmzjDFLuRQSCAgGEFbsclN5uwybLzCQaOAAKGFkiLMzqmizMenvioZpxhe/ghV3HGiP6zDU1B8QggYCyBZhM23o1PNuz8kcL/K0Ccwa8CAgggEDABu93x1vx/G+vwT7UIIICALCDHGRM7pYszSk8p4xxnpCzKnZIzp6s4451B38nNsoAAAgj4QeCjJYccjoBNAunYKwLEGV5hpBEEEEAgKwKzNp32w9GaLhBAAAEfCchxxqSnpgkjBPmfitMrOscZSUuLusoyREHoMHiZj4qkWQQQQEBTIDgkesWBy1mZwLGNbgSIM3SzKygEAQQsJrDn7O2KYSs1j698iAACCBhCQI4zJjyTLs6o/lk15zgjOaqMqzgjNWfOyiHRhhgyRSKAgJkEHo9Yc/52gsVmoKYaLnGGqXYng0EAAaMI3EtIaTFxs5kmBIwFAQQsKJAWZzyXLs6oM/Nx5zgjaVlVV3FGYrFHLKjHkBFAQA8CL83ZnZrKPSdGmUGr6yTOUIvwMwIIIOAHgUHLD+vhEE4NCCCAQHYE0uKMF6bId5oII4RGs5/QijNqu4oz4qrWyE4ZbIsAAghkR+DzTX/6Ye5HF74QIM7whSptIoAAAu4E1h27Hsxl1QgggIDxBeQ4Y3yXdHFGy7n1neOMxMhGruKMW41aZOdUhG0RQACB7AhUGrLy4IUYd1M3vtOrAHGGXvcMdSGAgEkFbsUlNRizITsHXbZFAAEEdCIgxxlj08cZ/5jXSCPOWNzMVZxxscNzOhkRZSCAgDUF2kzZcj8x1aRzTzMPizjDzHuXsSGAgN4EHA7xvYUHrDlRYNQIIGA+ATnOGNN1svJmk2e+buocZyR939pVnHG0Sw/z4TAiBBAwlkDoisN6mzdST4YCxBkZErECAggg4DWB5fv/4jYTY01uqBYBBNwIyHHG2JcmKuOMLt+2cI4zbF+1cxVnbO/e100vfIUAAgj4QSA4JHr1kWtem/PRkF8EiDP8wkwnCCCAgCj+dddWa8RaPxyP6QIBBBDwj4AcZ4x5ZYIyzvjnd6004owv2ruKM35+J9w/BdMLAggg4Eag7qh1V2MSmbQaSIA4w0A7i1IRQMDAAg6H2O3rfW6OoHyFAAIIGE5AjjNG/TNdnPHmD22c44zEqS6vzpjXd6Lhxk7BCCBgSoEe3+xz8NpW48y4iTOMs6+oFAEEjCzw7c7zpjzqMygEELCygBxnjHxtvPLqjPcWtHOOM2yjXcYZI/t/YWVGxo4AAroS+Hr7OSNPOa1VO3GGtfY3o0UAgYAI/Hn9fvVhq3V1qKYYBBBAIPsCcpwx4vWxyjjjo4XtneOMhBCXjwLtPej77BdDCwgggIBXBKqErzpxJTYgM0Y6zawAcUZmxVgfAQQQyJxASqqj86xdXjm+0ggCCCCgKwE5zojoPloZZwxcpBFnJH7Y3NWzM/4RskxX46IYBBCwuMCTM7bZku2Zm/CxdiAEiDMCoU6fCCBgJYHPN/5p8TkBw0cAAbMKyHHG8B7p4oyhSzTiDFuPRppxRmrOnJVDos1KxLgQQMCgAqN+PWal6apRx0qcYdQ9R90IIGAIgcN/3as8ZJVBD+SUjQACCLgXkOOMYT1HKa/OGLVUI85IeP4JzTgjsVhx973wLQIIIBAAgdDoLSdvGmK2aeUiiTOsvPcZOwII+FbAlmzvOH1bAA7A/HtOBBBAwC8CcpwR/uZIZZwxUTPOaFldM86Iq/oYfycRQAABHQo0GrvhVlySbyeLtJ49AeKM7PmxNQIIIOBaYMzKEzo8NlMSAggg4C0BOc4IezNCGWfMWNpW41GgNctqxhm3Gjb3Vj20gwACCHhXoH/k764nenwTeAHijMDvAypAAAFTCuw+c7t8KHeDI4AAAmYWkOOM0F7DlXHG3EiNOMP2aFHNOONS+2e9e/pBawgggIC3BIJDuOVE1/N04gxd7x6KQwABgwrE2lJaTtrsrUMp7SCAAAL6FJDjjMHvDFPGGd9GtlZdnZGyMFdSrtyaccaxzt31OTqqQgABBMqFRLectDk+KdWgM1LTl02cYfpdzAARQCAAAoNXHGEGgAACCJheQI4zBvUOV8YZi6JaquKMpCUPaWYZoiDs6N7X9FAMEAEEDC0weuXxAMwm6dIDAeIMD5BYBQEEEMiMwPrj14P98hA+Q88MKB4BBEwgIMcZn74bpowzlkc1VcUZyVGlXcUZP78zxAQUDAEBBEwsUDFs5aFLMZmZDLKunwSIM/wETTcIIGARgdv3kxuO3WDiIzpDQwABBGQBOc7o/16oMs6IXtZYFWckLaviKs6Y9+EEuUEWEEAAAX0KPPPZjuRUh0VmswYaJnGGgXYWpSKAgAEEuM1En7MQqkIAAV8IyHHGx30GK+OMdVENVHFG4rJaruKMkf1n+aI22kQAAQS8KzB3yxkDzEQtViJxhsV2OMNFAAFfCuw5d6ccbzPhRhsEELCMgBxn9PtgoDLO2Br1hCrOSIpq4CrO6D3oO++ectAaAggg4AuB6sNWn70Z78uJJG1nWoA4I9NkbIAAAghoCiSl2J+csd0Xh0/aRAABBPQpIMcZH34wQBln7I58XBVnJC5p5irO6BgSpc/RURUCCCCgEuj29T4Hd5xozoMD9CFxRoDg6RYBBEwnMGfzGdUxjx8RQAABcwvIccYHH/ZXxhkHI6ur44wfWmnGGak5c1YN+dXcSowOAQTMJBD12yXTzWENPCDiDAPvPEpHAAH9CFy4nfDYsNVmOlozFgQQQCBDATnO6NPvI2WccXxpJVWckfR1W804I7FY8Qx7YQUEEEBAPwJPjFp3IzZJP1NQi1dCnGHxXwCGjwACXhBwOMS3v/tNPwdaKkEAAQT8IyDHGe9+1FcZZ5xZEqyOM2a104wz7lep7p9S6QUBBBDwlsDHSw55YfpIE94QIM7whiJtIICAtQVWH7kWbJkn/3lrKkA7CCBgAgE5znj7ow+UccalxSVVcUbiNO0441aDZiZwYAgIIGApgeCQ6I0nblh78quX0RNn6GVPUAcCCBhUINaW0nT8JksdxRksAgggIAnIccZbn/RRxhk3FhZVxRm2MdpxxqX2z4KJAAIIGE6g+cRN9xNTDTp3NVPZxBlm2puMBQEEAiAwOvq44Y7BFIwAAgh4RUCOM97o31sZZ8QuKKCKMxLC2mjebHKscw+vVEIjCCCAgJ8FRkUfD8C8ky7TCxBnpPfgJwQQQCAzAkcvx1YMW+nnwyfdIYAAAjoRkOOMHv3fkeOMXCPz2RcIqjgjsW8LzThjZ7cPdTIWykAAAQQyJVAhbOXBizGZmTayrvcFiDO8b0qLCCBgEQG73dF51q5MHflYGQEEEDCTgBxndBvQS44zCox9UJVliIuEhDcaa8YZv7wdZiYQxoIAApYSeGrG9qQUu0XmvfocJnGGPvcLVSGAgAEEfth9wVLHbAaLAAIIqATkOOO1T3vKcUaRCQ9rxBmd62rGGV99OEHVJj8igAACBhKYtem0Aeas5i2ROMO8+5aRIYCALwWu3UusPXKtgQ63lIoAAgh4XUCOM14d2F2OM0pOLu0cZ9jaVNeMM0Z9MsvrVdEgAggg4DeBqkNXnbkR78spJ227EyDOcKfDdwgggIArgY+XHvLbkZKOEEAAAX0KyHFG14Hd5Dij3LTyznFGQu3ymnHGu4O+1+fQqAoBBBDwUOC1eXsdDlcTRj73rQBxhm99aR0BBEwpsO3UreCQaA8PcqyGAAIImFVAjjO6DH5NjjOqzKiiEWeUeVgzznhycJRZcRgXAghYR2DZb3+Zcsar/0ERZ+h/H1EhAgjoS8CWbG87ZYt1jtCMFAEEEHAlIMcZLwx+SY4zHv+8hirOsC/MkZQ3r3OcYc+Ro2rIr64a53MEEEDAKAKNxm6Ms6Xqa8JqjWqIM6yxnxklAgh4T2D6ulNGObhSJwIIIOBTATnOeDbkRTnOaDCrjirOSF5SyDnLEAUhsejDPi2PxhFAAAG/CUxae9J7k01a8lSAOMNTKdZDAAEERFE8feN+lfBVfjs00hECCCCgZwE5zngqpLMcZzSfU18dZ0SV1Iwz7leupufRURsCCCDguUDVoasu3E5gtuxnAeIMP4PTHQIIGFjA4RC7fb3P8wMbayKAAALmFpDjjCdDn5fjjHbzGqnijKRllTXjjFsNmpnbh9EhgIClBPouPmjgaa4xSyfOMOZ+o2oEEAiEwL8OXLbUUZnBIoAAAu4F5DijfdjTcpzx1NdNnOKMxzXjjEvtn3HfPt8igAACBhIIDoneffZOIKao1u2TOMO6+56RI4BApgRibSkNx24w0DGVUhFAAAFfC8hxRpuwjnKc0fnb5uo4I6q+ZpxxrHN3X1dI+wgggIA/BZ6fudNu562tmZpiZ2tl4oxs8bExAghYR2Dy2pP+PBzSFwIIIKB/ATnOaDmkgxxnvDK/pSrOSFzSVDPO2NHtQ/2PkQoRQACBTAks++2SdabHAR8pcUbAdwEFIICAAQQu37VVH7Y6UwczVkYAAQRMLyDHGc2GtJPjjB7ft1bHGQtaasYZv74TZnoiBogAAlYTaDxu4/1EXtrqp+k9cYafoOkGAQQMLTBw2WGrHYwZLwIIIJChgBxnNA5vJccZ7yxoq4ozkr5pqxlnfP3h+Ay7YAUEEEDAcAK8tNVv037iDL9R0xECCBhV4NiV2AphKw13KKVgBBBAwNcCcpxRP7y5HGf0XdhOFWckzmmnGWeM+uQLX1dI+wgggID/BXhpq98m/cQZfqOmIwQQMKpAj294OWu0/6cC9IgAAvoXkOOMJ8KbyHHGgEXtVXGGbUZ7zTjj3UHf6X+MVIgAAghkQYCXtvpn3k+c4R9nekEAAaMKbP7jZnAIJ/MIIIAAAhoCcpxRa2hDOc4IW6yOMxLHaV+d0SkkMgsnCWyCAAIIGEAgNHrvOV7a6vP5P3GGz4npAAEEjCuQmuroNGO7AQ6ZBC4IIIBAIATkOKPGsLpynDFiiVOcEd7G+eoMe44c1UN+5Q8sAgggYFYBXtrqh1MA4gw/INMFAggYVWDJvktmPcQyLgQQQCD7AnKcUW3YE3KcMX6pU5zxUQvnOMNW9OHsF0ALCCCAgJ4Fonhpq49PAogzfAxM8wggYFiB+4mpjcdt1PMxktoQQACBwArIcUbl4bXkOGPaUqdHgb7V2DnOuF+5emCLp3cEEEDA1wK8tNXX5wHEGb4Wpn0EEDCqwGcb/vT1QY72EUAAAUMLyHFG+eHV5DhjVqT6Ra22F+s6xxm3GzQ19NgpHgEEEPBEYPLak0adChuhbuIMI+wlakQAAb8LXL+XWHP4Gk+OUqyDAAIIWFZAjjPKDq8kxxnznOOMdo85xxmX2j1tWTcGjgAC1hHgpa0+ncUTZ/iUl8YRQMCoAmH/OmqdAy0jRQABBLImIMcZpYZXkOOM76NaqV7UmlC3gnOccbxz96x1ylYIIICAsQR4aavvzgeIM3xnS8sIIGBUgT+uxVUMW2msIyXVIoAAAv4XkOOMRyOC5TgjKqq5Os4IfsQ5ztjV7UP/F0yPCCCAQAAEeGmrz84JiDN8RkvDCCBgWIFe3/0WgENdIF6yyDARQACB7AjIcUbRiBJynPHzsibKOMOxULAVyO8cZ0S/HZadrtkWAQQQMJAAL2310WkBcYaPYGkWAQSMKrDjz1vBJAsIIIAAAh4IyHHGgxEPy3HG6qhGyjgjafEDzlmGKAjffDDOQKcilIoAAghkU2D5/r+MOjnWcd3EGTreOZSGAAJ+F7DbHc9+viObhys2RwABBCwiIMcZBYY/JMcZmyLrposzIh/VjDNG9//CIkoMEwEEECgXEt168pbkVIff57Ym75A4w+Q7mOEhgECmBJbv/4sjLgIIIICAhwJynJEvopAcZ+yMrK2MM5KXaTwHVBSEPgPne9gLqyGAAALmEFiy92Km5qWsnKEAcUaGRKyAAAJWEUhITm02YZM5jpeMAgEEEPCDgBRnRAgjckYEyXHGb5E10scZNTSvznhqcJQfKqQLBBBAQD8CLSZuTkqxW2Vi7ZdxEmf4hZlOEEDACAKzN5/WzwGPShBAAAH9C0hxxvAcI4UROeU448jSKunijKh6znGGPUeO6iG/6n+AVIgAAgh4V2DB7gtGmBQbpkbiDMPsKgpFAAGfCtyMS3o8Yo13j1i0hgACCJhb4L9XZ+QeJWcZwgjh1JJyyjgjaWkT5zgjsUgxc8swOgQQQEBToOn4TbZkLtDw2qSeOMNrlDSEAAKGFoj45ZjmUYcPEUAAAQRcCfz32Rn5RivjjIuLS6WLMxa2cI4z7leq5qpNPkcAAQTMLTB/53lDz5l1VTxxhq52B8UggEBgBC7H2KqErzL3sZPRIYAAAl4XkOKMUQXGKuOMawsfThdnfNvGOc64Xb+J14uhQQQQQMAQAo3HbUxITg3MlNd0vRJnmG6XMiAEEMi8wEguzQiJNsQMgCIRQEBXAlKcMbrQOGWccXdhIWWckTi3nXOccand07oaCMUggAAC/hT4atvZzE9X2UJDgDhDA4WPEEDAUgLX7yVWG7ran8cw+kIAAQTMIfDfOKPweDnOyDEid8qCnMo4wzajvXOcceKFbuYQYBQIIIBAFgQajNkQn8QFGl444SDO8AIiTSCAgKEFRq88noXjEJsggAACCEhxxtiiE+Q4I2jMA8osQ1wkJE7QuDpj5+sfoocAAghYWWDu1jOGnj/rpHjiDJ3sCMpAAIHACNyMTXpsGJdmcKcJAgggkBUBKc4YV2yiHGcUHl9UFWfYhrV1vjrj17fDrHwaw9gRQACBeqPXxdpSAjP9NVGvxBkm2pkMBQEEMi8wfvUJDqgIIIAAAlkT+O/VGY9MkuOMRyaVUMcZn7R0jjO+/WBc1npkKwQQQMA0AjM3nc781JUt0gkQZ6Tj4AcEELCUwO245JrD15jmoMhAEEAAAT8L/PfqjJJT5Dij7NRgVZyR+E4T5zhjzCcz/Vwq3SGAAAJ6E6gzcm1MAhdoZOvkgzgjW3xsjAAChhaYvPak3g5s1IMAAggYSECKMyaUnizHGZVmVFbFGbaX6jnHGe8P/NZAw6RUBBBAwEcCMzacMvRcOuDFE2cEfBdQAAIIBEbgbnzy4xFcmpGVu+V9dESnWQQQMJyAFGdMLJt2dUaNz6ur44x/1HSOM54eHGm4wVIwAggg4HWBWiPW3olPDsxU2BS9EmeYYjcyCAQQyLzA9PWnvH5MokEEEEDAUgL/jTPKTZWvzqj7RS11nFG/oirOcAhC9ZBfLQXFYBFAAAFXApPXnsz8NJYt/itAnMGvAgIIWFHgXkJK7ZFrXR1X+ByB/2vvPsCjKvM9jg8JHURAEGlDFVTcVexYca1rYV1117oqrgXZXRULE7p0FaRakI5SpInAJIGEGkIJSSCUEGooAUILaYT0yX24wWEyKU5m5sy85XuffZ47mTnnPf/3c5zfO/Nn5gwCCCDgikBxO+PrNlfaGfd839m5ndG6iVM7I7vBNa4MzjYIIICADgKdBq1IyeQDGm6+H6Gd4SYcuyGAgNQCE9cc1GGBZI4IIICAoQLF7YxR7cfYP53R9cc7HdsZttmm7KvqOLUzMtt2NLQqBkcAAQTkEvgydK/Ur6v9WDztDD/ic2gEEPCPQGZ2QechYXKtc1SLAAIICChwuZ3RYay9nfHElLsd2xl5c2sVmkxO7YyU2+8RcC6UhAACCPhL4MYBoWczcv3zsljyo9LOkPwEUj4CCFRe4Id1h/y1XHFcBBBAQCWBy+2MG660M56ddm+Jdsb8xk69jCKT6fjDT6mEwFwQQAABzwWGBu+p/Eta9iiincF/BAggoJdAVm7B7cPCPV91GAEBBBBAoLidMbrTlXbGCzMeKNHOWNi6dDsjodur0CGAAAIIOArcMCD0VHqOXi/KvTFb2hneUGQMBBCQR2BKRKLj4sFtBBBAAAG3BS63M/40zv5lk1dnPuTYzshdeFPpdsamV3u6fUR2RAABBFQV4AMabryfoJ3hBhq7IICArAIX8wruHM5HM6yqvg5gXggg4GOBy+2MW660M97+qWuJdsaCzqXbGdZ/B/m4Tg6HAAIIiC9w86AV6RfzZX2R7ae6aWf4CZ7DIoCAPwRmRB4WfzGjQgQQQEAWgcvtjM5X2hkf/PyXEu2MX+4u3c6Y3nOELBOkTgQQQMCXApMjEv3xAlniY9LOkPjkUToCCFRKIDuv8J4Rq325JnEsBBBAQG2B4nbGN7dfaWd8POeREu2M2feXbmcM+2ii2izMDgEEEHBP4N4v1+QV2Cr1+lbzjWlnaP4fANNHQCOBnzYddW9pYS8EEEAAgTIFLrcz7rzSzug9t2Q7Y0bX0u2MDz6bXuZo3IkAAgggsHT7SY1enXs8VdoZHhMyAAIIyCCQm1/CitiJAAAgAElEQVR475d8NIOrZiCAAALeFChuZ4y6e7z9UqAD55VsZ/z4l9LtjKct83nHggACCCBQpkC3iRttfD7D5TcXtDNcpmJDBBCQWWBe1LEy1wzuRAABBBBwW+DytTO6TLC3M4b9UrKdMd65nWEzmW60LHP7iOyIAAIIqC1gtlg3H0qR+UW3T2unneFTbg6GAAJ+EbDZih4bs17txY/ZIYAAAr4XuPxlk/uufDpj1C8lLgWa85VzOyOnfkPf18kREUAAAYkE3pkV45cXzDIelHaGjGeNmhFAoHICa/eelWgNo1QEEEBAFoHLn8544Mq1MybMf9jxUqA5gx52+rJJVtsOssyOOhFAAAG/CLQOsh44faFyL3Z13Zp2hq5nnnkjoJPAG9O2+mU14qAIIICA2gKX2xkPXWln/Di/a4l2xicPOLUzUm6/R20TZocAAgh4LtBvyS6dXqq7P1faGe7bsScCCEghkJCc2SrIm5e+83yJYgQEEEBADYHL7YyHr7QzZi54sEQ7470uTu2MpIefUmPuzAIBBBAwTqBj/9BzmblSvNL2b5G0M/zrz9ERQMBwAcvincYtNoyMAAII6CxwuZ3xyJV2xrwF9zu2My6+fKdTOyOh26s6izF3BBBAwEWB8asPGP4qWf4D0M6Q/xwyAwQQKF/gbEZuh/4hLi4bbIYAAgggUCmB4nbGqMfG2n/Z5NcF95RoZzz5J6d2xuZXP6jUIdgYAQQQ0FPgjmGrsvMKy3+RyyOXBGhn8N8BAgioLDB+9QE9l0BmjQACCPhAoLid8fXjV9oZwQvucmxnZN/VzqmdEfzvIB8UxiEQQAABBQTmRR1T+WW6N+ZGO8MbioyBAAJCCuTkF945fJUCixlTQAABBMQUuNzOePJKO2PVgttLtDPaXefUzpjec7iYc6EqBBBAQDSBx8dG2GxCvsgWpijaGcKcCgpBAAFvCyyIThJtWaIeBBBAQCWBy+2Mp8bYv2yyYf4tJdoZ9a9yamcM/3iiSgLMBQEEEDBUYHXCGW+/QFZqPNoZSp1OJoMAAnYBm63or+M2GLrAMDgCCCCgkkCH/qH3f7X2+e82vjV9a88523ov2vHFsvhRK/Z+v/bgjE1HFsYmBe9MXrv3bMT+s5EHzm06mLL5UMrunacTI4/Fx+5fnRix4sBq674VpxKteYnz8/bPyE34Pnvn1zl9B+T95395r7+R+3S3vC735V/f8eO+c8wWfm0KAQQQQMAlgVenRNlf3HKjtADtjNIm3IMAAioIbDhwTqW3GcwFAQQQ8FzAbLHeOiT8uW8j/zt321Drnh/WHVocezxi/9m9yZkpWXk++0hzRnZB4tms6MPnQ3YmT488PHhZ/L9nRj8+dv1NA1d6PkdGQAABBFQSMFusu06kq/DS3Jg50M4wxpVREUDA3wLvzopRaTFjLggggEBlBToNXPn0+A0952wbtXLfwtikmCOp5zLz/J3NFR3fZis6nZEbcyT1120nxq8+8PnCHX/7NvKGAaGVnTjbI4AAAioJ9JofV1F06v0Y7Qy9zz+zR0BRgaMpF9v0CVZpJWMuCCCAQMUCZou1y8g178yKHhe+Pzz+9InUbJ992sLQlaSg0Hbg9IXlcSdHrdj79szoe79cw3dVKv4vgUcRQEAxgfZ9Q06kZhuatPIOTjtD3nNH5QggUK7AyNAExVYypoMAAgg4CZgt1ge+Xttjduy3aw6u3XvmTEZuuZmo1gPns/I2H0qZEpHYY3bsXcNXO7HwJwIIIKCewMjQBLWC3GuzoZ3hNUoGQgABQQQu5hV0HhKm3krGjBBAAIFWQdbHx64f8Nvu5XEnT6XnCJK6fizDZitKPJu1KPZ40OKdj49d3zrIpUvr8R8SAgggIJfAnwevzMwu8GPYCnto2hnCnhoKQwABNwXmb+X3WXlBjwAC6gi0DrL+ddyGQUvjrTuT9fkIhnsLwLkLeWF7To8MTXh2YiStDbnerVEtAghULDBj4xH3glHtvWhnqH1+mR0C2gnYbEXPTIiseD3gUQQQQEB8gTuHr+q9aEfwzuRzF4S+fqewy8zpjNxFMcc/nLe985Bw8U83FSKAAAIVCzw5boMaV0Ty7qpBO8O7noyGAAJ+Fth6+DxXiat4OeRRBBAQVyDI+vT4yNFh+7YdTSsstPk5T1U5fEGBLfZI6jdh+5/7diMf2RD3P36LOp+oAhkBIwTMFuu2o2mqBLPX5kE7w2uUDIQAAiIIfDhvuxFLCGMigAACxgl07B/afUbMz5uPcu16o9eRc5m5C6KT3poe3b5viHEnlJERQAABIwSCFu80OiSlG592hnSnjIIRQKBcgeT0HF6hGrF8MiYCCBgh0L5fyDuzYpbHnbyQwwXeyg12gx5IuZA3L+rYv6ZtbdeXX/XmYxEIICCHQKeBK7ggqNOiQDvDCYQ/EUBAYoGx4fuNeMvBmAgggIAXBVoHWV+evGVu1LHzWVwUw/8rzrnMvLlbjr06JaptH/oacryj8+KTkaEQkE5gXtQx/+emSBXQzhDpbFALAgh4IJCbX3j3iNXSLUsUjAACmgiYLdZnJkT+uP4Q3yjxIOkN3PVsRu7MjUeenhDJBZg0eUoyTQRkFHjuu00G5qCEQ9POkPCkUTICCJQlELLrlIzLEjUjgIDyArcPWzUiJGH/qcyyoov7hBOIS0rrt2TXzYNWKP9fJhNEAAHpBMwW656TGcLlpv8Kop3hP3uOjAACXhV4Z1aMdGsSBSOAgMICrYOsr03dat1xMje/0Ktpx2C+ELiQU7AgOumFHzbzYQ2Fn6RMDQEZBb5YFu+LEJTkGLQzJDlRlIkAAhUKnM7I5XJuMi7J1IyAkgK3DgkfFpyQeDarwtziQTkE9p3KHBq857ah4Ur+t8qkEEBAOoFbh4Rn59Elv7yC0M6QYymlSgQQqFhgckSidKsRBSOAgGICZov12Ykb529Nysrll0oqzmz5Hr2YVzA36thjYyIU+4+W6SCAgIwCS7adkC9GjamYdoYxroyKAAI+FLDZip4ct0HG1YiaEUBAEYEg69szY7YknrfZfJh9HMrnAjZb0aqEM69OieIbKIo8cy38mAsCUgq8MjnK5/kn6AFpZwh6YigLAQRcF9iRlM4rS15ZIoCAXwTa9Q3uNT8uIZkLs7me2SpsuetEeq/5ce37hvjlvzoOigACugsEWfk+Y/FaQjtDhTWVOSCgucDApbt1X9X49yUEEPC5wI0DQgcvi086f1HzBNZ5+idTs78MTfjz4JWsQQgggICPBb4M3atz/NrnTjvDTsENBBCQUiAnv7DzkDAfLyEcDgEEdBboPCRsbPj+lMw8KUOTor0tkHYxf/yqA7cMZiWS8kP7OkcZc5da4K7hq/MK+H5jEe0Mb69pjIcAAr4VsO5Mlno1ongEEJBI4JbBYT+sPcSVPn0b83Ic7VJTY/WBW/ikhs8/JyVRgFAqAt4VCN11So58NLJK2hlG6jI2AggYL9B9Rox31wZGQwABBEoL3Dgg9OuV+1Kz+ESG8bEu8xHSLuaPDd/fadCK0v8JcQ8CCCDgXYHuM2Jkzkvv1E47wzuOjIIAAn4ROJWe07ZPsHfXBkZDAAEEHAXa9wv5Yln86fQcv6QcB5VRICUzb0RIwg0DQh3/Q+I2Aggg4F2BNn2Cj6dmyxiSXqyZdoYXMRkKAQR8LTBp/SHvLgyMhgACCNgF2vQJ/mzBjqMpXOzT19muxvGS03KCft3Vhp47Xz9BAAHDBMavOqBGYLo9C9oZbtOxIwII+FnAZit6fGyE/Y0HNxBAAAFvCZgt1vd/jt1/KtPPMcfh5RfYfSLj1SlR3vovk3EQQAABR4H7v1pbUKj1BUFpZ8i/TjIDBHQV2H4szWxYt9txqeA2AghoJfD42IiI/ed0TVbm7X0Bm60odNeprqPWafU8YrIIIOAbgXX7zno/tuQZkXaGPOeKShFAoKTAgN92+2ad4CgIIKCJwM2DVkyJSOSn70pmLX95RyAnv3DS+kM3c5VQ/h0CAQS8KvDB7G3eCSk5R6GdIed5o2oEtBfIziu8ZXCYJm+xmCYCCBgt0DrI+vnCHVzvU/u1xXCAsxm5fbmghlffyxkdDoyPgOAC7fuFnMnINTy8RD0A7QxRzwx1IYBAhQLWHScFX10oDwEEZBHoNnFj7NHUCiOHBxHwpsDuE+l/+3ajLE8Q6kQAAcEFpm447M2Ekmos2hlSnS6KRQCB3wXemh4t+NJCeQggIL7ArUPC5kQdK9T7Omq/xyr/36cCBQW2qRGJN/JjrnxSAwEEPBZ47rtNPs0vkQ5GO0Oks0EtCCDgmsDJtJy2/PSdx4uf+G81qRAB4wTMFmuPn7edSs9xLXXYCgFDBI6mXKQ7b9zTnJER0EUgyHpE198Up51hyOLEoAggYKjAD+sO6bI+0bNAAAEDBG4bGm7dcdKm9W/bGRrSDF4JAZut6LftJ24bGs66hgACCLgt8O2ag5XIHYU2pZ2h0MlkKgjoIWCzFT02JsLtuGdHBBDQWcBssX40b/u5TH2vmqbHQiHfLFMy8z5bsINfH9c5nZg7Ap4IPDlug3zB542KaWd4Q5ExEEDAhwKxR1M9iXv2RQABbQXuHrEqLP60D+OKQyFQOYH1+892GblG22coE0cAAbcFzBbr3lOZlUscJbamnaHEaWQSCOgk0H/JLreznh0RQEBPAbPF+tnCnalZeTqFJXOVUuB8Vt5/5m7nYxp6JhWzRsATgVEr90mZep4VTTvDMz/2RgAB3wrkF9huG7rKk6xnXwQQ0E3g1iFhK+NP+TarOBoC7gvYbEWLYo93GrRCt6cq80UAAU8Euo5ep+E1oWhnuL/YsCcCCPheYOPBFE+Cnn0RQEA3gZd+3HIiNdv3YcUREfBQ4PC5rBe+36zbE5b5IoCAJwLbj6V5mDzS7U47Q7pTRsEIaC0wcOluT1KefRFAQB+Btn2Cx686UFDA75dovWpIPfn8Atv4VQfa9Q3W52nLTBFAwBOBocF7pA49N4qnneEGGrsggIB/BGy2Iq6R5skix74I6CNw75drtiSe909UcVQEvCoQezS166h1+jx5mSkCCLgt0GXkmsJCvZr4tDO8uuAwGAIIGCnAb5q4vbyxIwJaCbw/e9t5rvppZBozto8FMrLze8zeptWzmMkigIB7ApsPpfg4oPx7ONoZ/vXn6AggUAmB4SEJ7iU7eyGAgCYCHfqH/Lz5qIbXQqtEkrKpnAI2W9EP6w617cMXT6yapBnTRMA9gYFLd8sZcm5WTTvDTTh2QwABHwvYbEV82ta9hY29ENBEoMvINRpeBc3HUczh/CsQeeDcbUPDNXlGM00EEHBD4J4Rq7X6vgntDP+uShwdAQRcFYg/meFGprMLAghoIvDiD5tPpee4Gihsh4C0AidSs5/7bpMmz2umiQACbghsPazRpaNoZ0i7mlE4ApoJjAnb70agswsCCCgvYLZY+y7ZnZtfqFkoMl19BXLyC/sv2WW28LULBBBAoAyBIcvj9clH2hn6nGtmioDcAk+M26D8uzImiAAClRVo3y9k9pajcqcb1SPglsDCmKSO/UMr+5RhewQQUF7g3i/X6HMNKdoZbi0g7IQAAr4VOHQmi3+GUn71ZYIIVFbgzuGronT6SK1vc5ejSSAQdyztjmFcSqOMf52ubJiwPQKKCWw7mipBhHmjRNoZ3lBkDAQQMFjg+7UHFVtmmA4CCHgo8LdvN55IzTY4exgeAdEFjqVcfGzMeg+fTeyOAAKKCQwPThA9vLxUH+0ML0EyDAIIGCnwt283KrbMMB0EEPBE4N1ZsVm5BUamDmMjII1Aalbeq1OiPHlCsS8CCCgm8ODXazX5vgntDGnWKgpFQFuBpPPZrYL4KCkCCCBwWaDfkt0FBTZtI5GJI1BaIDe/8LOFOxV7P8Z0EEDAE4EdSWmls0K9e2hnqHdOmRECqglMizzsSZqzLwIIqCMQZP12zUFN/sVJtShnPgYL2GxF41cfoPuvTtzxyzUIeCbwVeheg1NHiOFpZwhxGigCAQQqEPjnpC28OkEAAQTa9Q1eGHO8gqzgIQQQ+HXbifb9QogLBBBAoOvodTp0/2lnsPAhgIDQAqczctv0CWZNQgABzQU6DVyxdu9ZodOK4hAQQ2DToZROg1ZonhhMHwEEWlmsCckZYsSSgVXQzjAQl6ERQMBzgTlRR1mQEEBAc4E7hoXvTEr3PE8YAQFNBOKOpd06JEzz3GD6CCDw4/pDyoce7QzlTzETREBugTembWU1QgABnQUe/Hrt4XNZcgcZ1SPgc4GEkxl3Dg/XOTqYOwIIvDp5i8+zx9cHpJ3ha3GOhwACrgukZuW178t3gPk9CwT0FfjLN+tOpma7HhpsiQACdoGDZy50Gbmad3QIIKCtQPt+IRnZ+fZMUPIG7QwlTyuTQkARgcWxx7VdgZg4Agg8MS7idHqOInHGNBDwh8CxlItdR60jTBBAQFuBFbtP+SN7fHdM2hm+s+ZICCBQWYH3forRdvlh4ghoLvDMhMiUzLzKhgbbI4CAk0ByWs7jY9drnidMHwFtBfr+usspExT7k3aGYieU6SCgjkBWbkHH/qHaLj9MHAGdBZ6duPF8Fr0MdfKcmfhX4Fxm7rMTNugcKcwdAW0F7vtqjdo/10o7w7/rC0dHAIFyBcLiT2u79jBxBHQW6EYvo9xc5AEE3BRIu5j3DB0Ni77XIdJ5TWHue09luhkcMuxGO0OGs0SNCGgpMGhpPCsQAgjoJtBtYmQqn8vQMvOZtNEC5zJz+daJbonKfBFoZbFOjkg0Ol78OD7tDD/ic2gEEKhI4NExXL2Mf0dCQC+Bv46L4DsmFcUijyHgmUByWs5DXBmUz2ggoJnA61OjPEsOofemnSH06aE4BLQVOJ6abdZsseEfEBDQXKDrqHX8jom2mc/EfSZwNOVil5FrNE8bpo+AVgLX9wu5kFPgs5Dx8YFoZ/gYnMMhgIBLAvOjk7RaaZgsApoL3D1i1dGUiy6lAxshgIBnAgfPXLhz+CrNM4fpI6CVQFj8ac9iQ9y9aWeIe26oDAGdBT6ct12rZYbJIqCzwC2DV+5NztA58Zg7Aj4WSEjOuHVIuM6xw9wR0EpgwG+7fRwyPjsc7QyfUXMgBBBwVcBmK7p9GP9wpNdFE7R6VcFkHQVuHBAaeyTV1XRgOwQQ8JLA9mNpNw9a4fhk5DYCCKgq8ODXa1X9uVbaGV5aExgGAQS8J7DrRLqqywnzQgABR4H2/ULW7zvrvfBgJAQQqITA5kMp1/cLcXxKchsBBJQUMFusB05fqEQ6yLMp7Qx5zhWVIqCNwKT1h5RcS5gUAgg4CrTpE2zdkaxNsDFRBEQUWBZ3snUQHwZEAAH1BaYq+nOttDNEXFqoCQHNBf41bavjex5uI4CAegJmi3XWpqOaZx3TR0AEgR/WHeKnxNTLWGaEgJPAG9PU/LlW2hkirCPUgAACVwSy8wo79g91imD+RAABxQQGL4u/8rTnFgII+E/AZisasDResYRhOggg4CTQob+aP9dKO8N/qwdHRgCBsgQ27D/nlL/8iQACigm8NT26oMBWVgBwHwII+EGgoMDWfUaMYjnDdBBAwElgVcIZP+SLwYeknWEwMMMjgEAlBUaGJjiFL38igIBKAo+PXZ+enV/JYGBzBBAwViAzJ/+v4zaoFDXMBQEEnAQGLVXwc5G0M4xdGxgdAQQqK/DshEin8OVPBBBQRuC2oWFHzmVVNhbYHgEEfCCQdD77zuHhyqQNE0EAASeBrqPX+SBJfHwI2hk+BudwCCBQkcDZzFwuse609vAnAsoItO8XEpV4vqII4DEEEPCrQNyxtA79+elW9X/kQpllhYlUSsBssSaeVe1fFGhn+HXR4OAIIFBSYFncyUrlMhsjgIAsAmaLdXHs8ZLPeP5CAAHhBOZHJ/FDJ7LkKnUiUFmBGZGHhQsdzwqineGZH3sjgIBXBXov2lnZXGZ7BBCQQuDL0L1eTQsGQwABowT6LdklRapQJAIIVFag+4xoo4LDT+PSzvATPIdFAIFSAjZb0X1fralsLrM9AgiIL/D61KjCQn7KpFTqcQcCQgrk5Bc+9+1G8YOFChFAoLICNw9aUaDWckw7Q8hlhKIQ0FLg4JkLfMC1sssS2yMgvsDdI1adzczVMtWYNAKyCpxIzb5tKJcF5SIaCCgosPtEuqzBVFbdtDPKUuE+BBDwh8DMjUfEf2NGhQggUCmBtn2CoxJT/JEoHBMBBDwS2HDgXNs+wZV6vrMxAgiILzBz0xGPokGwnWlnCHZCKAcBjQXe+ylW/DWAChFAoFICk9Yf0jjVmDoCcgv8sPZQpZ7vbIwAAuIL/G/uNrmDqWT1tDNKevAXAgj4SSC/wPanL8LEXwOoEAEEXBf498wYG1fM8FOoclgEPBew2Yp6zOZfGhT8uoHrMc6W6gnc++Uaz8NBnBFoZ4hzLqgEAa0Fth5JVW/BYEYI6Cxw/1drz2flaZ1rTB4B+QXSL+Y/NGqdzlHG3BFQTMBssSadz5Y/nC7PgHaGMqeSiSAgt8D4VQcUWy2YDgI6C7TvF7L9WJrcqUT1CCDw/wIxR1K5iIbOec7c1RP4bfsJZeKNdoYyp5KJICC3wJvTo9VbLZgRAtoKTI88LHckUT0CCDgIjA3br22aMXEE1BMY8Ntuh+e33DdpZ8h9/qgeATUEbLaiW4fwg3B8OxcBRQT+NW0rl8xQI5yZBQLFAvkFtue/36TemzolZ9S0+8R6d79QvWmHgDr1TYFVA2pfXb1Ju3r3vNj07e/+cL7mT5c0fq5vnZv/Uu0ac0DNq0yB1QKvalS9Wcer73256Vvj/3D30htcfd8rpsr/X2C9a52GMvde3qibpVa7Oy9NKqBqQM26NVre3PCxD8yfLnHa0vHPho/3tB888KpGLT+e7/iozrefGh+hTLjRzlDmVDIRBCQWOHD6gs6LCnNHQCWBPw9eeSJVnS/lShyslI6AVwUSz2Z1GrhCpbBSby4tPpxXu+N9JlMV+3v4EjeqBFx1e7cK3v83fmFA1frXldil5B+1O9zbvMf0Srl5pZ3R8uMFNVt3LlnL5b+qX3d9i//NKbOk5h/MqFK9ln2va18cVOZmet7Zpk9w+sV8ryaE3wajneE3eg6MAAJ2gUUxx/VcTpg1AooJmC3WxdvU+UauPaO4gQACRUVFC2KSzBZFPkSmWPa2slibvT81sF5j+7v38m7Uanen+bMyPtHg+EGG8vY1mUyBdRs2e2+y63qetzPMvZfXbHt7BSXVbN25zHpqtrmyV52bHylzG53vXLf3rBqxRjtDjfPILBCQW6D/kl06ryjMHQFlBD6YvY2vmcgdx1SPQPkCNltRzznblckrlSbS8uMFVRu2qOA9v+NDV93+rNPcr31pWLmf6XDc8/9vV23QzPzpr04jlPene+2MOp0etg/Y+O/97CVUa9z6utdHt+y18LrXRzvOt8krI+3bF9+45qmP7XsF1m3Y4qNfnDbgz9Er95X/XJfpEdoZMp0takVAVYFnJkSyriCAgOwCdw5fdS4zV9WYYl4IIFBUVJRyIa/LyDWyh5V69dfr8pL93XvxjRotb278/ICm3Sc2/nvf6k2vL/FolYDr3hzniFCjRacSG5hMNVp0avx8/+veHNfwyQ8D617j9GjDJ//nuHsFt1v8b06zd36o+H+Nn+/v2EypUrV68w+ufKWlVocuvx+9iuPlP5q8+uXv95vq3fW8Yw3N//NTQM269kcbPz/A8VFuFwu8OnmLGplGO0ON88gsEJBY4EJOQbu+wawuCCAgtYDZYg3fc1riJKJ0BBBwTWDdvrN85USouDZ/9luV6rXt795NJlMN85/Mny+1F9nyk8XVm3Zw3KD2TQ85PLrIVCXA8dEazW80915m36D5BzMCatRx3KD2DQ/YH/X8htN1Merd/YLjmIF1GxYfuurVTRzvN/debgqsWvxQrevvcXyo1vX32Kutc1NXx4e4bRe4cUBoXoHNtSe90FvRzhD69FAcAjoIbElMsWcrNxBAQFIBy+KdOuQVc0QAgaKiol7z4yRNKiXLbvLyCPu79+IbTh++aGWxXvevbxy3qVK1RsuPFxRrNO850/Ehk8l0zdOfOEHVuflRx23Ku1yF016u/NnouT6OIwfUrNuy5BdDTAGXexY1mt3gNGBgnQbF+zrW06hbb/uAAXXqt/hwrtNe/GkXiDuWpkCg0c5Q4CQyBQTkFpi0/pA9WLmBAAIyCtz31ZrMHEWukS53nlI9Aj4ROJeZe9vQMBnDSsmana7iWaVqDcfPVtinbH/zX/xu/9p/Dil+yPzpEvvHHIofavS3IPtexTfqdn7a3iMwmUx1Oz/ttIF7f5o/XRJ4dRPHkes/9JbTUPZfJ6nasLnjQ+bey0wBgcX71r7x8odNWvxvTkDtq+0DNn6ur+Mu3HYSmLIh0SeBYexBaGcY68voCCDwhwI9fo51ilf+RAABiQTMFmsYXzP5w6RjAwTUEli87YREMaV2qfUffMP+Bt5kMgXUqFPmfKs3aee4Wf2H3rRvVrvDvY4POX13o+XHC0r+ZkqV694Ya9/Xkxv1u77teNzAOg1afrLYacArF/4ICGzeY5r90Wv/OcS+b4O/vFt8f+0bH7Tf6d1vxNiPq9KNHrNjFYgl2hkKnESmgIDcAlxUTKWlkbloKPD+zyq8HpI7RqkeAZ8L2GxFb0zbqmHiCTjlBo++b38PX3yjec9ZTnWaey9z/NiCyWSq86fH7Ns0e2+y47UzLz1686PN3pnUsteiJq997XTdjXpdXrLv6MmNFh/94nTQBo9c7ko4Dlv/oTfts6vR7Iam3SdequqVEVXtH+sIrFY838bPD7BvGVD76hb/m+M4DrdLC9w1fLUCP0ZGO8Pn8c8BEUDAQeBEajZXFCu9wHAPArIIdBq44kRqtsNzmpsIIKCLwJGUizcOCJUlrH4eD20AACAASURBVBSu0/FzCsXv5+ve+len+TZ84r/2t/rFN2p3uNdxm6ZvTXDqdzhtf+nPKgFXP/C6416e3K53zz8cDxFYp0GZv/966bMh9s6F4w6/367/4ButLNaWH/1iv2ioyWRq1M3iSW367Jt4Nkv2wKKdIfsZpH4E5Baw7kjWZ81gpgioJzAlQoVv3sodo1SPgP8EJkckqhdr0s2o5SeL7ReY+P09vumq259t9u6P5s+WNHv3x3r3vGi/zIR9A8fLZxZPucWHc+ve+qTjb6baNzaZTNWbtGv69rfewmnx4Tynmut37V7e4E3f/q7kt12u1FXvrufNvZe3slgdL1bq1Kkpb1jub2WxLoxN8l9+eOfItDO848goCCDgnsDQ4D0sJwggIKnA0+Mj85X4mTf34ou9EECgoMDWbeJGSRNMpbKvvvflK2/xXbtVq92djgLm3suveebTao1alb93lZptbvdWR6Nel5ccD1Slei37L604VmW/3fLj+fUf+Ff1Ju0uNUECqwbWa1yn08PXvT66eAPHz6cE1LyqxX9/bmWxNnv3x7qdn67asHmVqjWqVK9VrZG53l3PFz9kH5YbQfL/KhntDFYiBBDwp8CLP2xmLUEAARkFWgdZY4+m+jM+ODYCCAggsPN4eps+wTKGmEo1mz/99colMx37BPbbAYFVGzS1/2UymWrfdPnXQC59U6PXwlpt73B8tNzbgdWueeZTD+la9lrkdNWM0t+Ocf0QLXstDKx3rb3g4vIufbnm9194tT906TqpNes2ee0r1wdXfsvHxqwXIEU8KoF2hkd87IwAAp4I5BXYbhiwQvmlggkioKRA/yW7PHn6sy8CCCgjELR4p5IpJ9ekWnw4t4b5T45v3a/cDghs+MR/nX6+pG7np4onaO69vGab265sfOlNf+BVt3dr8srIpt0nXPrIRuPWJR6tEnDtPwZ7gtPwsQ9KDGgyNe0+0e0B63Z+yj5arfZ3t7JYGz/X135P6RsBteq1+M+lj2/wv0sCQdaUC3lSZxHtDKlPH8UjILdAXFIaawkCCMgocMewValZcr8Akjs9qR4BkQTOZOR2GsQ/Tvj/7bG597Jrnv6kRvMbTVUCLr+ND6xW6/p7rntjTCuL1anZ0eAv7xSvPtc81cvpPX/jv/d1XJjMn/5ao0Unx20Cr2ps/uw3x20qdbtqwxaOo9VofmOldnfcuMkrI+0X+wioWbf5f34yf7oksE6D4vGrVKvZqFvvlp8sbt5jmmPLpt7dLzgOovntcMl/ap12hkirAbUgoJnAzI1HNF9CmD4CkgrM3XJMs7hiugggUJHAD2sPSZpmSpZt/vTX5h9Mb95zlvnzpfYJBtSu79hEaPLKyOKHnL6lUrPt7fZd7Deavv2t474mk6nx3/vZH63UjSavfe00VMPHPqjUCPaNW36y2PEbNNc81auVxdqom8U+fv2ub9k3bvHRL1Wq1Sh+qGqDZvb7uTFxzYGKntvCP0Y7Q/hTRIEIqCvQa34cqwgCCEgn8PjYiAKuAKpuMjMzBNwQyMkvfGjUOunSTJ+Cm737o/1N/qUbAYHFl95s+cniKx/l+P8t6j90pQXg6BNQq57jCPXuftHxUddv1/3z447jmKoEuH15zqvu+Jt9qFpt7yiu4arbnrbf2ezdHx0Lq93xPvtDLT9Z7PiQzrd7ztnmxlNenF1oZ4hzLqgEAe0EHh7NSx//fzZV5yWcubshYLZYVyWc0S6tmDACCPyRQMiuU25ECrv4RqBel3/a38mbTCb7z5o07znL8X6TyeT4iQbH2pzaGXVvedLxURdvmz9bUqV6bccj1mz1Zxf3ddrsutdH2xsxVWrUad5zZvEGtdrfZR/f/NkSx73q3fl3+0PNe85yfEjn2498s+6PntxCP047Q+jTQ3EIKCxw7kJeqyDezCOAgGQCr06JstkUTiamhgACbgrYbEWvTI7S+W2hsHNv3mOa/XsWxe/nGz3Xp7ha86e/2t/hF9+odf09pSfi/OEOk6lel3+W3uwP77n2xS+cDtfgL+/+4V6lNzB/uqTaNS3tQzV88kP7NjVbd7bf3/KTRfb7W1msjp/maPHRL44P6Xy7TZ/grNwCN5/2AuxGO0OAk0AJCGgpsCrhjM6LB3NHQEaB1kHW3SfStUwsJo0AAn8ssPsEP9rqtw51k1e/LHNZafbeZMcLTJhMpmqNzI7X1Kh2jdn+/v/SjSoBTV4e4TiU+fOlpX/G1fFyoc17TK/d8b6AmlcF1m141e3dWvYq0URwHKruLU+UOJa7v2ni+GGTmq07Ox6i9o0P2g9R6ssm9xc/VKV6LXPv5Y57aX477ljaHz+9Rd2CdoaoZ4a6EFBdYHTYPs0XD6aPgHQCn8yPUz2ZmB8CCHgkYFm8S7pkU6Ngk8lUo9kN9bu+de1Lw5p2n3jdm+Ma/71v3VueNAVWs7+9//8bVZwaH/W7vl1yA1OVqtXr3fOPJq993fTtbxt1s1Rv2tFpg4Da9c2f/lrs1rLXoqoNmjluUPumh8ojDazX2HHLgNpXu9FWaPrWeFNAYPE4VarXav7BdMfDOU7H8YszLXsttH/PpczLnToOotvtuVslvrw37QyPIpudEUDAbYHuM6J1Wy2YLwJSC3TsH3oiNdvtpzw7IoCADgIn0rI79A+ROuskLd6xTVDB7avve8VpgubPllRr1KqCXUo/1Khbb/sg1/5ziPMGVQKcvuVRvHGz96Y4bVm7w732cVy8Yf58abVr29rHafjEf5x2bP7BDMdmx6Ufav14frN3fnD8Ekrj5wc47aX5n4OWxsubTrQz5D13VI6A3AL3fbVG88WD6SMgl8DXK/bKHTpUjwACPhEYvCxernBTo1r7O/wKbtS7+4UyJ9u856yqDVtUsKPjQw0e/rfjIOW0M8r43ZBr/vqh4zgmk+nqB153HMqV21ff/5p9kJqt/lzmhzvq3f2ifZvSN8q8OIgrh1Z4m5cmbfZJNhhyENoZhrAyKAIIVCyQnp3PdUAVXheZmnoCtw4Jy8jOr/h5zaMIIIBAUVHR6fScGwaEqheDgs+o9Pt2x3uq1m967T8GVzCFlh8vqNv5afvnGhz3td+u2qDZtS8Pdxqk5SelvmzS8X6nbYr/rNv5KftQxTcav1C5T0k0ffs7U2DV4n2rVKvZ7P2pZR7I/PnSOp0edjpW8Z+12t7RstfCMvfS+c5bBofJe5Fv2hmsOwgg4AeB2KOpOi8bzB0B6QTGrz7gh6TgkAggIKfAsOAE6VJO9oKb/vv7+l2712zduWrDFpd+VDWgamCdBtWubVv3lieuffELp58sLW+yzXvOqv/QW7Xa3hFYr3GVajVNAYEBtepVb9Ku7q1PXhqk97Iyd2zeY1qt6++pUqPOpUuB3vZMy48XlLlZ9WbO1+Bo3qPEZS/K3Mt+p/nzpdWbdrA3KRo8+r79oTJvNH5+QK12dwbUvtoUUDWgdv1abe9o9LegMrfkzlYWa9J5Wb9MSjtDzlWCqhGQXOCXrUksHgggIIvAn75YmXaRj2ZIHruUj4APBc5m5N40cIUsEUedCCAQHn/ahwnhzUPRzvCmJmMhgICLAkOte1g5EEBAFoFvwva7+NRmMwQQQKBY4KsVe2WJOOpEAIGJa2T9DCbtDBYdBBDwg8Ab07ayciCAgBQCnQatOJ+V54eY4JAIICCzQMqFvE6D+ICGVYqcp0gEes7ZJmne0M6Q9MRRNgJyC3QZyc+a8BIHATkE+EETudOW6hHwn8A3Yft5l4gAAlIIPPLNOv9FhUdHpp3hER87I4CAGwJpF/lZEznex0qxAFOkoQI3DVyRkslHM9zIOXZBAIGi1Ky8m/mAhoUVHwEJBNr0Cc7KLZAxtmhnyHjWqBkBuQWij/CzJhIsbIa+SWZwWQRGhCTIHTdUjwACfhXgJ05kSXvqRCDuWJpf08LNg9POcBOO3RBAwG2BeVuPsWYggID4AjcMCD2Tkev2M50dEUAAgaTz2e36Bosfd1SIAAJzo47JGFm0M2Q8a9SMgNwC/KwJSyYCUggMWhovd9ZQPQIICCDw0bztUiQeRSKgucDApbsFCIxKl0A7o9Jk7IAAAh4K/GtalOYLBtNHQHyB1kHWxLNZHj7Z2R0BBBDYkZRu5voRCCAgvMBLkzbLmFe0M2Q8a9SMgNwC/KyJ+G9lqRCBd2fFyB00VI8AAsIIvDx5C6GKAAKCC9wyOMxmEyY1XC6EdobLVGyIAALeEEi9mM+/0gi+nlEeAq0s1k2HUrzxjGcMBBBAoChsz2lyFQEExBdIOp8tXWDRzpDulFEwAnILbD18Xvw0p0IENBd4ZkKkjP9EI3c4Uj0C6goUFtoe+Wa95rnK9BEQXyA8/rR0OUQ7Q7pTRsEIyC0wdws/a8KvtCIgusD8rUlyBw3VI4CAYAJzthwV/70cFSKgucDENQcES44/Lod2xh8bsQUCCHhRYPCyeM2XCqaPgOACnYeEXcwr8OKznqEQQACBi3kFnYeEC55+lIeA5gL/nbtNurCinSHdKaNgBOQWeG3qVs2XCqaPgOACI0IS5E4ZqkcAASEFhizn3zNE/2ie4MsT5Rkt0G1ipJDhUVFRtDMq0uExBBDwusDdI1YbncWMjwACbgu06RN8NOWi15/4DIgAAggkJGdyLXC3w5kdEfCBQOch4dIlFe0M6U4ZBSMgscD5rDxeyvhgNeIQCLgt0H1GtMQRQ+kIICC2wPPfb3I7ndgRAQSMFjBbrGkX88VOEefqaGc4i/A3AggYJ8DPmhi9DjE+Ah4KWHecNC4BGBkBBDQX+GVrkocZxe4IIGCowK7j6XLFFO0Muc4X1SIgt8CcKC5szvdmERBX4NYh4Tn5hXKnDNUjgIDAApnZBZ0GrTD0zRiDI4CAJwLBO5MFjpAySqOdUQYKdyGAgEECX/CzJhZx38p6svixrxoCA37bbdBzn2ERQACBYoE+v+5UIzCZBQJKCkxaf0iusKKdIdf5oloE5Bb41zR+1oR2BgKCCpgt1u3H0uSOGKpHAAHhBbYdS+MqWkq+DWZSagj0X7JL+BQpUSDtjBIc/IEAAoYKPPLNOjWynlkgoJ7AE+M22GyGBgCDI4AAAkU2W9FT4zeoF6HMCAE1BN6YtlWunKKdIdf5oloEJBaw2YpuHMA3ZgX9l3k11mBm4YnAjxGJEucLpSOAgDwCMzYe8SSs2BcBBIwTeHj0Onmy5FKltDPkOl9Ui4DEAmczc40LX0ZGAAFPBNr1DT6dniNxvlA6AgjII3A6I7dtn2BPIot9EUDAIIHr+4UWFMr0WU3aGfJkP5UiILlAXFKaQcnLsAgg4KHA2zNjJA8YykcAAZkEXp/KtbT4tCYCggoknc+WKE1oZ0h0sigVAbkFQnad8vAdF7sjgIBBAsvjTsqdL1SPAAJSCczfmmRQmjEsAgh4KLDpYIpEcUI7Q6KTRakIyC0wdUOih/HK7gggYIRAh/4hmdkFcucL1SOAgFQCqVl51/cLMSLQGBMBBDwU+CU6SaI4oZ0h0cmiVATkFhhq3eNhvLI7AggYIfDOLL5pIne6Uj0CMgq8MyvGiEBjTAQQ8FBg1Mp9EkUK7QyJThalIiC3QI/ZsR7GK7sjgIARAgtjZfp3GLlzkOoRQOB3gUUxx40INMZEAAEPBT6at/33p6kE/592hgQniRIRUEOg28RID+OV3RFAwOsC7foGn8/KUyNkmAUCCEgkkJqV157vm1gEvRik19caBpRI4O/fbZIoSWhnSHSyKBUBuQXuGLZKoiinVAQ0EXh96la5k4XqEUBAWoHuM/h9E9oZCAgncMewVRKFCu0MiU4WpSIgscDF3MJWQcLltSbvV5kmAhUI/LzlqMTJQukIICCzwIJoft+El0YIiCcQZM3MkeYC4bQzZF4EqB0BeQQOnrlQwRsqHkIAAb8ItA6ynkrPkSdIqBQBBJQSOJOR25p/6uD7JgiIJ7DnZIYsWUM7Q5YzRZ0IyC0Qsf+sX96tcVAEEKhA4MUfNsudLFSPAAKSCzw7cWMFGcVDCCDgF4EVu0/JEi20M2Q5U9SJgNwCv/CBUvFa735ZIDmoUAI/RiTKnSxUjwACkguMWrlPqFSkGAQQaGWxTpXn5QHtDMkXAcpHQBKBseH7WR4QQEA0gYRkaT5NKknUUSYCCFROYOvh86IFI/UggMCgpfGVeyb7b2vaGf6z58gI6CTw2YIdrA0IICCUwF3DV9tsOsUQc0UAAfEE8gtstw4JFyobKQYBBLrPiBEvLcquiHZG2S7ciwAC3hV4bcoW1gYEEBBKoNf8OO8+zRkNAQQQcEPgP3O2CZWNFIMAAo+PjXDjueyXXWhn+IWdgyKgnUDX0etYGxBAQCiBxbHHtUsiJowAAuIJ8HOtQi0NFINAK4v1tqHh4kVF2RXRzijbhXsRQMCLAjZbUYf+oSwPCCAgkECQ9SQ/0erFmGMoBBBwVyA5PacVP9fK9cIREEmgTZ/g/AI5vo9KO8Pd6GU/BBBwWeBUeo5A7+JEWi1gQcBfAk+M2+DyM5gNEUAAAWMFnp4Q6a8w5LgIIFCmwKmMXGOf9l4anXaGlyAZBgEEyhfYdjStzKDkTgQQ8JfAEOue8p+yPIIAAgj4VGBESIK/wpDjIoBAmQKy/PYZ7QyfhjUHQ0BPAeuO5DKDkjsRQMBfAqsTzugZR8waAQQEFFgZf8pfYchxEUCgTIHIA+cEzIrSJdHOKG3CPQgg4GWByRGJZQYldyKAgF8E2vcLuZBT4OXnOcMhgAAC7gqcy8zj8hl+WQ44KALlCSyLO+nuE9qn+9HO8Ck3B0NAT4Ehy+PLy0ruRwAB3wv8/btNemYRs0YAAWEFHh2z3vdhyBERQKA8gRkbjwgbF46F0c5w1OA2AggYIvDxL3HlZSX3I4CA7wUGL4s35KnOoAgggIC7Ar0X7fR9GHJEBBAoT2B02D53n80+3Y92hk+5ORgCegp0n7G1vKzkfgQQ8L3A0u1yfIJUz8Bk1gjoKbAgOsn3YcgREUCgPIF+S3ZJkUW0M6Q4TRSJgNwCL3y/sbys5H4EEPC9wNGUi3JnCtUjgIByAofOZPk+DDkiAgiUJ9BjdqwUMUM7Q4rTRJEIyC3wyDfrystK7kcAAR8L3Dl8lc0md6RQPQIIqCdgsxXdMWyVj/OQwyGAQHkC/5i0WYqcoZ0hxWmiSATkFridFygWa3mrBfcj4GOBd2bFyB0oVI8AAooKvP9zjI/zkMMhgEB5Ao+OWSdF0tDOkOI0USQCEgvYbEXt+4WWl5XcjwACPhb4du1BiQOF0hFAQF2BH/lZd/7xAwFhBG4bGi5F2NDOkOI0USQCEgtkZBf4+N0ah0MAgQoEIg+ckzhQKB0BBNQViDxwroLs4iEEEPClQJs+wfkFEnw3lXaGumsCM0NADIFj5y/6Mnw5FgIIVCDQpk9wZnaBGNlAFQgggEAJgXMX8szC/NN0BUHKQwhoInA6I7fEU1TIP2hnCHlaKAoBhQR2HU/XJPSZJgLiCzw+dr1C6cJUEEBANYF7RqwWP0ipEAFNBBKSM8SPGNoZ4p8jKkRAboEN+/nsKNcBRUAUgf/O3SZ3oFA9AggoLfDW9GhN3igyTQTEF9ggw7dTaWcovSYwOQQEELDuSBY/r6kQAU0EJqw+IEAqUAICCCBQtsDI0ARN0phpIiC+wLK4k2U/UUW6l3aGSGeDWhBQUWBO1FHx85oKEdBEIGRnsooxw5wQQEARgd+2n9AkjZkmAuILzNh4RPxkoZ0h/jmiQgTkFvh+7UHx85oKEdBE4MDpC3IHCtUjgIDSAntPZWqSxkwTAfEFRoftEz9vaGeIf46oEAG5BUaE8MFRUa6bIP7CSYWGCnToHyLFj67JHXlUjwACHgjkF9g69A81NAkZHAEEXBTot2SXB89mH+1KO8NH0BwGAW0FLIt3uhiabIYAAoYK/HVchLZBxMQRQEAWgWcnRBqahAyOAAIuCvSYHSt+btDOEP8cUSECcgv0+DnWxdBkMwQQMFTgw3nb5U4TqkcAAQ0Ees2PMzQJGRwBBFwU+MekzeJHDu0M8c8RFSIgt8Arkze7GJpshgAChgqM52dN5E5TqkdAC4Ex4fsNTUIGRwABFwUeHbNO/NChnSH+OaJCBOQW+Ou4CBdDk80QQMBQgZBdp+ROE6pHAAENBBbFHDc0CRkcAQRcFOgyco34kUM7Q/xzRIUIyC1w75drXAxNNkMAAUMFEpIz5E4TqkcAAQ0EohLPG5qEDI4AAi4KdB4SLn7k0M4Q/xxRIQJyC3QauNLF0GQzBBAwTsBssaZn58udJlSPAAIaCJxMyzEuCRkZAQRcF7hxwArxI4d2hvjniAoRkFggJ6/QbOFnShFAwP8CtwwOkzhKKB0BBLQRsNmKOvZf4fo7LrZEAAGDBNr0CbHZRI8e2hminyHqQ0BqgVPp/BuL/9/HGrTIMaxcAvxKq9RZSvEIaCXw6Jj1cgUs1SKgpIDZYr2YVyh4+NDOEPwEUR4CcgvsP5WpZL4zKQSkE3h7ZrTcaUL1CCCgjUD3GdHSZSwFI6CkwPmsPMGDh3aG4CeI8hCQWyD6MBf04tMZCAghMOC33XKnCdUjgIA2AgOX7lbynSGTQkA6geT0HMGDh3aG4CeI8hCQW2D9vrPSBTcFI6CkwKR1h+ROE6pHAAFtBKZGJCqZw0wKAekEDp/LEjx4aGcIfoIoDwG5BcLiT0sX3BSMgJICS7eflDtNqB4BBLQRWB53UskcZlIISCewNzlT8OChnSH4CaI8BOQWsO7gFYkQXzSQbvmkYK8LRB8+L3eaUD0CCGgjEHngnNczkAERQMANgbhjaYIHD+0MwU8Q5SEgt8DibcfdiE52QQABrwucSM2WO02oHgEEtBHYm8x1xPm3EASEEIhKTBE8eGhnCH6CKA8BuQXmRR3z+rsyBkQAgcoKmC3WHOF/a03usKN6BBDwnsDpjNzKphzbI4CAEQLr95313jPbkJFoZxjCyqAIIFAsMHPjESOylTERQKBSAjcNXEkoIYAAArIIFBTa2vQJrlTKsTECCBghsHL3KcFzg3aG4CeI8hCQW2AyFye3CPFZQSNWOMaUSKDLyDVyRwnVI4CAZgK3DV0lUcZSKgKqCoh/HXHaGZotDkwXAd8KTFxzUNV8Z14ISCTw5LgI3z71ORoCCCDgkcBjYyIkylhKRUBVgfnRSR49k43fmXaG8cYcAQGNBb4J269qvjMvBCQSePnHzRrnEFNHAAH5BP45aYtEGUupCKgqMGvzEcHjg3aG4CeI8hCQW2BkaIKq+c68EJBI4P2fY+SOEqpHAAHNBD6YHStRxlIqAqoKTI5IFDx7aGcIfoIoDwG5BQYvi1c135kXAhIJ9F60Q+4ooXoEENBMoP+SXRJlLKUioKrAhNUHBM8e2hmCnyDKQ0BugX68HOFSoAgIIDA8OEHuKKF6BBDQTGBYMJ/u5FLiCPhfYNTKfYJnD+0MwU8Q5SEgt0DvRTtVbVczLwQkEvhu7UG5o4TqEUBAM4HRYfskylhKRUBVgWHWPYJnD+0MwU8Q5SEgt8CnC+JUzXfmhYBEAj9tPip3lFA9AghoJvDdWn4Zzf//Mi/RMkepBgn0X7JL8OyhnSH4CaI8BOQW+PgX2hm8HEHA/wILYkT/oTW5k47qEUDA2wJTNyQa9PaMYRFAwHWBzxaIfu0t2hneTl/GQwABB4EP5213PTHZEgEEDBL4bfsJh+clNxFAAAHRBX7efNSgPGRYBBBwXeC/c7cJHha0MwQ/QZSHgNwCPedscz0x2RIBBAwSCNmZLHeUUD0CCGgmsDAmyaA8ZFgEEHBd4J1Z0YJnD+0MwU8Q5SEgt0CPn/ndeP9/0cD1RYstVRVYnXBG7iihegQQ0ExgedxJVQOZeSEgkcBb07cKnj20MwQ/QZSHgNwC786KkSiyKRUBVQUi9p+VO0qoHgEENBMIiz+taiAzLwQkEnh7Jp/O0Cx8mS4CCDgKvD2TdgafzkDA/wKbDqY4PjG5jQACCAguELH/rERv+SgVAVUF3vspRvCs4NMZgp8gykNAboE3p0ermu/MCwGJBKISaWfInaVUj4BuAlGJKRJlLKUioKpAj9mxgocP7QzBTxDlISC3wOtTo1TNd+aFgEQC0YfPyx0lVI8AApoJbDpIO8P/n+yTaJmjVIME+GUTzaKX6SKAQEmB16ZsMSheGRYBBFwX2H40reRTk78QQAABoQX4sonrCc+WCBgn8NG87UInRVERn84Q/ARRHgJyC7w0abNxCcvICCDgogDtDLmTlOoR0E9g3V6uncGnMxDwv8An8+MEjx/aGYKfIMpDQG6Bf07i0xn+X4pcfMfLZgoLcO0MuZOU6hHQT2DVHn7ZhNcPCPhf4POFOwSPH9oZgp8gykNAbgGunaHwO2SmJpEAP9Qqd5JSPQL6CYTFn5IoYykVAVUFghbvFDx+aGcIfoIoDwG5Bd6eyS+b+L+zruoSy7xcFwjfc1ruKKF6BBDQTCBkZ7LrEceWCCBgkEC/JbsEzx7aGYKfIMpDQG6BHrNjDYpXhkUAAdcFgncmyx0lVI8AApoJWHecdD3i2BIBBAwSGLh0t+DZQztD8BNEeQjILfDRvO0GxSvDIoCA6wK/bT8hd5RQPQIIaCbw2/YTrkccWyKAgEECg5fFC549tDMEP0GUh4DcAp8v3GFQvDIsAgi4LrAgOknuKKF6BBDQTGDxtuOuRxxbIoCAQQLDgvcInj20MwQ/QZSHgNwC/ZbsMiheGRYBBFwX+HnzUbmjhOoRQEAzgXlRx1yPOLZEAAGDBEaGJAiePbQzBD9BlIeA3AKDl8UbFK8MiwACrgtM23BY7iihegQQ0ExgckSi6xHHlgggYJDAqBV7Bc8e2hmCnyDKQ0BugS9DEwyKV4ZFAAHXBX5Yd0juKKF6BBDQTGBs+H7XI44tEUDAIIFvwvYJnj20MwQ/QZSHgNwC4v04UQAAB9pJREFUY8J4OcIPtSLgf4GvV4r+ckTupKN6BBDwtsAw6x6D3p4xLAIIuC4wftV+bz+5vTwe7QwvgzIcAgg4Cny75qDricmWCCBgkID4vxvvmBvcRgABBCyLdxqUhwyLAAKuC0xcc0DwOKKdIfgJojwE5Bbgu6+uLxhsiYBxAh/MjpU7SqgeAQQ0E+g5Z5txkcjICCDgosAP6w4Knj20MwQ/QZSHgNwCMzYdcTEu2QwBBIwTeGVylNxRQvUIIKCZwKtTooyLREZGAAEXBX5cL/q1t2hnaLY4MF0EfCswlx9as/j/ugkurlhsprDAk+M2+Papz9EQQAABjwSeHh+pcCYzNQRkEZi6IdGjZ7LxO9POMN6YIyCgscCi2OOy5DV1IqCwwD0jVmucQ0wdAQTkE7jvqzUKZzJTQ0AWgRkbRf+hd9oZ8uU7FSMgkcCyuJOy5DV1IqCwQIf+oTabRMlBqQggoLtAp0ErFc5kpoaALAI/bT4qeBjRzhD8BFEeAnILrNx9Spa8pk4EFBYwW6wZ2QVypwnVI4CANgIZ2QVmvqqJAAICCMyJop2hTfIyUQQQKC2wdu8Zhd8iMjUEJBI4mnKx9DOUexBAAAEBBfafviBRulIqAgoL/BKdJGBEOJbEpzMcNbiNAAJeFth44JzCEc/UEJBIYNuxNC8/vRkOAQQQMEZg/b6zEqUrpSKgsMDyuJPGPMu9NirtDK9RMhACCJQWiD58XuGIZ2oISCQQvDO59DOUexBAAAEBBX7ZmiRRulIqAgoLrN17RsCIcCyJdoajBrcRQMDLAjuS0hSOeKaGgEQCk9eL/ltrXk4fhkMAAWkFxq86IFG6UioCCgtEHz4veJDQzhD8BFEeAnIL7E3OUDjimRoCEgkMWhovd5pQPQIIaCMQtHinROlKqQgoLLA3OUPw4KGdIfgJojwE5BY4dCZL4YhnaghIJPDvmTFypwnVI4CANgJvTY+WKF0pFQGFBZLOZwsePLQzBD9BlIeA3ALHU7MVjnimhoBEAk+O2yB3mlA9AghoI/DEuA0SpSulIqCwwPmsfMGDh3aG4CeI8hCQW+BMZq7CEc/UEJBI4OZBK202ufOE6hFAQBOBWwaHSZSulIqAsgJB1vwC0V860M7QZF1gmgj4RyA339YqyKpsyluYGgLSCJgt1nMX8vwTBBwVAQQQcFkg/WKBmeUVAQQEELhp4EqXn7h+25B2ht/oOTACmgjcPGgl7QwEEBBBYEdSuiaxwzQRQEBegTh+E02A97EirFnU4HeBu4avFj9JaGeIf46oEAG5BR78eq3f45gCEECglcUavDNZ7jShegQQ0EBgcexxEhsBBEQQ+Ms368WPHNoZ4p8jKkRAboFuEyNFSGRqQACBSesOyZ0mVI8AAhoIfLViL3GNAAIiCHSbuFH8yKGdIf45okIE5BZ4c/pWERKZGhBA4JP5cXKnCdUjgIAGAu/9FENcI4CACAKvTokSP3JoZ4h/jqgQAbkFPv4lToREpgYEEHh2QqTcaUL1CCCggcAj36wnrhFAQASBHj/Hih85tDPEP0dUiIDcAoOXxYuQyNSAAAId+68Q/xfX5M47qkcAAc8EcvIK2/UNJq4RQEAEgaDFOz17Qvtib9oZvlDmGAjoLDBh9QEREpkaEECglcW6/9QFneOIuSOAgOACe09lktUIICCIwJehCYInRlFREe0M8c8RFSIgt8BPm48KEsqUgQACVn7cRO5ApXoEFBew7kwmqBFAQBABKa4gTjtD8VWB6SHgdwHrjpOChDJlIIDAmPD9fs8ECkAAAQTKE+ATnaxTCIgjMHfrsfKequLcTztDnHNBJQioKRB54Jw4uUwlCGguIMVlvdSMQmaFAAIuCPxnzjbNU5rpIyCOQIgMn+ikneFCsrIJAgh4ILDnZIY4uUwlCGgu8PDodR48m9kVAQQQMFbgga/Xap7STB8BcQQ2HUwx9gnvjdFpZ3hDkTEQQKB8gRNp2eLkMpUgoLlAmz7BF3ILyn++8ggCCCDgN4Gzmblmi1XzlGb6CIgjsOdkht/iwOUD085wmYoNEUDALYGcvEJenYizMlEJAlGHz7v1VGYnBBBAwFiBVXtOE9EIICCOwInUbGOf894YnXaGNxQZAwEEKhToNGilONFMJQhoLjBp/aEKn688iAACCPhHYEzYfs3zmekjII6A2WKV4uOctDP8k9ccFQGtBO7/iq/C8ulZBEQReP/nGK3yh8kigIAsAm9O3yrOezkqQUBzgY79V0gRHbQzpDhNFImA3ALPTozUfElg+giII3DX8NU2m9yRQvUIIKCegM1WdNvQcHGikkoQ0Fzg7hGrpcgZ2hlSnCaKREBugX9Ni9J8SWD6CAglcCTlotyZQvUIIKCcQOLZLKFykmIQ0FzgmQkbpIgZ2hlSnCaKREBugY/mbdd8SWD6CAgl8Ou2E3JnCtUjgIByAr9tPyFUTlIMApoL/HtmtBQxQztDitNEkQjILTBoabzmSwLTR0AogQG/7ZY7U6geAQSUExhi3SNUTlIMApoLyPJSgXaGcqsBE0JAPIHxq7hWuSiXgdR8bWb6xQLPTIgULyeoCAEEtBZ4ZsIGIhoBBMQR+G7tQSkiiXaGFKeJIhGQW2DmpiPipDOVIIBA2z7BmdkFcscK1SOAgEICKZl5rYPo+yOAgEACi7cdlyJj/g/jC7sSlvjdWwAAAABJRU5ErkJggg==;strokeWidth=0;" vertex="1" parent="1">
          <mxGeometry x="309" y="140" width="1442" height="677.76" as="geometry" />
        </mxCell>
        <mxCell id="dcRDBtTyZHfLPVehlYID-26" value="" style="endArrow=classic;html=1;rounded=0;strokeWidth=1;" edge="1" parent="1">
          <mxGeometry width="50" height="50" relative="1" as="geometry">
            <mxPoint x="1341" y="200" as="sourcePoint" />
            <mxPoint x="1226" y="264" as="targetPoint" />
          </mxGeometry>
        </mxCell>
        <mxCell id="dcRDBtTyZHfLPVehlYID-27" value="" style="endArrow=classic;html=1;rounded=0;strokeWidth=1;" edge="1" parent="1">
          <mxGeometry width="50" height="50" relative="1" as="geometry">
            <mxPoint x="1261" y="200" as="sourcePoint" />
            <mxPoint x="1210" y="264" as="targetPoint" />
          </mxGeometry>
        </mxCell>
        <mxCell id="dcRDBtTyZHfLPVehlYID-28" value="" style="endArrow=classic;html=1;rounded=0;strokeWidth=1;" edge="1" parent="1">
          <mxGeometry width="50" height="50" relative="1" as="geometry">
            <mxPoint x="1180" y="200" as="sourcePoint" />
            <mxPoint x="1202" y="264" as="targetPoint" />
          </mxGeometry>
        </mxCell>
        <mxCell id="dcRDBtTyZHfLPVehlYID-29" value="" style="endArrow=classic;html=1;rounded=0;strokeWidth=1;" edge="1" parent="1">
          <mxGeometry width="50" height="50" relative="1" as="geometry">
            <mxPoint x="1100" y="200" as="sourcePoint" />
            <mxPoint x="1194" y="264" as="targetPoint" />
          </mxGeometry>
        </mxCell>
        <mxCell id="dcRDBtTyZHfLPVehlYID-30" value="&lt;font&gt;0.17%&lt;/font&gt;" style="text;html=1;align=center;verticalAlign=middle;whiteSpace=wrap;rounded=0;fillColor=none;strokeColor=default;dashed=1;dashPattern=1 2;fontSize=19;" vertex="1" parent="1">
          <mxGeometry x="1070" y="170" width="60" height="30" as="geometry" />
        </mxCell>
        <mxCell id="dcRDBtTyZHfLPVehlYID-31" value="&lt;font&gt;0.28%&lt;/font&gt;" style="text;html=1;align=center;verticalAlign=middle;whiteSpace=wrap;rounded=0;fillColor=none;strokeColor=default;dashed=1;dashPattern=1 2;fontSize=19;" vertex="1" parent="1">
          <mxGeometry x="1150" y="170" width="60" height="30" as="geometry" />
        </mxCell>
        <mxCell id="dcRDBtTyZHfLPVehlYID-32" value="&lt;font&gt;0.38%&lt;/font&gt;" style="text;html=1;align=center;verticalAlign=middle;whiteSpace=wrap;rounded=0;fillColor=none;strokeColor=default;dashed=1;dashPattern=1 2;fontSize=19;" vertex="1" parent="1">
          <mxGeometry x="1230" y="170" width="60" height="30" as="geometry" />
        </mxCell>
        <mxCell id="dcRDBtTyZHfLPVehlYID-33" value="&lt;font&gt;0.49%&lt;/font&gt;" style="text;html=1;align=center;verticalAlign=middle;whiteSpace=wrap;rounded=0;fillColor=none;strokeColor=default;dashed=1;dashPattern=1 2;fontSize=19;" vertex="1" parent="1">
          <mxGeometry x="1310" y="170" width="60" height="30" as="geometry" />
        </mxCell>
      </root>
    </mxGraphModel>
  </diagram>
</mxfile>
